<svg width="738" height="1583" viewBox="0 0 738 1583" fill="none" xmlns="http://www.w3.org/2000/svg">
<g clip-path="url('#clip0_503_156')">
<mask id="path-1-inside-1_503_156" fill="white">
<path d="M358.24 778.702C306.301 691.519 258.34 610.813 227.56 533.314C217.355 501.885 209.337 470.935 204.381 441.277C186.929 356.385 194.218 306.524 226.643 237.814C227.331 236.377 228.059 234.898 228.809 233.42C244.241 224.61 265.504 216.404 289.87 214.008C344.162 208.656 436.357 222.423 471.615 321.603C508.809 426.386 429.401 630.682 358.24 778.702ZM693.553 187.807C690.013 180.997 676.872 156.358 672.352 147.923C671.499 146.361 670.936 145.34 670.811 145.111C613.458 39.7869 611.521 59.7396 575.722 53.4081C574.389 53.179 573.014 52.8249 571.682 52.4917C530.905 43.0985 460.827 16.5435 426.59 3.96376C391.207 -8.9909 298.096 18.8762 237.993 24.7912C222.707 26.2699 210.858 29.0817 201.403 32.7682C173.767 43.4943 166.895 61.7182 155.482 76.6514C148.818 85.399 144.153 88.0441 137.968 89.5021C137.843 89.5229 137.676 89.5228 137.593 89.5645C90.8397 106.331 -19.6191 242.604 4.247 430.655C5.9547 449.108 9.82826 467.082 14.8056 484.682C60.4761 665.151 213.315 907.187 250.843 975.876C223.186 1039.52 164.167 1170.22 145.34 1293.31C144.57 1297.47 140.009 1325.76 139.717 1349.5C137.218 1412.06 148.943 1469.32 185.221 1510.43C185.45 1510.68 192.344 1518.08 192.656 1518.41C211.212 1536.7 233.078 1548.32 255.091 1555.29C286.246 1568.71 309.946 1561.21 332.875 1557.32C343.1 1563.52 353.804 1568.31 364.696 1572.04C430.255 1594.7 503.603 1576.52 537.965 1557.32C584.052 1542.34 605.065 1515.29 618.227 1473.34C631.493 1433.83 651.798 1353.21 605.836 1233.89C585.197 1182.36 543.671 1101.72 479.695 984.498L479.278 983.811C530.572 886.734 667.917 646.532 692.366 576.343C693.699 572.636 694.844 569.054 695.989 565.471C737.516 459.21 764.631 318.645 693.553 187.807"></path>
</mask>
<path d="M358.24 778.702L360.043 779.569L358.429 782.926L356.522 779.726L358.24 778.702ZM227.56 533.314L225.701 534.052L225.677 533.992L225.657 533.931L227.56 533.314ZM204.381 441.277L206.34 440.875L206.347 440.911L206.353 440.948L204.381 441.277ZM226.643 237.814L224.835 236.96L224.839 236.951L226.643 237.814ZM228.809 233.42L227.025 232.515L227.297 231.98L227.818 231.683L228.809 233.42ZM289.87 214.008L290.066 215.999L290.065 215.999L289.87 214.008ZM471.615 321.603L473.499 320.933L473.499 320.934L471.615 321.603ZM672.352 147.923L674.107 146.964L674.111 146.971L674.115 146.978L672.352 147.923ZM670.811 145.111L669.056 146.069L669.055 146.068L670.811 145.111ZM575.722 53.4081L576.061 51.437L576.07 51.4386L575.722 53.4081ZM571.682 52.4917L572.131 50.5427L572.149 50.5469L572.167 50.5514L571.682 52.4917ZM426.59 3.96376L427.277 2.08568L427.28 2.08647L426.59 3.96376ZM237.993 24.7912L238.189 26.7816L238.186 26.7819L237.993 24.7912ZM201.403 32.7682L202.129 34.6315L202.126 34.6326L201.403 32.7682ZM155.482 76.6514L153.891 75.4394L153.893 75.437L155.482 76.6514ZM137.968 89.5021L138.427 91.4487L138.362 91.4639L138.297 91.4748L137.968 89.5021ZM137.593 89.5645L138.488 91.3533L138.381 91.4068L138.268 91.4471L137.593 89.5645ZM4.247 430.655L6.23109 430.403L6.23536 430.437L6.23849 430.471L4.247 430.655ZM14.8056 484.682L16.7301 484.137L16.7376 484.164L16.7444 484.191L14.8056 484.682ZM250.843 975.876L252.598 974.917L253.067 975.775L252.677 976.673L250.843 975.876ZM145.34 1293.31L147.317 1293.61L147.313 1293.64L147.307 1293.67L145.34 1293.31ZM139.717 1349.5L141.717 1349.52L141.717 1349.55L141.716 1349.58L139.717 1349.5ZM185.221 1510.43L183.747 1511.78L183.734 1511.77L183.722 1511.76L185.221 1510.43ZM192.656 1518.41L191.252 1519.83L191.224 1519.81L191.197 1519.78L192.656 1518.41ZM255.091 1555.29L255.695 1553.39L255.79 1553.42L255.882 1553.46L255.091 1555.29ZM332.875 1557.32L332.54 1555.34L333.275 1555.22L333.912 1555.61L332.875 1557.32ZM364.696 1572.04L365.344 1570.15L365.35 1570.15L364.696 1572.04ZM537.965 1557.32L536.989 1555.57L537.16 1555.47L537.347 1555.41L537.965 1557.32ZM618.227 1473.34L616.318 1472.74L616.324 1472.72L616.331 1472.7L618.227 1473.34ZM605.836 1233.89L607.692 1233.14L607.697 1233.15L607.702 1233.17L605.836 1233.89ZM479.695 984.498L481.405 983.462L481.429 983.5L481.451 983.54L479.695 984.498ZM479.278 983.811L477.568 984.848L476.981 983.878L477.51 982.877L479.278 983.811ZM692.366 576.343L690.477 575.685L690.48 575.676L690.484 575.666L692.366 576.343ZM695.989 565.471L694.084 564.862L694.104 564.802L694.127 564.743L695.989 565.471ZM356.522 779.726C304.604 692.578 256.552 611.728 225.701 534.052L229.418 532.575C260.128 609.897 307.998 690.459 359.958 777.679L356.522 779.726ZM225.657 533.931C215.43 502.432 207.385 471.384 202.408 441.607L206.353 440.948C211.29 470.487 219.28 501.338 229.462 532.696L225.657 533.931ZM202.422 441.68C193.67 399.106 191.095 365.191 194.822 333.245C198.549 301.294 208.565 271.435 224.835 236.96L228.452 238.668C212.296 272.903 202.455 302.329 198.795 333.709C195.133 365.094 197.64 398.556 206.34 440.875L202.422 441.68ZM224.839 236.951C225.533 235.5 226.269 234.007 227.025 232.515L230.593 234.324C229.85 235.79 229.128 237.254 228.448 238.677L224.839 236.951ZM227.818 231.683C243.456 222.754 264.988 214.445 289.674 212.018L290.065 215.999C266.02 218.362 245.026 226.465 229.801 235.156L227.818 231.683ZM289.674 212.018C344.335 206.629 437.782 220.46 473.499 320.933L469.73 322.273C434.932 224.385 343.989 210.682 290.066 215.999L289.674 212.018ZM473.499 320.934C482.933 347.509 484.93 380.248 481.59 416.597C478.249 452.967 469.552 493.086 457.481 534.498C433.34 617.322 395.646 705.512 360.043 779.569L356.438 777.836C391.996 703.872 429.586 615.904 453.641 533.379C465.668 492.117 474.296 452.263 477.607 416.232C480.919 380.18 478.894 348.088 469.73 322.272L473.499 320.934ZM691.778 188.73C688.245 181.933 675.11 157.306 670.59 148.867L674.115 146.978C678.633 155.41 691.78 180.061 695.327 186.885L691.778 188.73ZM670.598 148.882C669.753 147.337 669.177 146.292 669.056 146.069L672.567 144.154C672.696 144.389 673.244 145.385 674.107 146.964L670.598 148.882ZM669.055 146.068C654.725 119.752 643.886 101.318 635.134 88.3587C626.369 75.3804 619.784 68.0266 613.994 63.7454C608.297 59.5324 603.278 58.2248 597.4 57.5848C591.607 56.954 584.364 56.9676 575.373 55.3775L576.07 51.4386C584.979 53.0144 591.403 52.9082 597.833 53.6083C604.18 54.2994 609.942 55.7735 616.373 60.5293C622.712 65.217 629.601 73.019 638.449 86.12C647.31 99.2401 658.221 117.808 672.568 144.155L669.055 146.068ZM575.383 55.3792C573.959 55.1345 572.5 54.758 571.196 54.432L572.167 50.5514C573.528 50.8919 574.819 51.2235 576.061 51.437L575.383 55.3792ZM571.233 54.4407C530.298 45.0111 460.056 18.3911 425.9 5.84105L427.28 2.08647C461.598 14.6959 531.512 41.186 572.131 50.5427L571.233 54.4407ZM425.902 5.84183C417.461 2.75129 405.353 2.03766 390.767 2.91737C376.236 3.79376 359.489 6.23209 341.902 9.27213C306.839 15.333 268.334 23.8149 238.189 26.7816L237.797 22.8008C267.755 19.8525 305.857 11.4433 341.221 5.33058C358.847 2.2838 375.769 -0.185335 390.526 -1.07537C405.228 -1.96209 418.027 -1.30111 427.277 2.08568L425.902 5.84183ZM238.186 26.7819C223.041 28.247 211.377 31.0257 202.129 34.6315L200.676 30.9048C210.338 27.1377 222.374 24.2928 237.801 22.8005L238.186 26.7819ZM202.126 34.6326C175.177 45.0926 168.778 62.5478 157.071 77.8659L153.893 75.437C165.012 60.8886 172.358 41.896 200.679 30.9037L202.126 34.6326ZM157.073 77.8635C153.671 82.3297 150.694 85.3516 147.691 87.4498C144.66 89.5679 141.696 90.6782 138.427 91.4487L137.509 87.5554C140.426 86.868 142.887 85.9268 145.4 84.1709C147.942 82.3951 150.63 79.7206 153.891 75.4394L157.073 77.8635ZM138.297 91.4748C138.202 91.4907 138.118 91.4996 138.075 91.5041C138.054 91.5062 138.027 91.5089 138.017 91.5099C138.002 91.5114 137.997 91.512 137.994 91.5123C137.983 91.5136 138.022 91.5098 138.082 91.497C138.115 91.4901 138.166 91.4781 138.229 91.4582C138.291 91.4387 138.382 91.4061 138.488 91.3533L136.699 87.7757C136.937 87.6566 137.15 87.6057 137.256 87.5832C137.375 87.5581 137.479 87.5452 137.536 87.5386C137.583 87.5332 137.66 87.5257 137.662 87.5254C137.688 87.5227 137.672 87.5239 137.639 87.5293L138.297 91.4748ZM138.268 91.4471C127.034 95.4758 111.63 106.855 95.1522 124.84C78.7237 142.771 61.3799 167.103 46.2189 196.788C15.8994 256.153 -5.64445 336.831 6.23109 430.403L2.26292 430.907C-9.72766 336.428 12.0248 254.945 42.6566 194.968C57.9712 164.983 75.5168 140.35 92.2029 122.137C108.84 103.979 124.776 92.0363 136.918 87.6819L138.268 91.4471ZM6.23849 430.471C7.93175 448.768 11.7752 466.617 16.7301 484.137L12.8811 485.226C7.88133 467.548 3.97765 449.449 2.25551 430.84L6.23849 430.471ZM16.7444 484.191C39.5176 574.181 89.0482 679.63 137.645 771.259C161.933 817.056 185.97 859.366 206.284 894.527C226.582 929.66 243.201 957.717 252.598 974.917L249.088 976.835C239.721 959.69 223.161 931.734 202.821 896.528C182.496 861.348 158.432 818.991 134.111 773.134C85.4882 681.455 35.764 575.652 12.8667 485.172L16.7444 484.191ZM252.677 976.673C224.992 1040.39 166.097 1170.83 147.317 1293.61L143.363 1293C162.237 1169.61 221.38 1038.66 249.008 975.079L252.677 976.673ZM147.307 1293.67C146.545 1297.79 142.007 1325.95 141.717 1349.52L137.718 1349.47C138.011 1325.57 142.595 1297.15 143.374 1292.94L147.307 1293.67ZM141.716 1349.58C139.226 1411.9 150.928 1468.55 186.721 1509.11L183.722 1511.76C146.958 1470.09 135.21 1412.23 137.719 1349.42L141.716 1349.58ZM186.696 1509.08C186.916 1509.32 193.801 1516.71 194.115 1517.04L191.197 1519.78C190.886 1519.45 183.985 1512.04 183.747 1511.78L186.696 1509.08ZM194.06 1516.98C212.353 1535.01 233.928 1546.49 255.695 1553.39L254.487 1557.2C232.229 1550.15 210.071 1538.38 191.252 1519.83L194.06 1516.98ZM255.882 1553.46C286.372 1566.58 309.381 1559.28 332.54 1555.34L333.21 1559.29C310.511 1563.14 286.12 1570.83 254.3 1557.13L255.882 1553.46ZM333.912 1555.61C343.998 1561.73 354.569 1566.46 365.344 1570.15L364.048 1573.93C353.04 1570.16 342.202 1565.32 331.837 1559.02L333.912 1555.61ZM365.35 1570.15C430.254 1592.58 503.006 1574.56 536.989 1555.57L538.941 1559.06C504.199 1578.48 430.257 1596.82 364.043 1573.93L365.35 1570.15ZM537.347 1555.41C560.125 1548.01 576.581 1537.67 588.965 1524.09C601.362 1510.5 609.79 1493.55 616.318 1472.74L620.135 1473.94C613.502 1495.08 604.842 1512.62 591.92 1526.79C578.986 1540.97 561.892 1551.64 538.583 1559.22L537.347 1555.41ZM616.331 1472.7C629.493 1433.5 649.719 1353.38 603.969 1234.6L607.702 1233.17C653.876 1353.04 633.492 1434.16 620.123 1473.98L616.331 1472.7ZM603.979 1234.63C583.392 1183.23 541.925 1102.69 477.939 985.456L481.451 983.54C545.417 1100.74 587.002 1181.49 607.692 1233.14L603.979 1234.63ZM477.985 985.535L477.568 984.848L480.989 982.774L481.405 983.462L477.985 985.535ZM477.51 982.877C503.158 934.336 550.353 849.95 594.13 769.042C637.97 688.016 678.319 610.589 690.477 575.685L694.255 577.001C681.964 612.285 641.415 690.054 597.648 770.946C553.816 851.956 506.692 936.209 481.047 984.745L477.51 982.877ZM690.484 575.666C691.803 571.998 692.938 568.449 694.084 564.862L697.894 566.08C696.75 569.658 695.595 573.274 694.248 577.02L690.484 575.666ZM694.127 564.743C735.57 458.694 762.456 318.832 691.795 188.762L695.31 186.853C766.805 318.459 739.461 459.725 697.852 566.199L694.127 564.743Z" fill="#272727" mask="url('#path-1-inside-1_503_156')"></path>
<mask id="path-3-inside-2_503_156" fill="white">
<path d="M399.231 0.610012C355.393 1.27649 286.148 20.0631 238 24.7909C222.672 26.2696 210.843 29.1021 201.409 32.7677C173.794 43.5147 166.901 61.739 155.489 76.6306C148.783 85.399 144.118 88.0853 137.974 89.5016C137.828 89.5224 137.683 89.523 137.579 89.5855C90.8251 106.352 -19.6129 242.646 4.23235 430.655C5.94005 449.108 9.83442 467.082 14.8117 484.681C60.4406 665.151 213.321 907.187 250.849 975.876C223.193 1039.52 164.173 1170.22 145.346 1293.29C144.555 1297.47 140.015 1325.76 139.724 1349.44C137.183 1412.09 148.928 1469.32 185.248 1510.43C185.457 1510.7 192.35 1518.12 192.662 1518.43C211.176 1536.7 233.085 1548.32 255.076 1555.32H255.097C286.252 1568.69 309.993 1561.21 332.839 1557.32C343.106 1563.52 353.81 1568.31 364.702 1572.04C430.261 1594.7 503.588 1576.52 537.971 1557.32C584.058 1542.34 605.071 1515.24 618.233 1473.34C631.499 1433.85 651.804 1353.21 605.863 1233.91C585.162 1182.36 543.677 1101.72 479.66 984.519L479.264 983.811C530.536 886.734 667.902 646.573 692.372 576.343C693.684 572.635 694.85 569.054 695.996 565.471C737.501 459.21 764.637 318.604 693.559 187.828C690.019 180.976 676.899 156.42 672.359 147.902C671.526 146.361 670.963 145.341 670.818 145.112C613.464 39.7666 611.527 59.7398 575.686 53.4083C574.395 53.2208 573.021 52.825 571.688 52.4917C530.89 43.1194 460.791 16.5648 426.596 3.98506C420.515 1.77736 412.83 0.755804 403.854 0.610012H399.231ZM444.006 925.89C441.882 922.266 439.841 918.851 437.779 915.352C358.809 773.392 273.778 649.718 227.566 533.356C217.341 501.906 209.343 470.936 204.366 441.299C186.935 356.406 194.203 306.504 226.65 237.856C257.825 171.729 352.103 89.2316 404.854 114.474C462.853 142.258 494.758 148.819 515.813 146.257C536.034 143.758 546.072 132.74 559.505 121.743C562.295 119.306 569.126 114.578 569.709 114.12C601.218 138.384 622.94 166.709 641.683 195.035C800.623 435.154 538.221 802.758 453.128 940.74C447.401 931.16 444.048 925.911 444.006 925.89ZM248.621 1478.63C236.729 1477.07 224.838 1472.38 213.405 1464.57C197.494 1453.55 185.623 1437.29 179.5 1418.94C161.028 1363.41 164.902 1253.09 263.927 1003.26C274.278 1025.67 284.003 1046.81 288.21 1055.48C345.522 1171.47 359.288 1277.83 359.371 1341.4C353.186 1421.31 314.638 1469.82 271.175 1477.96C266.406 1478.71 261.741 1479.07 257.18 1479.07C254.285 1479.07 251.432 1478.9 248.621 1478.63"></path>
</mask>
<path d="M399.231 0.610012L399.201 -1.38976L399.216 -1.38999H399.231V0.610012ZM238 24.7909L238.195 26.7813L238.192 26.7816L238 24.7909ZM201.409 32.7677L200.684 30.9039L200.685 30.9035L201.409 32.7677ZM155.489 76.6306L153.9 75.4157L153.901 75.4141L155.489 76.6306ZM137.974 89.5016L138.424 91.4505L138.341 91.4695L138.257 91.4815L137.974 89.5016ZM137.579 89.5855L138.608 91.3004L138.439 91.4017L138.254 91.4681L137.579 89.5855ZM4.23235 430.655L6.21646 430.403L6.22072 430.437L6.22384 430.471L4.23235 430.655ZM14.8117 484.681L16.7362 484.137L16.7439 484.164L16.7507 484.191L14.8117 484.681ZM250.849 975.876L252.604 974.917L253.073 975.776L252.683 976.673L250.849 975.876ZM145.346 1293.29L147.324 1293.59L147.318 1293.62L147.312 1293.66L145.346 1293.29ZM139.724 1349.44L141.723 1349.46L141.723 1349.49L141.722 1349.52L139.724 1349.44ZM185.248 1510.43L186.747 1509.11L186.792 1509.16L186.834 1509.21L185.248 1510.43ZM192.662 1518.43L191.258 1519.85L191.248 1519.84L192.662 1518.43ZM255.076 1555.32V1557.32H254.766L254.47 1557.22L255.076 1555.32ZM255.097 1555.32V1553.32H255.508L255.886 1553.48L255.097 1555.32ZM332.839 1557.32L332.503 1555.34L333.237 1555.22L333.874 1555.6L332.839 1557.32ZM364.702 1572.04L365.35 1570.15L365.356 1570.15L364.702 1572.04ZM537.971 1557.32L536.996 1555.57L537.167 1555.47L537.353 1555.41L537.971 1557.32ZM618.233 1473.34L616.325 1472.74L616.331 1472.72L616.337 1472.7L618.233 1473.34ZM605.863 1233.91L607.718 1233.16L607.724 1233.17L607.729 1233.19L605.863 1233.91ZM479.66 984.519L481.405 983.543L481.41 983.552L481.415 983.56L479.66 984.519ZM479.264 983.811L477.518 984.787L476.988 983.838L477.495 982.877L479.264 983.811ZM692.372 576.343L690.483 575.685L690.487 575.675L692.372 576.343ZM695.996 565.471L694.091 564.862L694.11 564.802L694.133 564.744L695.996 565.471ZM693.559 187.828L691.802 188.783L691.792 188.765L691.782 188.746L693.559 187.828ZM672.359 147.902L674.118 146.951L674.124 146.961L672.359 147.902ZM670.818 145.112L669.13 146.185L669.094 146.128L669.061 146.068L670.818 145.112ZM575.686 53.4083L575.974 51.429L576.004 51.4334L576.034 51.4388L575.686 53.4083ZM571.688 52.4917L572.136 50.5425L572.154 50.5468L572.173 50.5514L571.688 52.4917ZM426.596 3.98506L427.278 2.1051L427.286 2.10805L426.596 3.98506ZM403.854 0.610012V-1.38999H403.871L403.887 -1.38972L403.854 0.610012ZM444.006 925.89L443.112 927.679L442.581 927.413L442.281 926.901L444.006 925.89ZM437.779 915.352L436.056 916.367L436.044 916.346L436.032 916.324L437.779 915.352ZM227.566 533.356L225.707 534.094L225.684 534.035L225.664 533.974L227.566 533.356ZM204.366 441.299L206.325 440.896L206.333 440.932L206.339 440.967L204.366 441.299ZM226.65 237.856L228.459 238.709L228.458 238.711L226.65 237.856ZM404.854 114.474L405.717 112.67L405.718 112.671L404.854 114.474ZM515.813 146.257L516.058 148.242L516.054 148.242L515.813 146.257ZM559.505 121.743L560.82 123.25L560.796 123.271L560.772 123.291L559.505 121.743ZM569.709 114.12L568.474 112.547L569.697 111.586L570.93 112.535L569.709 114.12ZM641.683 195.035L640.015 196.138L640.015 196.138L641.683 195.035ZM453.128 940.74L454.83 941.79L453.101 944.594L451.411 941.766L453.128 940.74ZM213.405 1464.57L212.276 1466.22L212.266 1466.22L213.405 1464.57ZM179.5 1418.94L177.603 1419.57L177.603 1419.57L179.5 1418.94ZM263.927 1003.26L262.068 1002.53L263.787 998.191L265.743 1002.43L263.927 1003.26ZM288.21 1055.48L286.417 1056.36L286.411 1056.35L288.21 1055.48ZM359.371 1341.4L361.371 1341.39L361.371 1341.47L361.365 1341.55L359.371 1341.4ZM271.175 1477.96L271.543 1479.93L271.514 1479.93L271.485 1479.94L271.175 1477.96ZM399.262 2.60978C377.541 2.94 349.439 7.7668 320.598 13.1436C291.847 18.5037 262.38 24.4065 238.195 26.7813L237.804 22.8005C261.768 20.4474 290.998 14.593 319.865 9.21132C348.644 3.84623 377.083 -1.0535 399.201 -1.38976L399.262 2.60978ZM238.192 26.7816C223.008 28.2465 211.364 31.0454 202.133 34.6319L200.685 30.9035C210.322 27.1587 222.336 24.2927 237.807 22.8001L238.192 26.7816ZM202.134 34.6315C175.203 45.1127 168.784 62.5699 157.076 77.8472L153.901 75.4141C165.018 60.9082 172.386 41.9166 200.684 30.9039L202.134 34.6315ZM157.077 77.8456C153.656 82.3195 150.67 85.3553 147.669 87.4605C144.638 89.5869 141.682 90.6994 138.424 91.4505L137.525 87.5527C140.41 86.8875 142.859 85.9488 145.372 84.1858C147.916 82.4017 150.616 79.7102 153.9 75.4157L157.077 77.8456ZM138.257 91.4815C138.183 91.4921 138.111 91.4997 138.085 91.5026C138.046 91.5069 138.053 91.5066 138.069 91.504C138.088 91.5011 138.151 91.4907 138.238 91.4648C138.326 91.4382 138.459 91.3897 138.608 91.3004L136.549 87.8706C136.935 87.6391 137.303 87.5751 137.452 87.5518C137.536 87.5387 137.613 87.5304 137.646 87.5268C137.691 87.5218 137.693 87.5215 137.691 87.5217L138.257 91.4815ZM138.254 91.4681C127.02 95.4967 111.616 106.877 95.1406 124.863C78.7137 142.795 61.3719 167.129 46.2121 196.814C15.8951 256.179 -5.6487 336.852 6.21646 430.403L2.24825 430.907C-9.73188 336.449 12.0207 254.97 42.6498 194.994C57.963 165.009 75.5066 140.375 92.1911 122.161C108.827 104.001 124.761 92.0573 136.903 87.7029L138.254 91.4681ZM6.22384 430.471C7.91699 448.766 11.7809 466.615 16.7362 484.137L12.8872 485.225C7.88796 467.549 3.96311 449.45 2.24086 430.839L6.22384 430.471ZM16.7507 484.191C39.5031 574.18 89.0335 679.63 137.635 771.259C161.926 817.056 185.967 859.366 206.284 894.527C226.586 929.66 243.207 957.718 252.604 974.917L249.094 976.835C239.727 959.691 223.165 931.735 202.821 896.528C182.493 861.349 158.425 818.991 134.101 773.134C85.4735 681.455 35.7492 575.652 12.8727 485.171L16.7507 484.191ZM252.683 976.673C224.999 1040.39 166.103 1170.83 147.324 1293.59L143.369 1292.98C162.243 1169.61 221.386 1038.66 249.015 975.079L252.683 976.673ZM147.312 1293.66C146.531 1297.79 142.013 1325.94 141.723 1349.46L137.724 1349.41C138.017 1325.57 142.58 1297.16 143.381 1292.91L147.312 1293.66ZM141.722 1349.52C139.191 1411.92 150.913 1468.54 186.747 1509.11L183.749 1511.76C146.944 1470.09 135.175 1412.25 137.725 1349.36L141.722 1349.52ZM186.834 1509.21C186.793 1509.16 186.838 1509.22 187.092 1509.49C187.297 1509.72 187.582 1510.03 187.921 1510.4C188.599 1511.13 189.489 1512.09 190.382 1513.06C191.275 1514.02 192.172 1514.98 192.864 1515.72C193.21 1516.09 193.504 1516.41 193.721 1516.64C193.83 1516.76 193.918 1516.85 193.982 1516.92C194.056 1517 194.081 1517.02 194.076 1517.02L191.248 1519.84C191.057 1519.65 189.214 1517.68 187.45 1515.78C186.555 1514.81 185.663 1513.85 184.98 1513.11C184.639 1512.74 184.349 1512.42 184.136 1512.19C183.971 1512.01 183.755 1511.77 183.663 1511.65L186.834 1509.21ZM194.067 1517.01C212.317 1535.01 233.933 1546.49 255.683 1553.41L254.47 1557.22C232.236 1550.15 210.036 1538.38 191.258 1519.85L194.067 1517.01ZM255.076 1553.32H255.097V1557.32H255.076V1553.32ZM255.886 1553.48C286.377 1566.56 309.43 1559.28 332.503 1555.34L333.175 1559.29C310.557 1563.14 286.128 1570.81 254.308 1557.15L255.886 1553.48ZM333.874 1555.6C344.003 1561.73 354.575 1566.46 365.35 1570.15L364.055 1573.93C353.046 1570.16 342.209 1565.32 331.804 1559.03L333.874 1555.6ZM365.356 1570.15C430.26 1592.58 502.992 1574.56 536.996 1555.57L538.946 1559.06C504.185 1578.48 430.263 1596.82 364.049 1573.93L365.356 1570.15ZM537.353 1555.41C560.131 1548.01 576.587 1537.66 588.971 1524.08C601.369 1510.48 609.796 1493.53 616.325 1472.74L620.141 1473.94C613.508 1495.06 604.848 1512.6 591.927 1526.77C578.992 1540.96 561.898 1551.64 538.589 1559.22L537.353 1555.41ZM616.337 1472.7C629.499 1433.52 649.726 1353.38 603.996 1234.63L607.729 1233.19C653.882 1353.04 633.498 1434.18 620.129 1473.98L616.337 1472.7ZM604.007 1234.65C583.357 1183.23 541.931 1102.69 477.904 985.478L481.415 983.56C545.424 1100.74 586.967 1181.49 607.718 1233.16L604.007 1234.65ZM477.914 985.495L477.518 984.787L481.01 982.835L481.405 983.543L477.914 985.495ZM477.495 982.877C503.133 934.336 550.328 849.961 594.11 769.058C637.955 688.037 678.315 610.61 690.483 575.685L694.261 577.001C681.959 612.306 641.401 690.075 597.628 770.961C553.791 851.966 506.667 936.21 481.032 984.745L477.495 982.877ZM690.487 575.675C691.788 571.998 692.947 568.439 694.091 564.862L697.901 566.08C696.754 569.668 695.58 573.273 694.257 577.01L690.487 575.675ZM694.133 564.744C735.555 458.694 762.462 318.79 691.802 188.783L695.316 186.873C766.812 318.417 739.447 459.726 697.859 566.199L694.133 564.744ZM691.782 188.746C688.25 181.909 675.14 157.374 670.594 148.843L674.124 146.961C678.657 155.467 691.788 180.043 695.336 186.91L691.782 188.746ZM670.599 148.853C670.184 148.085 669.838 147.45 669.579 146.981C669.45 146.747 669.344 146.557 669.263 146.415C669.223 146.344 669.191 146.288 669.166 146.245C669.139 146.199 669.129 146.183 669.13 146.185L672.505 144.038C672.7 144.345 673.309 145.454 674.118 146.951L670.599 148.853ZM669.061 146.068C654.731 119.747 643.892 101.31 635.14 88.3503C626.374 75.3711 619.788 68.0181 613.996 63.7384C608.297 59.5267 603.274 58.2207 597.39 57.5822C591.589 56.9528 584.34 56.9679 575.338 55.3778L576.034 51.4388C584.953 53.0144 591.386 52.9072 597.821 53.6056C604.173 54.2949 609.939 55.7668 616.373 60.5214C622.715 65.208 629.606 73.0096 638.455 86.1116C647.316 99.2328 658.227 117.804 672.574 144.155L669.061 146.068ZM575.399 55.3875C573.975 55.1808 572.432 54.7394 571.203 54.432L572.173 50.5514C573.609 50.9105 574.815 51.2608 575.974 51.429L575.399 55.3875ZM571.24 54.4409C530.284 45.0321 460.021 18.4125 425.905 5.86208L427.286 2.10805C461.562 14.7172 531.497 41.2067 572.136 50.5425L571.24 54.4409ZM425.913 5.86501C420.128 3.76461 412.693 2.75383 403.822 2.60975L403.887 -1.38972C412.968 -1.24223 420.902 -0.209897 427.278 2.10512L425.913 5.86501ZM403.854 2.61001H399.231V-1.38999H403.854V2.61001ZM442.281 926.901C440.155 923.274 438.13 919.886 436.056 916.367L439.502 914.336C441.552 917.815 443.609 921.258 445.732 924.879L442.281 926.901ZM436.032 916.324C396.557 845.363 355.602 779.033 318.661 715.763C281.747 652.54 248.872 592.423 225.707 534.094L229.425 532.617C252.472 590.651 285.218 650.552 322.115 713.746C358.985 776.894 400.031 843.381 439.527 914.379L436.032 916.324ZM225.664 533.974C215.415 502.452 207.391 471.385 202.394 441.63L206.339 440.967C211.296 470.488 219.266 501.36 229.468 532.737L225.664 533.974ZM202.407 441.701C193.665 399.127 191.091 365.202 194.817 333.254C198.545 301.3 208.561 271.446 224.841 237.002L228.458 238.711C212.292 272.914 202.451 302.335 198.79 333.717C195.129 365.105 197.636 398.578 206.325 440.896L202.407 441.701ZM224.841 237.003C240.588 203.602 272.18 166.203 306.455 140.306C323.602 127.351 341.512 117.203 358.544 111.895C375.568 106.59 391.914 106.065 405.717 112.67L403.991 116.279C391.419 110.263 376.198 110.583 359.734 115.714C343.279 120.842 325.781 130.718 308.867 143.497C275.022 169.07 243.887 205.984 228.459 238.709L224.841 237.003ZM405.718 112.671C463.665 140.429 495.122 146.76 515.571 144.272L516.054 148.242C494.394 150.878 462.042 144.087 403.99 116.278L405.718 112.671ZM515.567 144.272C535.075 141.861 544.594 131.366 558.238 120.196L560.772 123.291C547.551 134.115 536.994 145.654 516.058 148.242L515.567 144.272ZM558.189 120.237C559.664 118.949 562.142 117.107 564.261 115.57C565.333 114.793 566.334 114.079 567.101 113.533C567.485 113.259 567.807 113.029 568.052 112.854C568.175 112.766 568.274 112.694 568.35 112.639C568.388 112.611 568.418 112.589 568.441 112.572C568.465 112.554 568.474 112.546 568.474 112.547L570.945 115.692C570.617 115.95 568.657 117.324 566.609 118.809C564.469 120.36 562.137 122.1 560.82 123.25L558.189 120.237ZM570.93 112.535C602.69 136.992 624.554 165.524 643.35 193.931L640.015 196.138C621.325 167.894 599.747 139.775 568.489 115.704L570.93 112.535ZM643.35 193.931C723.399 314.863 697.195 467.645 640.772 606.94C584.32 746.306 497.308 872.911 454.83 941.79L451.425 939.69C494.041 870.588 580.777 744.399 637.064 605.438C693.381 466.406 718.907 315.325 640.015 196.138L643.35 193.931ZM451.411 941.766C448.553 936.985 446.289 933.287 444.736 930.785C443.959 929.533 443.361 928.582 442.956 927.944C442.753 927.625 442.6 927.388 442.499 927.232C442.447 927.153 442.413 927.101 442.394 927.072C442.383 927.056 442.384 927.058 442.392 927.07C442.395 927.073 442.413 927.098 442.439 927.132C442.451 927.147 442.483 927.188 442.529 927.238C442.551 927.263 442.596 927.311 442.658 927.367C442.69 927.396 442.856 927.551 443.112 927.679L444.901 924.101C445.157 924.229 445.323 924.384 445.356 924.414C445.418 924.47 445.463 924.519 445.486 924.545C445.534 924.597 445.568 924.64 445.582 924.657C445.613 924.697 445.637 924.731 445.647 924.745C445.671 924.778 445.694 924.812 445.711 924.837C445.748 924.893 445.796 924.965 445.852 925.05C445.964 925.223 446.125 925.474 446.332 925.799C446.746 926.451 447.352 927.415 448.134 928.675C449.7 931.198 451.975 934.914 454.844 939.714L451.411 941.766ZM248.36 1480.61C236.121 1479 223.937 1474.19 212.276 1466.22L214.533 1462.92C225.739 1470.57 237.337 1475.13 248.881 1476.65L248.36 1480.61ZM212.266 1466.22C195.984 1454.94 183.857 1438.31 177.603 1419.57L181.398 1418.3C187.39 1436.26 199.004 1452.17 214.543 1462.93L212.266 1466.22ZM177.603 1419.57C168.227 1391.39 164.611 1349.57 175.68 1283.63C186.749 1217.69 212.527 1127.51 262.068 1002.53L265.787 1004C216.302 1128.84 190.63 1218.73 179.625 1284.29C168.618 1349.86 172.302 1390.96 181.398 1418.31L177.603 1419.57ZM265.743 1002.43C276.101 1024.85 285.813 1045.96 290.009 1054.6L286.411 1056.35C282.193 1047.66 272.454 1026.5 262.112 1004.1L265.743 1002.43ZM290.003 1054.59C347.471 1170.89 361.287 1277.57 361.371 1341.39L357.371 1341.4C357.288 1278.09 343.573 1172.04 286.417 1056.36L290.003 1054.59ZM361.365 1341.55C355.147 1421.89 316.29 1471.54 271.543 1479.93L270.806 1476C312.986 1468.09 351.225 1420.73 357.377 1341.24L361.365 1341.55ZM271.485 1479.94C266.613 1480.7 261.845 1481.07 257.18 1481.07V1477.07C261.637 1477.07 266.198 1476.72 270.864 1475.99L271.485 1479.94ZM257.18 1481.07C254.209 1481.07 251.29 1480.9 248.429 1480.62L248.812 1476.64C251.574 1476.9 254.361 1477.07 257.18 1477.07V1481.07Z" fill="#272727" mask="url('#path-3-inside-2_503_156')"></path>
</g>
<defs>
<clipPath id="clip0_503_156">
<rect width="738" height="1583" fill="white"></rect>
</clipPath>
</defs>
</svg>
