<svg width="738" height="1583" fill="none" xmlns="http://www.w3.org/2000/svg"><g clip-path="url('#clip0_503_156')"><mask id="path-1-inside-1_503_156" fill="#fff"><path d="M358.24 778.702c-51.939-87.183-99.9-167.889-130.68-245.388-10.205-31.429-18.223-62.379-23.179-92.037-17.452-84.892-10.163-134.753 22.262-203.463a213.408 213.408 0 0 1 2.166-4.394c15.432-8.81 36.695-17.016 61.061-19.412 54.292-5.352 146.487 8.415 181.745 107.595 37.194 104.783-42.214 309.079-113.375 457.099Zm335.313-590.895c-3.54-6.81-16.681-31.449-21.201-39.884-.853-1.562-1.416-2.583-1.541-2.812-57.353-105.324-59.29-85.371-95.089-91.703-1.333-.229-2.708-.583-4.04-.916-40.777-9.393-110.855-35.948-145.092-48.528C391.207-8.991 298.096 18.876 237.993 24.79c-15.286 1.479-27.135 4.29-36.59 7.977-27.636 10.726-34.508 28.95-45.921 43.883-6.664 8.748-11.329 11.393-17.514 12.851-.125.02-.292.02-.375.063C90.84 106.33-19.619 242.603 4.247 430.654c1.708 18.453 5.581 36.427 10.559 54.027 45.67 180.469 198.509 422.505 236.037 491.194-27.657 63.644-86.676 194.344-105.503 317.434-.77 4.16-5.331 32.45-5.623 56.19-2.499 62.56 9.226 119.82 45.504 160.93.229.25 7.123 7.65 7.435 7.98 18.556 18.29 40.422 29.91 62.435 36.88 31.155 13.42 54.855 5.92 77.784 2.03 10.225 6.2 20.929 10.99 31.821 14.72 65.559 22.66 138.907 4.48 173.269-14.72 46.087-14.98 67.1-42.03 80.262-83.98 13.266-39.51 33.571-120.13-12.391-239.45-20.639-51.53-62.165-132.17-126.141-249.392l-.417-.687c51.294-97.077 188.639-337.279 213.088-407.468 1.333-3.707 2.478-7.289 3.623-10.872 41.527-106.261 68.642-246.826-2.436-377.664"/></mask><path d="m358.24 778.702 1.803.867-1.614 3.357-1.907-3.2 1.718-1.024ZM227.56 533.314l-1.859.738-.024-.06-.02-.061 1.903-.617Zm-23.179-92.037 1.959-.402.007.036.006.037-1.972.329Zm22.262-203.463-1.808-.854.004-.009 1.804.863Zm2.166-4.394-1.784-.905.272-.535.521-.297.991 1.737Zm61.061-19.412.196 1.991h-.001l-.195-1.991Zm181.745 107.595 1.884-.67v.001l-1.884.669Zm200.737-173.68 1.755-.959.004.007.004.007-1.763.945Zm-1.541-2.812-1.755.958-.001-.001 1.756-.957Zm-95.089-91.703.339-1.971.009.002-.348 1.97Zm-4.04-.916.449-1.95.018.005.018.004-.485 1.94ZM426.59 3.964l.687-1.878h.003l-.69 1.878ZM237.993 24.79l.196 1.99h-.003l-.193-1.99Zm-36.59 7.977.726 1.864h-.003l-.723-1.864Zm-45.921 43.883-1.591-1.212.002-.002 1.589 1.214Zm-17.514 12.851.459 1.947-.065.015-.065.01-.329-1.972Zm-.375.063.895 1.788-.107.054-.113.04-.675-1.883ZM4.247 430.654l1.984-.252.004.034.003.034-1.991.184Zm10.559 54.027 1.924-.545.008.027.006.027-1.938.491Zm236.037 491.194 1.755-.959.469.858-.39.898-1.834-.797ZM145.34 1293.31l1.977.3-.004.03-.006.03-1.967-.36Zm-5.623 56.19 2 .02v.03l-.001.03-1.999-.08Zm45.504 160.93-1.474 1.35-.013-.01-.012-.01 1.499-1.33Zm7.435 7.98-1.404 1.42-.028-.02-.027-.03 1.459-1.37Zm62.435 36.88.604-1.9.095.03.092.04-.791 1.83Zm77.784 2.03-.335-1.98.735-.12.637.39-1.037 1.71Zm31.821 14.72.648-1.89h.006l-.654 1.89Zm173.269-14.72-.976-1.75.171-.1.187-.06.618 1.91Zm80.262-83.98-1.909-.6.006-.02.007-.02 1.896.64Zm-12.391-239.45 1.856-.75.005.01.005.02-1.866.72ZM479.695 984.498l1.71-1.036.024.038.022.04-1.756.958Zm-.417-.687-1.71 1.037-.587-.97.529-1.001 1.768.934Zm213.088-407.468-1.889-.658.003-.009.004-.01 1.882.677Zm3.623-10.872-1.905-.609.02-.06.023-.059 1.862.728ZM356.522 779.726c-51.918-87.148-99.97-167.998-130.821-245.674l3.717-1.477c30.71 77.322 78.58 157.884 130.54 245.104l-3.436 2.047ZM225.657 533.931c-10.227-31.499-18.272-62.547-23.249-92.324l3.945-.659c4.937 29.539 12.927 60.39 23.109 91.748l-3.805 1.235Zm-23.235-92.251c-8.752-42.574-11.327-76.489-7.6-108.435 3.727-31.951 13.743-61.81 30.013-96.285l3.617 1.708c-16.156 34.235-25.997 63.661-29.657 95.041-3.662 31.385-1.155 64.847 7.545 107.166l-3.918.805Zm22.417-204.729c.694-1.451 1.43-2.944 2.186-4.436l3.568 1.809a209.287 209.287 0 0 0-2.145 4.353l-3.609-1.726Zm2.979-5.268c15.638-8.929 37.17-17.238 61.856-19.665l.391 3.981c-24.045 2.363-45.039 10.466-60.264 19.157l-1.983-3.473Zm61.856-19.665c54.661-5.389 148.108 8.442 183.825 108.915l-3.769 1.34c-34.798-97.888-125.741-111.591-179.664-106.274l-.392-3.981Zm183.825 108.916c9.434 26.575 11.431 59.314 8.091 95.663-3.341 36.37-12.038 76.489-24.109 117.901-24.141 82.824-61.835 171.014-97.438 245.071l-3.605-1.733c35.558-73.964 73.148-161.932 97.203-244.457 12.027-41.262 20.655-81.116 23.966-117.147 3.312-36.052 1.287-68.144-7.877-93.96l3.769-1.338ZM691.778 188.73c-3.533-6.797-16.668-31.424-21.188-39.863l3.525-1.889c4.518 8.432 17.665 33.083 21.212 39.907l-3.549 1.845Zm-21.18-39.848c-.845-1.545-1.421-2.59-1.542-2.813l3.511-1.915c.129.235.677 1.231 1.54 2.81l-3.509 1.918Zm-1.543-2.814c-14.33-26.316-25.169-44.75-33.921-57.71-8.765-12.978-15.35-20.331-21.14-24.613-5.697-4.213-10.716-5.52-16.594-6.16-5.793-.631-13.036-.617-22.027-2.208l.697-3.938c8.909 1.575 15.333 1.47 21.763 2.17 6.347.69 12.109 2.164 18.54 6.92 6.339 4.688 13.228 12.49 22.076 25.591 8.861 13.12 19.772 31.688 34.119 58.035l-3.513 1.913Zm-93.672-90.689c-1.424-.244-2.883-.621-4.187-.947l.971-3.88c1.361.34 2.652.672 3.894.885l-.678 3.942Zm-4.15-.938C530.298 45.01 460.056 18.39 425.9 5.84l1.38-3.755c34.318 12.61 104.232 39.1 144.851 48.457l-.898 3.898ZM425.902 5.84c-8.441-3.09-20.549-3.803-35.135-2.924-14.531.877-31.278 3.315-48.865 6.355-35.063 6.061-73.568 14.543-103.713 17.51l-.392-3.981c29.958-2.948 68.06-11.358 103.424-17.47 17.626-3.047 34.548-5.516 49.305-6.406 14.702-.887 27.501-.226 36.751 3.16l-1.375 3.757Zm-187.716 20.94c-15.145 1.466-26.809 4.245-36.057 7.85l-1.453-3.726c9.662-3.767 21.698-6.612 37.125-8.105l.385 3.982Zm-36.06 7.852c-26.949 10.46-33.348 27.915-45.055 43.233l-3.178-2.429c11.119-14.548 18.465-33.541 46.786-44.533l1.447 3.729Zm-45.053 43.23c-3.402 4.467-6.379 7.489-9.382 9.587-3.031 2.118-5.995 3.228-9.264 3.999l-.918-3.894c2.917-.687 5.378-1.628 7.891-3.384 2.542-1.776 5.23-4.45 8.491-8.732l3.182 2.425Zm-18.776 13.612a3.6 3.6 0 0 1-.222.03l-.058.005-.023.002a1.53 1.53 0 0 0 .235-.054 1.78 1.78 0 0 0 .259-.105l-1.789-3.577c.238-.12.451-.17.557-.193.119-.025.223-.038.28-.044l.126-.014c.026-.002.01-.001-.023.004l.658 3.946Zm-.029-.028c-11.234 4.029-26.638 15.408-43.116 33.393-16.428 17.931-33.772 42.263-48.933 71.948C15.899 256.153-5.644 336.831 6.23 430.403l-3.968.504c-11.99-94.479 9.762-175.962 40.394-235.939 15.314-29.985 32.86-54.618 49.546-72.831 16.637-18.158 32.573-30.1 44.715-34.455l1.35 3.765ZM6.238 430.471c1.694 18.297 5.537 36.146 10.492 53.666l-3.849 1.089c-5-17.678-8.903-35.777-10.625-54.386l3.982-.369Zm10.506 53.72c22.774 89.99 72.304 195.439 120.901 287.068 24.288 45.797 48.325 88.107 68.639 123.268 20.298 35.133 36.917 63.19 46.314 80.39l-3.51 1.918c-9.367-17.145-25.927-45.101-46.267-80.307-20.325-35.18-44.389-77.537-68.71-123.394-48.623-91.679-98.347-197.482-121.244-287.962l3.877-.981Zm235.933 492.482c-27.685 63.717-86.58 194.157-105.36 316.937l-3.954-.61c18.874-123.39 78.017-254.34 105.645-317.921l3.669 1.594Zm-105.37 316.997c-.762 4.12-5.3 32.28-5.59 55.85l-3.999-.05c.293-23.9 4.877-52.32 5.656-56.53l3.933.73Zm-5.591 55.91c-2.49 62.32 9.212 118.97 45.005 159.53l-2.999 2.65c-36.764-41.67-48.512-99.53-46.003-162.34l3.997.16Zm44.98 159.5c.22.24 7.105 7.63 7.419 7.96l-2.918 2.74c-.311-.33-7.212-7.74-7.45-8l2.949-2.7Zm7.364 7.9c18.293 18.03 39.868 29.51 61.635 36.41l-1.208 3.81c-22.258-7.05-44.416-18.82-63.235-37.37l2.808-2.85Zm61.822 36.48c30.49 13.12 53.499 5.82 76.658 1.88l.67 3.95c-22.699 3.85-47.09 11.54-78.91-2.16l1.582-3.67Zm78.03 2.15c10.086 6.12 20.657 10.85 31.432 14.54l-1.296 3.78c-11.008-3.77-21.846-8.61-32.211-14.91l2.075-3.41Zm31.438 14.54c64.904 22.43 137.656 4.41 171.639-14.58l1.952 3.49c-34.742 19.42-108.684 37.76-174.898 14.87l1.307-3.78Zm171.997-14.74c22.778-7.4 39.234-17.74 51.618-31.32 12.397-13.59 20.825-30.54 27.353-51.35l3.817 1.2c-6.633 21.14-15.293 38.68-28.215 52.85-12.934 14.18-30.028 24.85-53.337 32.43l-1.236-3.81Zm78.984-82.71c13.162-39.2 33.388-119.32-12.362-238.1l3.733-1.43c46.174 119.87 25.79 200.99 12.421 240.81l-3.792-1.28Zm-12.352-238.07c-20.587-51.4-62.054-131.94-126.04-249.174l3.512-1.916c63.966 117.2 105.551 197.95 126.241 249.6l-3.713 1.49ZM477.985 985.535l-.417-.687 3.421-2.074.416.688-3.42 2.073Zm-.475-2.658c25.648-48.541 72.843-132.927 116.62-213.835 43.84-81.026 84.189-158.453 96.347-193.357l3.778 1.316c-12.291 35.284-52.84 113.053-96.607 193.945-43.832 81.01-90.956 165.263-116.601 213.799l-3.537-1.868Zm212.974-407.211c1.319-3.668 2.454-7.217 3.6-10.804l3.81 1.218c-1.144 3.578-2.299 7.194-3.646 10.94l-3.764-1.354Zm3.643-10.923c41.443-106.049 68.329-245.911-2.332-375.981l3.515-1.909c71.495 131.606 44.151 272.872 2.542 379.346l-3.725-1.456Z" fill="#272727" mask="url('#path-1-inside-1_503_156')"/><mask id="path-3-inside-2_503_156" fill="#fff"><path d="M399.231.61C355.393 1.276 286.148 20.063 238 24.79c-15.328 1.48-27.157 4.312-36.591 7.978-27.615 10.747-34.508 28.971-45.92 43.863-6.706 8.768-11.371 11.454-17.515 12.87-.146.021-.291.022-.395.084C90.825 106.352-19.613 242.647 4.232 430.655c1.708 18.453 5.602 36.427 10.58 54.026C60.44 665.151 213.32 907.187 250.849 975.876c-27.656 63.644-86.676 194.344-105.503 317.414-.791 4.18-5.331 32.47-5.622 56.15-2.541 62.65 9.204 119.88 45.524 160.99.209.27 7.102 7.69 7.414 8 18.514 18.27 40.423 29.89 62.414 36.89h.021c31.155 13.37 54.896 5.89 77.742 2 10.267 6.2 20.971 10.99 31.863 14.72 65.559 22.66 138.886 4.48 173.269-14.72 46.087-14.98 67.1-42.08 80.262-83.98 13.266-39.49 33.571-120.13-12.37-239.43-20.701-51.55-62.186-132.19-126.203-249.391l-.396-.708c51.272-97.077 188.638-337.238 213.108-407.468 1.312-3.708 2.478-7.289 3.624-10.872 41.505-106.261 68.641-246.867-2.437-377.643-3.54-6.852-16.66-31.408-21.2-39.926-.833-1.541-1.396-2.561-1.541-2.79-57.354-105.345-59.291-85.372-95.132-91.704-1.291-.187-2.665-.583-3.998-.916-40.798-9.373-110.897-35.927-145.092-48.507C420.515 1.777 412.83.755 403.854.61h-4.623Zm44.775 925.28c-2.124-3.624-4.165-7.039-6.227-10.538-78.97-141.96-164.001-265.634-210.213-381.996-10.225-31.45-18.223-62.42-23.2-92.057-17.431-84.893-10.163-134.795 22.284-203.443 31.175-66.127 125.453-148.624 178.204-123.382 57.999 27.784 89.904 34.345 110.959 31.783 20.221-2.499 30.259-13.517 43.692-24.514 2.79-2.437 9.621-7.165 10.204-7.623 31.509 24.264 53.231 52.589 71.974 80.915 158.94 240.119-103.462 607.723-188.555 745.705-5.727-9.58-9.08-14.829-9.122-14.85Zm-195.385 552.74c-11.892-1.56-23.783-6.25-35.216-14.06-15.911-11.02-27.782-27.28-33.905-45.63-18.472-55.53-14.598-165.85 84.427-415.68 10.351 22.41 20.076 43.55 24.283 52.22 57.312 115.99 71.078 222.35 71.161 285.92-6.185 79.91-44.733 128.42-88.196 136.56a89.967 89.967 0 0 1-13.995 1.11c-2.895 0-5.748-.17-8.559-.44"/></mask><path d="m399.231.61-.03-2h.03v2ZM238 24.79l.195 1.991h-.003l-.192-1.99Zm-36.591 7.978-.725-1.864h.001l.724 1.864Zm-45.92 43.863-1.589-1.215.001-.002 1.588 1.217ZM137.974 89.5l.45 1.95-.083.019-.084.011-.283-1.98Zm-.395.084 1.029 1.715-.169.102-.185.066-.675-1.883ZM4.232 430.655l1.984-.252.005.034.003.034-1.992.184Zm10.58 54.026 1.924-.544.008.027.007.027-1.94.49Zm236.037 491.195 1.755-.959.469.859-.39.897-1.834-.797ZM145.346 1293.29l1.978.3-.006.03-.006.04-1.966-.37Zm-5.622 56.15 1.999.02v.03l-.001.03-1.998-.08Zm45.524 160.99 1.499-1.32.045.05.042.05-1.586 1.22Zm7.414 8-1.404 1.42-.01-.01 1.414-1.41Zm62.414 36.89v2h-.31l-.296-.1.606-1.9Zm.021 0v-2h.411l.378.16-.789 1.84Zm77.742 2-.336-1.98.734-.12.637.38-1.035 1.72Zm31.863 14.72.648-1.89h.006l-.654 1.89Zm173.269-14.72-.975-1.75.171-.1.186-.06.618 1.91Zm80.262-83.98-1.908-.6.006-.02.006-.02 1.896.64Zm-12.37-239.43 1.855-.75.006.01.005.02-1.866.72ZM479.66 984.519l1.745-.976.005.009.005.008-1.755.959Zm-.396-.708-1.746.976-.53-.949.507-.961 1.769.934Zm213.108-407.468-1.889-.658.004-.01 1.885.668Zm3.624-10.872-1.905-.609.019-.06.023-.058 1.863.727Zm-2.437-377.643-1.757.955-.01-.018-.01-.019 1.777-.918Zm-21.2-39.926 1.759-.951.006.01-1.765.941Zm-1.541-2.79-1.688 1.073-.036-.057-.033-.06 1.757-.956Zm-95.132-91.704.288-1.979.03.004.03.006-.348 1.97Zm-3.998-.916.448-1.95.018.005.019.004-.485 1.94ZM426.596 3.985l.682-1.88.008.003-.69 1.877ZM403.854.61v-2h.033l-.033 2Zm40.152 925.28-.894 1.789-.531-.266-.3-.512 1.725-1.011Zm-6.227-10.538-1.723 1.015-.012-.021-.012-.022 1.747-.972ZM227.566 533.356l-1.859.738-.023-.059-.02-.061 1.902-.618Zm-23.2-92.057 1.959-.403.008.036.006.035-1.973.332Zm22.284-203.443 1.809.853-.001.002-1.808-.855Zm178.204-123.382.863-1.804.001.001-.864 1.803Zm110.959 31.783.245 1.985h-.004l-.241-1.985Zm43.692-24.514 1.315 1.507-.024.021-.024.02-1.267-1.548Zm10.204-7.623-1.235-1.573 1.223-.961 1.233.949-1.221 1.585Zm71.974 80.915-1.668 1.103 1.668-1.103ZM453.128 940.74l1.702 1.05-1.729 2.804-1.69-2.828 1.717-1.026Zm-239.723 523.83-1.129 1.65h-.01l1.139-1.65Zm-33.905-45.63-1.897.63 1.897-.63Zm84.427-415.68-1.859-.73 1.719-4.339 1.956 4.239-1.816.83Zm24.283 52.22-1.793.88-.006-.01 1.799-.87Zm71.161 285.92 2-.01v.08l-.006.08-1.994-.15Zm-88.196 136.56.368 1.97h-.029l-.029.01-.31-1.98ZM399.262 2.61c-21.721.33-49.823 5.157-78.664 10.534-28.751 5.36-58.218 11.263-82.403 13.637l-.391-3.98c23.964-2.354 53.194-8.208 82.061-13.59 28.779-5.365 57.218-10.264 79.336-10.6l.061 3.999Zm-161.07 24.172c-15.184 1.465-26.828 4.263-36.059 7.85l-1.448-3.728c9.637-3.745 21.651-6.611 37.122-8.104l.385 3.982Zm-36.058 7.85c-26.931 10.48-33.35 27.938-45.058 43.215l-3.175-2.433c11.117-14.506 18.485-33.497 46.783-44.51l1.45 3.728Zm-45.057 43.214c-3.421 4.474-6.407 7.51-9.408 9.614-3.031 2.127-5.987 3.24-9.245 3.99l-.899-3.897c2.885-.665 5.334-1.604 7.847-3.367 2.544-1.784 5.244-4.476 8.528-8.77l3.177 2.43Zm-18.82 13.635c-.074.011-.146.019-.172.022-.039.004-.032.004-.016.001a1.648 1.648 0 0 0 .539-.204l-2.059-3.43a2.49 2.49 0 0 1 .903-.318c.084-.013.161-.022.194-.025l.045-.005.566 3.96Zm-.003-.013c-11.234 4.029-26.638 15.409-43.113 33.395-16.427 17.932-33.77 42.266-48.929 71.951-30.317 59.365-51.86 140.038-39.996 233.589l-3.968.504c-11.98-94.458 9.773-175.937 40.402-235.913 15.313-29.985 32.857-54.619 49.541-72.833 16.636-18.16 32.57-30.104 44.712-34.458l1.351 3.765ZM6.224 430.471c1.693 18.295 5.557 36.144 10.512 53.666l-3.849 1.088c-4.999-17.676-8.924-35.775-10.646-54.386l3.983-.368Zm10.527 53.72C39.503 574.18 89.033 679.63 137.635 771.259c24.291 45.797 48.332 88.107 68.649 123.268 20.302 35.133 36.923 63.191 46.32 80.39l-3.51 1.918c-9.367-17.144-25.929-45.1-46.273-80.307-20.328-35.179-44.396-77.537-68.72-123.394-48.627-91.679-98.352-197.482-121.228-287.963l3.878-.98Zm235.932 492.482c-27.684 63.717-86.58 194.157-105.359 316.917l-3.955-.61c18.874-123.37 78.017-254.32 105.646-317.901l3.668 1.594ZM147.312 1293.66c-.781 4.13-5.299 32.28-5.589 55.8l-3.999-.05c.293-23.84 4.856-52.25 5.657-56.5l3.931.75Zm-5.59 55.86c-2.531 62.4 9.191 119.02 45.025 159.59l-2.998 2.65c-36.805-41.67-48.574-99.51-46.024-162.4l3.997.16Zm45.112 159.69c-.041-.05.004.01.258.28.205.23.49.54.829.91.678.73 1.568 1.69 2.461 2.66.893.96 1.79 1.92 2.482 2.66.346.37.64.69.857.92.109.12.197.21.261.28.074.08.099.1.094.1l-2.828 2.82c-.191-.19-2.034-2.16-3.798-4.06-.895-.97-1.787-1.93-2.47-2.67-.341-.37-.631-.69-.844-.92-.165-.18-.381-.42-.473-.54l3.171-2.44Zm7.233 7.8c18.25 18 39.866 29.48 61.616 36.4l-1.213 3.81c-22.234-7.07-44.434-18.84-63.212-37.37l2.809-2.84Zm61.009 36.31h.021v4h-.021v-4Zm.81.16c30.491 13.08 53.544 5.8 76.617 1.86l.672 3.95c-22.618 3.85-47.047 11.52-78.867-2.14l1.578-3.67Zm77.988 2.12c10.129 6.13 20.701 10.86 31.476 14.55l-1.295 3.78c-11.009-3.77-21.846-8.61-32.251-14.9l2.07-3.43Zm31.482 14.55c64.904 22.43 137.636 4.41 171.64-14.58l1.95 3.49c-34.761 19.42-108.683 37.76-174.897 14.87l1.307-3.78Zm171.997-14.74c22.778-7.4 39.234-17.75 51.618-31.33 12.398-13.6 20.825-30.55 27.354-51.34l3.816 1.2c-6.633 21.12-15.293 38.66-28.214 52.83-12.935 14.19-30.029 24.87-53.338 32.45l-1.236-3.81Zm78.984-82.71c13.162-39.18 33.389-119.32-12.341-238.07l3.733-1.44c46.153 119.85 25.769 200.99 12.4 240.79l-3.792-1.28Zm-12.33-238.05c-20.65-51.42-62.076-131.96-126.103-249.172l3.511-1.918c64.009 117.18 105.552 197.93 126.303 249.6l-3.711 1.49ZM477.914 985.495l-.396-.708 3.492-1.952.395.708-3.491 1.952Zm-.419-2.618c25.638-48.541 72.833-132.916 116.615-213.819 43.845-81.021 84.205-158.448 96.373-193.373l3.778 1.316c-12.302 35.305-52.86 113.074-96.633 193.96-43.837 81.005-90.961 165.249-116.596 213.784l-3.537-1.868Zm212.992-407.202c1.301-3.677 2.46-7.236 3.604-10.813l3.81 1.218c-1.147 3.588-2.321 7.193-3.644 10.93l-3.77-1.335Zm3.646-10.931c41.422-106.05 68.329-245.954-2.331-375.961l3.514-1.91c71.496 131.544 44.131 272.853 2.543 379.326l-3.726-1.455Zm-2.351-375.998c-3.532-6.837-16.642-31.372-21.188-39.903l3.53-1.882c4.533 8.506 17.664 33.082 21.212 39.949l-3.554 1.836Zm-21.183-39.893a245.92 245.92 0 0 0-1.02-1.872 47.002 47.002 0 0 0-.449-.796l3.375-2.147c.195.307.804 1.416 1.613 2.913l-3.519 1.902Zm-1.538-2.785c-14.33-26.321-25.169-44.758-33.921-57.718-8.766-12.979-15.352-20.332-21.144-24.612-5.699-4.211-10.722-5.517-16.606-6.156-5.801-.63-13.05-.614-22.052-2.204l.696-3.94c8.919 1.576 15.352 1.47 21.787 2.168 6.352.689 12.118 2.16 18.552 6.915 6.342 4.687 13.233 12.489 22.082 25.59 8.861 13.122 19.772 31.693 34.119 58.044l-3.513 1.913Zm-93.662-90.68c-1.424-.207-2.967-.649-4.196-.956l.97-3.88c1.436.358 2.642.709 3.801.877l-.575 3.959Zm-4.159-.947c-40.956-9.409-111.219-36.029-145.335-48.579l1.381-3.754c34.276 12.61 104.211 39.099 144.85 48.434l-.896 3.899ZM425.913 5.865c-5.785-2.1-13.22-3.111-22.091-3.255l.065-4c9.081.148 17.015 1.18 23.391 3.495l-1.365 3.76ZM403.854 2.61h-4.623v-4h4.623v4Zm38.427 924.291c-2.126-3.627-4.151-7.015-6.225-10.534l3.446-2.031c2.05 3.479 4.107 6.922 6.23 10.543l-3.451 2.022Zm-6.249-10.577c-39.475-70.961-80.43-137.291-117.371-200.561-36.914-63.223-69.789-123.34-92.954-181.669l3.718-1.477c23.047 58.034 55.793 117.935 92.69 181.129 36.87 63.148 77.916 129.635 117.412 200.633l-3.495 1.945Zm-210.368-382.35c-10.249-31.522-18.273-62.589-23.27-92.344l3.945-.663c4.957 29.521 12.927 60.393 23.129 91.77l-3.804 1.237Zm-23.257-92.273c-8.742-42.574-11.316-76.499-7.59-108.447 3.728-31.954 13.744-61.808 30.024-96.252l3.617 1.709c-16.166 34.203-26.007 63.624-29.668 95.006-3.661 31.388-1.154 64.861 7.535 107.179l-3.918.805Zm22.434-204.698c15.747-33.401 47.339-70.8 81.614-96.697 17.147-12.955 35.057-23.103 52.089-28.411 17.024-5.305 33.37-5.83 47.173.775l-1.726 3.609c-12.572-6.016-27.793-5.696-44.257-.565-16.455 5.128-33.953 15.004-50.867 27.783-33.845 25.573-64.98 62.487-80.408 95.212l-3.618-1.706Zm180.877-124.332c57.947 27.758 89.404 34.089 109.853 31.601l.483 3.97c-21.66 2.636-54.012-4.155-112.064-31.964l1.728-3.607Zm109.849 31.601c19.508-2.411 29.027-12.906 42.671-24.076l2.534 3.095c-13.221 10.824-23.778 22.363-44.714 24.951l-.491-3.97Zm42.622-24.035c1.475-1.288 3.953-3.13 6.072-4.667a406.693 406.693 0 0 1 2.84-2.037l.951-.679.298-.215.091-.067.033-.025 2.471 3.145c-.328.258-2.288 1.632-4.336 3.117-2.14 1.551-4.472 3.291-5.789 4.441l-2.631-3.013Zm12.741-7.702c31.76 24.457 53.624 52.989 72.42 81.396l-3.335 2.207c-18.69-28.244-40.268-56.363-71.526-80.434l2.441-3.169Zm72.42 81.396c80.049 120.932 53.845 273.714-2.578 413.009C584.32 746.306 497.308 872.911 454.83 941.79l-3.405-2.1c42.616-69.102 129.352-195.291 185.639-334.252 56.317-139.032 81.843-290.113 2.951-409.3l3.335-2.207ZM451.411 941.766a783.09 783.09 0 0 0-6.675-10.981 339.27 339.27 0 0 0-1.78-2.841c-.203-.319-.356-.556-.457-.712l-.105-.16c-.011-.016-.01-.014-.002-.002l.047.062c.012.015.044.056.09.106.022.025.067.073.129.129.032.029.198.184.454.312l1.789-3.578c.256.128.422.283.455.313.062.056.107.105.13.131.048.052.082.095.096.112.031.04.055.074.065.088l.064.092.141.213c.112.173.273.424.48.749.414.652 1.02 1.616 1.802 2.876a784.456 784.456 0 0 1 6.71 11.039l-3.433 2.052ZM248.36 1480.61c-12.239-1.61-24.423-6.42-36.084-14.39l2.257-3.3c11.206 7.65 22.804 12.21 34.348 13.73l-.521 3.96Zm-36.094-14.39c-16.282-11.28-28.409-27.91-34.663-46.65l3.795-1.27c5.992 17.96 17.606 33.87 33.145 44.63l-2.277 3.29Zm-34.663-46.65c-9.376-28.18-12.992-70-1.923-135.94s36.847-156.12 86.388-281.1l3.719 1.47c-49.485 124.84-75.157 214.73-86.162 280.29-11.007 65.57-7.323 106.67 1.773 134.02l-3.795 1.26Zm88.14-417.14c10.358 22.42 20.07 43.53 24.266 52.17l-3.598 1.75c-4.218-8.69-13.957-29.85-24.299-52.25l3.631-1.67Zm24.26 52.16c57.468 116.3 71.284 222.98 71.368 286.8l-4 .01c-.083-63.31-13.798-169.36-70.954-285.04l3.586-1.77Zm71.362 286.96c-6.218 80.34-45.075 129.99-89.822 138.38l-.737-3.93c42.18-7.91 80.419-55.27 86.571-134.76l3.988.31Zm-89.88 138.39c-4.872.76-9.64 1.13-14.305 1.13v-4c4.457 0 9.018-.35 13.684-1.08l.621 3.95Zm-14.305 1.13c-2.971 0-5.89-.17-8.751-.45l.383-3.98c2.762.26 5.549.43 8.368.43v4Z" fill="#272727" mask="url('#path-3-inside-2_503_156')"/></g><defs><clipPath id="clip0_503_156"><path fill="#fff" d="M0 0h738v1583H0z"/></clipPath></defs></svg>