<svg width="580" height="1467" viewBox="0 0 580 1467" fill="none" xmlns="http://www.w3.org/2000/svg">
<path d="M284.638 1350.44L98.3278 1350.91C92.7658 1350.91 87.3025 1351.47 84.8964 1360.02L65.0154 1418.59C63.2771 1424.63 69.2377 1430.43 73.0609 1432.55C103.131 1453.16 222.121 1456.93 283.574 1457.61V1457.91C286.953 1457.91 292.12 1457.91 296.806 1457.91C301.492 1457.91 306.659 1457.91 310.038 1457.91V1457.61C371.491 1456.94 490.481 1453.16 520.551 1432.55C524.374 1430.41 530.335 1424.63 528.596 1418.59L508.715 1360.02C506.309 1351.45 500.846 1351.06 495.284 1350.91L308.974 1350.44H296.806H284.638Z" stroke="#A9A9A9" stroke-width="2"></path>
<path d="M286.457 1290.68L125.25 1291.09C120.437 1291.09 115.71 1291.53 113.628 1298.97L96.4257 1349.65C94.9217 1354.87 100.079 1359.89 103.387 1361.73C129.406 1379.56 232.363 1382.82 285.536 1383.42V1383.71C288.46 1383.71 292.931 1383.71 296.985 1383.71C301.04 1383.71 305.511 1383.71 308.434 1383.71V1383.42C361.608 1382.83 464.565 1379.56 490.584 1361.73C493.892 1359.91 499.049 1354.87 497.545 1349.65L480.343 1298.97C478.261 1291.56 473.534 1291.22 468.721 1291.09L307.514 1290.68H296.985H286.457Z" stroke="#A9A9A9" stroke-width="2"></path>
<path d="M286.965 1227.39L137.875 1227.74C133.425 1227.74 129.053 1228.15 127.127 1235.03L111.218 1281.9C109.827 1286.73 114.597 1291.37 117.656 1293.07C141.719 1309.56 236.937 1312.58 286.114 1313.13V1313.42C288.818 1313.42 292.953 1313.42 296.702 1313.42C300.452 1313.42 304.587 1313.42 307.291 1313.42V1313.13C356.467 1312.57 451.686 1309.56 475.749 1293.07C478.808 1291.36 483.578 1286.73 482.187 1281.9L466.278 1235.03C464.352 1228.17 459.98 1227.86 455.529 1227.74L306.44 1227.39H296.702H286.965Z" stroke="#A9A9A9" stroke-width="2"></path>
<path d="M296.959 1259.33C385.751 1259.33 457.732 1245.38 457.732 1228.17C457.732 1210.96 385.751 1197.01 296.959 1197.01C208.166 1197.01 136.186 1210.96 136.186 1228.17C136.186 1245.38 208.166 1259.33 296.959 1259.33Z" stroke="#A9A9A9" stroke-width="2" stroke-linecap="round" stroke-linejoin="round"></path>
<path d="M31 398.5L27.8864 391.417L19.1475 419.525L38.1451 467.014L54.4831 482.211L81.8397 521.722L90.1987 638.351C92.7039 668.481 99.0515 696.971 106.537 724.968V747.761C115.233 779.711 126.723 810.973 146.812 840.075V859.831C197.881 927.756 156.401 1021.47 176.828 1094.23L170.749 1094.59C159.551 1139.02 156.1 1185.67 135.983 1227.55L135.983 1227.57C137.45 1255.03 274.878 1260.76 298.033 1259.2C357.92 1259.82 461.058 1249.02 457.238 1227.19C455.354 1185.99 436.749 1145.82 424.558 1105.25V1061.94L410.5 1031.93L412.779 994.693L427.217 934.669L431.017 893.261L475.091 756.502L482.311 667.605L532.464 517.163V484.489L551.082 391.417L547.5 401.5" stroke="#A9A9A9" stroke-width="2"></path>
<path d="M265.5 569.742C121.851 557.33 9.12793 436.807 9.12793 289.96C9.12793 134.86 134.879 9.12744 290 9.12744C445.122 9.12744 570.873 134.86 570.873 289.96C570.873 319.052 566.449 347.111 558.236 373.5M319.5 569.265C324.202 568.774 328.87 568.167 333.5 567.448M425.5 536.013C443.851 525.889 460.948 513.771 476.5 499.953" stroke="#A9A9A9" stroke-width="2" stroke-linecap="round" stroke-linejoin="round"></path>
<path d="M489.667 486.793L494.462 479.121L462.819 491.583L454.19 489.673L466.655 476.251L458.025 458.995L426.383 482.004L365.016 480.095L336.251 494.476L320.909 546.244L359.118 562.062C426.985 541.901 457.516 514.189 489.667 486.805V486.793Z" stroke="#A9A9A9" stroke-width="2"></path>
<path d="M548.052 306.694L524.847 337.474V399.769L480.43 476.092L472.451 527.016L421.917 639.837L429.099 612.844L413.938 618.43L413.742 608.855L425.311 601.875L433.49 565.176L430.431 546.56L412.944 510.663L363.208 509.928L334.483 530.603L333.553 567.834L355.429 613.839C355.422 613.839 355.433 613.839 355.429 614.133L326.904 598.511L308.286 524.049L313.605 510.752L267.659 405.511L275.971 373.998L269.189 349.666L255.491 333.379L240.664 332.587L252.832 354.657L234.214 322.746L225.836 322.364L233.815 347.428L224.706 319.31L217.126 329.211L223.575 355.008L215.596 324.295L208.748 337.188L209.878 340.249L205.357 344.374L211.008 380.87L241.063 416.968L250.903 529.061L260.013 544.217L291.596 679.445L307.156 701.514L325.773 831.823L251.302 995.168L208.748 1016.05L173.042 1133.85L162.403 1135.7L143.785 1234.5L188.202 1163.82L279.03 1049.47L292.328 1039.97L342.463 927.145L321.584 1057.45L281.29 1071.15L221.647 1168.74L198.109 1176.39L176.433 1241.34L241.395 1186.23L362.277 1074.94L401.773 979.604L412.013 836.333L449.648 709.481L463.345 691.994L517.669 530.512L523.321 518.743L542.736 412.771L561.354 387.709L557.165 369.491L563.216 350.076L553.375 349.343L541.938 369.821L554.505 346.283L552.577 336.774L551.447 322.35L539.677 339.835L537.816 355.79L538.946 339.835L551.447 321.619L548.055 306.795L548.052 306.694Z" stroke="#A9A9A9" stroke-width="2"></path>
<path d="M428.547 612.97L435.196 610.503L422.183 639.375L428.547 612.97ZM390.042 664.082L360.215 622.102L368.194 588.101L358.125 585.986L344.827 569.462H357.746L372.184 527.296L382.063 533.563L406.76 522.355L413.409 535.273L379.213 535.86L360.025 571.377L348.437 571.024L358.695 582.99L371.424 586.597L370.474 606.541L417.398 600.656L425.757 568.175L418.918 602.746L374.083 620.41L390.042 664.082ZM413.789 612.416L414.548 654.581L400.68 665.032L407.899 648.127L413.789 612.416ZM392.701 580.882C399.804 575.53 407.365 571.553 417.968 576.705C410.089 583.801 401.592 584.412 392.701 580.882ZM408.089 558.277L408.47 562.266L400.68 563.616L408.089 558.277ZM403.34 543.081L405.24 555.622L407.33 548.215L419.488 550.506L403.34 543.081ZM371.614 558.659L394.601 541.182L398.591 557.901L391.941 549.542L371.614 558.659Z" stroke="#A9A9A9" stroke-width="2"></path>
<path d="M149.697 1236.04C156.009 1239.57 162.884 1241.84 170.409 1242.64L191.008 1175.62L149.697 1236.04Z" stroke="#A9A9A9" stroke-width="2"></path>
<path d="M415.229 856.788L425.851 901.523L422.31 935.639L410.4 981.98L410.722 931.132L415.229 856.788Z" stroke="#A9A9A9" stroke-width="2"></path>
<path d="M459.326 710.028L471.88 746.722L478.317 672.374L469.626 693.937L459.326 710.028Z" stroke="#A9A9A9" stroke-width="2"></path>
<path d="M216.248 1222.77C219.472 1221.15 288.117 1189.46 288.117 1189.46L273.609 1214.17L362.806 1181.4L227.935 1251.78C272.915 1257.96 289.916 1255.63 331.672 1252.58L404.181 1213.62L390.769 1247.05C413.573 1245.67 435.495 1242.19 452.272 1229.34C451.554 1189.84 427.603 1137.26 414.928 1104.29L415.331 1065.88L398.27 1037.54L388.963 1099.41L216.248 1222.77Z" stroke="#A9A9A9" stroke-width="2"></path>
<path d="M252.921 949.84L271.965 807.792L220.723 716.801L234.016 685.095L199.394 683.127L138.086 591.574L124.153 556.491L86.8848 523.27L149.216 544.759C190.406 579.339 248.122 703.85 288.135 707.389L303.034 828.681L252.921 949.84Z" stroke="#A9A9A9" stroke-width="2"></path>
<path d="M163.724 872.743L180.918 927.811L178.232 1006.79C174.567 1043.21 177.308 1069.52 180.918 1086.57L213.995 959.238L163.724 872.743Z" stroke="#A9A9A9" stroke-width="2"></path>
<path d="M114.826 724.997L234.92 931.572L251.04 973.475L226.591 936.678L161.305 856.622L114.02 749.174L114.826 724.997Z" stroke="#A9A9A9" stroke-width="2"></path>
<path d="M245.129 884.56L164.26 781.407L98.168 628.289L184.142 770.127L238.144 839.434L245.129 884.56Z" stroke="#A9A9A9" stroke-width="2"></path>
<path d="M471.19 75.4389L478.641 97.5467L505.489 123.435L506.927 155.554L496.859 135.42L479.599 114.809L478.161 134.459L503.571 168.017L479.12 171.853L463.778 183.834L445.081 158.429L454.669 179.999L453.71 194.38L437.889 223.141L414.877 232.728L410.083 240.401V269.641L388.029 279.228L368.852 288.335L359.263 257.656L342.004 243.755V226.977L334.813 223.141L313.238 244.236L287.829 250.466V273.477L262.899 306.074L241.804 287.378L249.954 253.345L245.639 224.581L227.421 238.483V211.637L205.847 210.696L202.011 200.153L161.739 189.126L174.684 208.781L202.011 218.847L210.162 228.431L171.328 241.378L169.89 252.88L146.398 261.511L122.906 228.431L111.4 183.85L107.085 218.369L122.426 252.402L143.521 271.577L164.616 272.075L157.904 285.978L143.042 304.672V319.053L125.783 339.187L126.741 350.689L120.988 366.03L124.344 375.138L137.768 379.932L137.289 400.063L128.659 410.611L127.7 436.496L136.33 467.653L128.18 472.447L101.332 467.175L36.1296 371.781L12.6376 297.481H9.98145C11.5617 199.611 48.5687 137.234 92.5685 91.6755C204.169 -23.8794 395.897 -1.95673 471.19 75.541L471.19 75.4389Z" stroke="#A9A9A9" stroke-width="2"></path>
<path d="M209.682 109.056L197.696 100.426L177.081 119.602L187.149 132.544L179.958 137.338L192.423 144.528L203.45 126.311L193.861 121.038L199.614 112.41L209.682 109.056Z" stroke="#A9A9A9" stroke-width="2"></path>
<path d="M84.314 101.351L82.3963 112.378L72.8078 125.8L65.6164 128.679L68.0135 148.331H74.7255L78.5609 135.388L87.67 127.718L86.7111 143.059L97.7379 140.651L101.094 120.519L113.08 122.428L102.053 143.521L126.983 148.311L107.806 165.091H75.6844L75.2049 159.337L63.6987 156.488L59.8633 130.603" stroke="#A9A9A9" stroke-width="2"></path>
<path d="M179.958 379.414L195.779 390.921L197.696 402.905L205.847 412.97L197.217 451.796H179.958L179.478 431.187L169.41 423.518L169.89 415.367L182.355 408.656L179.958 379.414Z" stroke="#A9A9A9" stroke-width="2"></path>
<path d="M482.955 192.942L483.435 219.788L472.408 227.458L463.778 213.078L464.258 200.612L474.805 191.503L482.955 192.942Z" stroke="#A9A9A9" stroke-width="2"></path>
<path d="M463.298 244.716L473.366 238.963L486.311 245.193L470.49 261.972L460.422 262.471L463.298 244.716Z" stroke="#A9A9A9" stroke-width="2"></path>
<path d="M439.327 250.946L434.533 263.888L422.547 267.724L417.753 249.987L423.985 244.238L432.136 245.179L439.327 250.946Z" stroke="#A9A9A9" stroke-width="2"></path>
<path d="M391.385 293.129L387.07 321.889L365.976 313.261L373.167 296.004L391.385 293.129Z" stroke="#A9A9A9" stroke-width="2"></path>
<path d="M408.645 334.832C410.562 334.332 449.875 308.95 449.875 308.95L472.888 317.577C472.888 317.577 455.149 334.357 457.067 334.357C458.984 334.357 497.818 335.325 497.818 335.325L438.848 365.044L408.645 334.832Z" stroke="#A9A9A9" stroke-width="2"></path>
<path d="M392.823 335.793L358.784 320.934L362.62 337.233L377.961 354.967L380.358 370.787L408.645 393.315L427.342 382.77L400.974 365.036L392.823 335.793Z" stroke="#A9A9A9" stroke-width="2"></path>
<path d="M445.081 384.688L435.972 392.361L421.109 394.27L433.095 404.817L459.464 403.377L468.573 411.05L501.174 392.355L495.9 385.161L456.587 391.873L445.081 384.688Z" stroke="#A9A9A9" stroke-width="2"></path>
<path d="M524.187 199.174L523.228 241.359L496.38 261.493L513.639 262.432L508.845 285.44L533.775 239.426L524.187 199.174Z" stroke="#A9A9A9" stroke-width="2"></path>
<path d="M539.527 176.166L525.145 192.463L532.815 194.372L533.774 203.003L549.116 191.497L539.527 185.746V176.166Z" stroke="#A9A9A9" stroke-width="2"></path>
<path d="M493.503 268.201L480.079 274.915L477.202 288.335L492.544 280.666L499.256 279.698L493.503 268.201Z" stroke="#A9A9A9" stroke-width="2"></path>
</svg>
