<svg width="580" height="1467" fill="none" xmlns="http://www.w3.org/2000/svg"><path d="m284.638 1350.44-186.31.47c-5.562 0-11.026.56-13.432 9.11l-19.88 58.57c-1.739 6.04 4.222 11.84 8.045 13.96 30.07 20.61 149.06 24.38 210.513 25.06v.3h26.464v-.3c61.453-.67 180.443-4.45 210.513-25.06 3.823-2.14 9.784-7.92 8.045-13.96l-19.881-58.57c-2.406-8.57-7.869-8.96-13.431-9.11l-186.31-.47h-24.336Z" stroke="#A9A9A9" stroke-width="2"/><path d="m286.457 1290.68-161.207.41c-4.813 0-9.54.44-11.622 7.88l-17.202 50.68c-1.504 5.22 3.653 10.24 6.961 12.08 26.019 17.83 128.976 21.09 182.149 21.69v.29h22.898v-.29c53.174-.59 156.131-3.86 182.15-21.69 3.308-1.82 8.465-6.86 6.961-12.08l-17.202-50.68c-2.082-7.41-6.809-7.75-11.622-7.88l-161.207-.41H286.457Z" stroke="#A9A9A9" stroke-width="2"/><path d="m286.965 1227.39-149.09.35c-4.45 0-8.822.41-10.748 7.29l-15.909 46.87c-1.391 4.83 3.379 9.47 6.438 11.17 24.063 16.49 119.281 19.51 168.458 20.06v.29h21.177v-.29c49.176-.56 144.395-3.57 168.458-20.06 3.059-1.71 7.829-6.34 6.438-11.17l-15.909-46.87c-1.926-6.86-6.298-7.17-10.749-7.29l-149.089-.35h-19.475Z" stroke="#A9A9A9" stroke-width="2"/><path d="M296.959 1259.33c88.792 0 160.773-13.95 160.773-31.16s-71.981-31.16-160.773-31.16c-88.793 0-160.773 13.95-160.773 31.16s71.98 31.16 160.773 31.16Z" stroke="#A9A9A9" stroke-width="2" stroke-linecap="round" stroke-linejoin="round"/><path d="m31 398.5-3.114-7.083-8.738 28.108 18.997 47.489 16.338 15.197 27.357 39.511 8.359 116.629c2.505 30.13 8.853 58.62 16.338 86.617v22.793c8.696 31.95 20.186 63.212 40.275 92.314v19.756c51.069 67.925 9.589 161.639 30.016 234.399l-6.079.36c-11.198 44.43-14.649 91.08-34.766 132.96v.02c1.467 27.46 138.895 33.19 162.05 31.63 59.887.62 163.025-10.18 159.205-32.01-1.884-41.2-20.489-81.37-32.68-121.94v-43.31l-14.058-30.01 2.279-37.237 14.438-60.024 3.8-41.408 44.074-136.759 7.22-88.897 50.153-150.442v-32.674l18.618-93.072L547.5 401.5" stroke="#A9A9A9" stroke-width="2"/><path d="M265.5 569.742C121.851 557.33 9.128 436.807 9.128 289.96 9.128 134.86 134.879 9.127 290 9.127c155.122 0 280.873 125.733 280.873 280.833 0 29.092-4.424 57.151-12.637 83.54M319.5 569.265c4.702-.491 9.37-1.098 14-1.817m92-31.435a281.61 281.61 0 0 0 51-36.06" stroke="#A9A9A9" stroke-width="2" stroke-linecap="round" stroke-linejoin="round"/><path d="m489.667 486.793 4.795-7.672-31.643 12.462-8.629-1.91 12.465-13.422-8.63-17.256-31.642 23.009-61.367-1.909-28.765 14.381-15.342 51.768 38.209 15.818c67.867-20.161 98.398-47.873 130.549-75.257v-.012Z" stroke="#A9A9A9" stroke-width="2"/><path d="m548.052 306.694-23.205 30.78v62.295l-44.417 76.323-7.979 50.924-50.534 112.821 7.182-26.993-15.161 5.586-.196-9.575 11.569-6.98 8.179-36.699-3.059-18.616-17.487-35.897-49.736-.735-28.725 20.675-.93 37.231 21.876 46.005c-.007 0 .004 0 0 .294l-28.525-15.622-18.618-74.462 5.319-13.297-45.946-105.241 8.312-31.513-6.782-24.332-13.698-16.287-14.827-.792 12.168 22.07-18.618-31.911-8.378-.382 7.979 25.064-9.109-28.118-7.58 9.901 6.449 25.797-7.979-30.713-6.848 12.893 1.13 3.061-4.521 4.125 5.651 36.496 30.055 36.098 9.84 112.093 9.11 15.156 31.583 135.228 15.56 22.069 18.617 130.309-74.471 163.345-42.554 20.882-35.706 117.8-10.639 1.85-18.618 98.8 44.417-70.68 90.828-114.35 13.298-9.5 50.135-112.825-20.879 130.305-40.294 13.7-59.643 97.59-23.538 7.65-21.676 64.95 64.962-55.11 120.882-111.29 39.496-95.336 10.24-143.271 37.635-126.852 13.697-17.487 54.324-161.482 5.652-11.769 19.415-105.972 18.618-25.062-4.189-18.218 6.051-19.415-9.841-.733-11.437 20.478 12.567-23.538-1.928-9.509-1.13-14.424-11.77 17.485-1.861 15.955 1.13-15.955 12.501-18.216-3.392-14.824-.003-.101Z" stroke="#A9A9A9" stroke-width="2"/><path d="m428.547 612.97 6.649-2.467-13.013 28.872 6.364-26.405Zm-38.505 51.112-29.827-41.98 7.979-34.001-10.069-2.115-13.298-16.524h12.919l14.438-42.166 9.879 6.267 24.697-11.208 6.649 12.918-34.196.587-19.188 35.517-11.588-.353 10.258 11.966 12.729 3.607-.95 19.944 46.924-5.885 8.359-32.481-6.839 34.571-44.835 17.664 15.959 43.672Zm23.747-51.666.759 42.165-13.868 10.451 7.219-16.905 5.89-35.711Zm-21.088-31.534c7.103-5.352 14.664-9.329 25.267-4.177-7.879 7.096-16.376 7.707-25.267 4.177Zm15.388-22.605.381 3.989-7.79 1.35 7.409-5.339Zm-4.749-15.196 1.9 12.541 2.09-7.407 12.158 2.291-16.148-7.425Zm-31.726 15.578 22.987-17.477 3.99 16.719-6.65-8.359-20.327 9.117ZM149.697 1236.04c6.312 3.53 13.187 5.8 20.712 6.6l20.599-67.02-41.311 60.42ZM415.229 856.788l10.622 44.735-3.541 34.116-11.91 46.341.322-50.848 4.507-74.344ZM459.326 710.028l12.554 36.694 6.437-74.348-8.691 21.563-10.3 16.091ZM216.248 1222.77c3.224-1.62 71.869-33.31 71.869-33.31l-14.508 24.71 89.197-32.77-134.871 70.38c44.98 6.18 61.981 3.85 103.737.8l72.509-38.96-13.412 33.43c22.804-1.38 44.726-4.86 61.503-17.71-.718-39.5-24.669-92.08-37.344-125.05l.403-38.41-17.061-28.34-9.307 61.87-172.715 123.36ZM252.921 949.84l19.044-142.048-51.242-90.991 13.293-31.706-34.622-1.968-61.308-91.553-13.933-35.083-37.268-33.221 62.331 21.489c41.19 34.58 98.906 159.091 138.919 162.63l14.899 121.292-50.113 121.159ZM163.724 872.743l17.194 55.068-2.686 78.979c-3.665 36.42-.924 62.73 2.686 79.78l33.077-127.332-50.271-86.495ZM114.826 724.997 234.92 931.572l16.12 41.903-24.449-36.797-65.286-80.056-47.285-107.448.806-24.177Z" stroke="#A9A9A9" stroke-width="2"/><path d="M245.129 884.56 164.26 781.407 98.168 628.289l85.974 141.838 54.002 69.307 6.985 45.126ZM471.19 75.439l7.451 22.108 26.848 25.888 1.438 32.119-10.068-20.134-17.26-20.611-1.438 19.65 25.41 33.558-24.451 3.836-15.342 11.981-18.697-25.405 9.588 21.57-.959 14.381-15.821 28.761-23.012 9.587-4.794 7.673v29.24l-22.054 9.587-19.177 9.107-9.589-30.679-17.259-13.901v-16.778l-7.191-3.836-21.575 21.095-25.409 6.23v23.011l-24.93 32.597-21.095-18.696 8.15-34.033-4.315-28.764-18.218 13.902v-26.846l-21.574-.941-3.836-10.543-40.272-11.027 12.945 19.655 27.327 10.066 8.151 9.584-38.834 12.947-1.438 11.502-23.492 8.631-23.492-33.08L111.4 183.85l-4.315 34.519 15.341 34.033 21.095 19.175 21.095.498-6.712 13.903-14.862 18.694v14.381l-17.259 20.134.958 11.502-5.753 15.341 3.356 9.108 13.424 4.794-.479 20.131-8.63 10.548-.959 25.885 8.63 31.157-8.15 4.794-26.848-5.272-65.202-95.394-23.492-74.3H9.98c1.58-97.87 38.588-160.247 82.588-205.805C204.168-23.88 395.896-1.957 471.19 75.54v-.102Z" stroke="#A9A9A9" stroke-width="2"/><path d="m209.682 109.056-11.986-8.63-20.615 19.176 10.068 12.942-7.191 4.794 12.465 7.19 11.027-18.217-9.589-5.273 5.753-8.628 10.068-3.354ZM84.314 101.351l-1.918 11.027-9.588 13.422-7.192 2.879 2.397 19.652h6.712l3.836-12.943 9.109-7.67-.959 15.341 11.027-2.408 3.356-20.132 11.986 1.909-11.027 21.093 24.93 4.79-19.177 16.78H75.684l-.48-5.754-11.505-2.849-3.836-25.885M179.958 379.414l15.821 11.507 1.917 11.984 8.151 10.065-8.63 38.826h-17.259l-.48-20.609-10.068-7.669.48-8.151 12.465-6.711-2.397-29.242ZM482.955 192.942l.48 26.846-11.027 7.67-8.63-14.38.48-12.466 10.547-9.109 8.15 1.439ZM463.298 244.716l10.068-5.753 12.945 6.23-15.821 16.779-10.068.499 2.876-17.755ZM439.327 250.946l-4.794 12.942-11.986 3.836-4.794-17.737 6.232-5.749 8.151.941 7.191 5.767ZM391.385 293.129l-4.315 28.76-21.094-8.628 7.191-17.257 18.218-2.875ZM408.645 334.832c1.917-.5 41.23-25.882 41.23-25.882l23.013 8.627s-17.739 16.78-15.821 16.78c1.917 0 40.751.968 40.751.968l-58.97 29.719-30.203-30.212ZM392.823 335.793l-34.039-14.859 3.836 16.299 15.341 17.734 2.397 15.82 28.287 22.528 18.697-10.545-26.368-17.734-8.151-29.243ZM445.081 384.688l-9.109 7.673-14.863 1.909 11.986 10.547 26.369-1.44 9.109 7.673 32.601-18.695-5.274-7.194-39.313 6.712-11.506-7.185ZM524.187 199.174l-.959 42.185-26.848 20.134 17.259.939-4.794 23.008 24.93-46.014-9.588-40.252ZM539.527 176.166l-14.382 16.297 7.67 1.909.959 8.631 15.342-11.506-9.589-5.751v-9.58ZM493.503 268.201l-13.424 6.714-2.877 13.42 15.342-7.669 6.712-.968-5.753-11.497Z" stroke="#A9A9A9" stroke-width="2"/></svg>