<svg width="450" height="450" viewBox="0 0 450 450" fill="none" xmlns="http://www.w3.org/2000/svg">
<path d="M396.429 0H53.5714C24 0 0 24 0 53.5714V396.429C0 426 24 450 53.5714 450H396.429C426 450 450 426 450 396.429V53.5714C450 24 426 0 396.429 0ZM139.286 171.429V375H75V171.429H139.286ZM75 112.179C75 97.1786 87.8571 85.7143 107.143 85.7143C126.429 85.7143 138.536 97.1786 139.286 112.179C139.286 127.179 127.286 139.286 107.143 139.286C87.8571 139.286 75 127.179 75 112.179ZM375 375H310.714C310.714 375 310.714 275.786 310.714 267.857C310.714 246.429 300 225 273.214 224.571H272.357C246.429 224.571 235.714 246.643 235.714 267.857C235.714 277.607 235.714 375 235.714 375H171.429V171.429H235.714V198.857C235.714 198.857 256.393 171.429 297.964 171.429C340.5 171.429 375 200.679 375 259.929V375Z" fill="#EEEEEE"/>
</svg>
