<svg width="85" height="85" viewBox="0 0 85 85" fill="none" xmlns="http://www.w3.org/2000/svg">
<mask id="path-1-inside-1_507_164" fill="white">
<path d="M50.2233 48.2009C49.4365 49.0119 48.5144 50.6136 47.7225 51.5765C47.4699 51.8826 47.3055 52.1494 47.1999 52.3876C46.8911 53.0852 47.0951 53.5405 47.1564 54.0178C47.1928 54.2986 47.1564 54.4322 47.0701 54.5698C47.0678 54.5728 47.0651 54.5755 47.0644 54.5785C46.5156 55.7338 46.9682 60.2115 50.8033 63.1775C51.1681 63.4801 51.5642 63.7343 51.9732 63.9619C56.0689 66.3945 63.2327 67.9862 65.1589 68.5447C65.8062 70.1999 67.0944 73.6393 68.9773 76.2083C69.0386 76.2985 69.4674 76.8928 69.8904 77.3264C70.9773 78.5058 72.2265 79.327 73.632 79.4087C73.6407 79.4098 73.9004 79.4183 73.9118 79.4183C74.5795 79.4112 75.189 79.2222 75.7163 78.948L75.7167 78.9476C76.5263 78.6217 76.8237 78.0538 77.1696 77.567C77.469 77.4922 77.7507 77.3838 78.0166 77.2527C79.6212 76.4678 80.6286 74.8027 80.9079 73.8288C81.4769 72.7181 81.3697 71.8451 80.8516 70.8473C80.3792 69.8913 79.2906 68.0626 76.2956 66.7421C74.986 66.187 72.7714 65.4843 69.485 64.5313L69.465 64.5257C68.6435 61.8355 66.803 54.9884 65.9787 53.2722C65.9356 53.1812 65.892 53.0952 65.8481 53.0095C64.6825 50.3312 62.6339 47.2935 58.9732 46.2235C58.7848 46.164 58.1016 45.959 57.8648 45.8877C57.8217 45.875 57.793 45.8668 57.7862 45.8653C54.8356 45.0051 55.1616 45.4016 54.3939 45.9403C54.367 45.9604 54.3348 45.9783 54.3045 45.9966C53.3915 46.5705 51.6337 47.3677 50.783 47.7633C50.6323 47.8342 50.4738 47.9558 50.3076 48.1167L50.2233 48.2009ZM67.7749 64.1206C67.6706 64.0937 67.5716 64.0691 67.4708 64.0434C63.464 62.9149 59.6776 62.2276 56.7307 60.9651C55.9756 60.5826 55.2697 60.1682 54.6429 59.7228C52.7898 58.505 52.0197 57.47 51.3693 55.6371C50.7414 53.8729 50.9674 50.6627 52.3853 50.1579C53.9447 49.6035 54.6448 49.1408 54.9822 48.7107C55.3055 48.297 55.2891 47.9148 55.335 47.4711C55.3418 47.3762 55.3808 47.1662 55.3831 47.1473C56.3962 47.0119 57.3043 47.1284 58.1582 47.2992C65.3977 48.7457 67.2647 60.1765 68.2097 64.2229C67.932 64.154 67.776 64.1202 67.7749 64.1206ZM74.2116 77.6786C73.9667 77.8671 73.6652 77.999 73.3156 78.0661C72.8264 78.1568 72.3158 78.0789 71.8724 77.8586C70.5314 77.1909 68.6066 75.1249 65.8926 68.8017C66.4866 69.0184 67.0462 69.2235 67.2795 69.3036C70.4219 70.357 72.5966 72.03 73.7478 73.1782C75.0805 74.7364 75.2554 76.3162 74.6106 77.2555C74.5373 77.356 74.4586 77.4474 74.3755 77.5305C74.3228 77.5833 74.2678 77.6323 74.2116 77.6786"/>
</mask>
<path d="M50.2233 48.2009L48.7879 46.8082L48.7984 46.7974L48.8091 46.7867L50.2233 48.2009ZM47.7225 51.5765L49.2672 52.8469L49.265 52.8495L47.7225 51.5765ZM47.1999 52.3876L45.3711 51.578L45.3716 51.577L47.1999 52.3876ZM47.1564 54.0178L45.173 54.2748L45.1728 54.2728L47.1564 54.0178ZM47.0701 54.5698L48.7641 55.6329L48.7194 55.7042L48.6688 55.7714L47.0701 54.5698ZM47.0644 54.5785L49.0031 55.0699L48.9549 55.2597L48.8709 55.4366L47.0644 54.5785ZM50.8033 63.1775L52.0268 61.5954L52.0538 61.6163L52.0801 61.6381L50.8033 63.1775ZM51.9732 63.9619L52.9457 62.2142L52.9703 62.2279L52.9946 62.2423L51.9732 63.9619ZM65.1589 68.5447L65.7159 66.6238L66.6626 66.8983L67.0216 67.8164L65.1589 68.5447ZM68.9773 76.2083L70.5904 75.026L70.6113 75.0545L70.6311 75.0837L68.9773 76.2083ZM69.8904 77.3264L71.3221 75.9298L71.3419 75.9502L71.3612 75.9711L69.8904 77.3264ZM73.632 79.4087L73.7481 77.4121L73.816 77.416L73.8835 77.4246L73.632 79.4087ZM73.9118 79.4183L73.9328 81.4182L73.9192 81.4182L73.9118 79.4183ZM75.7163 78.948L77.1305 80.3622L76.9125 80.5802L76.639 80.7225L75.7163 78.948ZM75.7167 78.9476L74.3025 77.5334L74.5911 77.2447L74.9698 77.0923L75.7167 78.9476ZM77.1696 77.567L75.5393 76.4086L75.9674 75.806L76.6845 75.6268L77.1696 77.567ZM78.0166 77.2527L77.1324 75.4587L77.1378 75.4561L78.0166 77.2527ZM80.9079 73.8288L78.9853 73.2775L79.039 73.0903L79.1278 72.9169L80.9079 73.8288ZM80.8516 70.8473L79.0766 71.7689L79.0675 71.7512L79.0587 71.7334L80.8516 70.8473ZM76.2956 66.7421L77.0761 64.9007L77.0893 64.9063L77.1025 64.9121L76.2956 66.7421ZM69.485 64.5313L70.0233 62.605L70.0327 62.6077L70.0421 62.6104L69.485 64.5313ZM69.465 64.5257L68.9267 66.4519L67.872 66.1571L67.5522 65.1097L69.465 64.5257ZM65.9787 53.2722L64.1759 54.1381L64.1717 54.1292L65.9787 53.2722ZM65.8481 53.0095L64.0684 53.9219L64.0395 53.8656L64.0142 53.8076L65.8481 53.0095ZM58.9732 46.2235L58.4121 48.1431L58.3919 48.1372L58.3718 48.1309L58.9732 46.2235ZM57.8648 45.8877L58.4304 43.9693L58.4416 43.9727L57.8648 45.8877ZM57.7862 45.8653L57.3589 47.8191L57.2921 47.8045L57.2264 47.7853L57.7862 45.8653ZM54.3939 45.9403L53.1959 44.3388L53.2203 44.3206L53.2452 44.3031L54.3939 45.9403ZM54.3045 45.9966L53.24 44.3033L53.2562 44.2932L53.2725 44.2834L54.3045 45.9966ZM50.783 47.7633L49.932 45.9534L49.9396 45.9498L50.783 47.7633ZM50.3076 48.1167L48.8934 46.7025L48.9048 46.6911L48.9163 46.6799L50.3076 48.1167ZM67.7749 64.1206L68.4129 66.016L67.8508 66.2053L67.2763 66.0574L67.7749 64.1206ZM67.4708 64.0434L66.9767 65.9814L66.9525 65.9753L66.9286 65.9685L67.4708 64.0434ZM56.7307 60.9651L55.9431 62.8035L55.8842 62.7782L55.8271 62.7493L56.7307 60.9651ZM54.6429 59.7228L55.7413 58.0514L55.7717 58.0714L55.8014 58.0925L54.6429 59.7228ZM51.3693 55.6371L53.2536 54.9665L53.2542 54.9683L51.3693 55.6371ZM52.3853 50.1579L51.7145 48.2738L51.7153 48.2735L52.3853 50.1579ZM54.9822 48.7107L56.5581 49.9422L56.5557 49.9452L54.9822 48.7107ZM55.335 47.4711L57.3299 47.6136L57.3277 47.6453L57.3244 47.6769L55.335 47.4711ZM55.3831 47.1473L53.3982 46.9018L53.5877 45.3694L55.1183 45.1649L55.3831 47.1473ZM58.1582 47.2992L57.7663 49.2604L57.766 49.2603L58.1582 47.2992ZM68.2097 64.2229L70.1573 63.7681L70.9007 66.9516L67.7279 66.164L68.2097 64.2229ZM73.3156 78.0661L73.6925 80.0303L73.6801 80.0326L73.3156 78.0661ZM71.8724 77.8586L70.9826 79.6497L70.9809 79.6489L71.8724 77.8586ZM65.8926 68.8017L64.0548 69.5906L62.2286 65.3359L66.5782 66.9229L65.8926 68.8017ZM67.2795 69.3036L66.6438 71.1999L66.6307 71.1954L67.2795 69.3036ZM73.7478 73.1782L75.1601 71.7621L75.2162 71.8181L75.2677 71.8782L73.7478 73.1782ZM74.6106 77.2555L76.2595 78.3874L76.2431 78.4113L76.2259 78.4348L74.6106 77.2555ZM51.6587 49.5937C51.4027 49.8575 51.0685 50.3168 50.6227 50.965C50.2278 51.5392 49.7333 52.2801 49.2672 52.8469L46.1777 50.3062C46.5035 49.91 46.866 49.3686 47.3269 48.6984C47.7368 48.1023 48.2571 47.3553 48.7879 46.8082L51.6587 49.5937ZM49.265 52.8495C49.1036 53.0451 49.0459 53.1585 49.0283 53.1983L45.3716 51.577C45.5652 51.1403 45.8361 50.7201 46.1799 50.3036L49.265 52.8495ZM49.0287 53.1973C49.0188 53.2197 49.0249 53.2118 49.0298 53.1807C49.0347 53.1497 49.0332 53.1285 49.0334 53.1318C49.0345 53.1456 49.0382 53.1783 49.0588 53.2866C49.0663 53.326 49.0832 53.4127 49.0956 53.4805C49.1097 53.558 49.1263 53.655 49.1401 53.7628L45.1728 54.2728C45.1673 54.2303 45.16 54.196 45.129 54.0331C45.1037 53.8999 45.0642 53.6857 45.0452 53.4388C45.0028 52.8871 45.0679 52.2629 45.3711 51.578L49.0287 53.1973ZM49.1398 53.7608C49.1726 54.0136 49.1925 54.3397 49.1279 54.7001C49.057 55.0962 48.9081 55.4034 48.7641 55.6329L45.376 53.5066C45.3536 53.5424 45.3147 53.6092 45.2768 53.701C45.2376 53.7958 45.2084 53.8953 45.1906 53.9949C45.1567 54.1839 45.1766 54.3028 45.173 54.2748L49.1398 53.7608ZM48.6688 55.7714C48.6453 55.8027 48.6228 55.8305 48.6284 55.8234C48.6286 55.8231 48.6303 55.821 48.6325 55.8183C48.6348 55.8155 48.6383 55.8111 48.6425 55.8056C48.6507 55.7951 48.6643 55.7775 48.6806 55.7553C48.7277 55.6909 48.9083 55.4437 49.0031 55.0699L45.1257 54.0871C45.2212 53.7103 45.4035 53.4602 45.4527 53.393C45.4695 53.37 45.4836 53.3518 45.4924 53.3405C45.5008 53.3298 45.5077 53.3212 45.5082 53.3206C45.515 53.3121 45.4937 53.3384 45.4713 53.3681L48.6688 55.7714ZM48.8709 55.4366C48.9398 55.2915 48.8557 55.4028 48.8761 55.9123C48.8937 56.3502 48.9842 56.9327 49.1944 57.5885C49.6131 58.8948 50.4736 60.3942 52.0268 61.5954L49.5797 64.7596C47.2978 62.9948 46.0145 60.7723 45.3853 58.8094C45.0716 57.8307 44.9122 56.8917 44.8793 56.0724C44.8494 55.3248 44.9145 54.4431 45.2578 53.7204L48.8709 55.4366ZM52.0801 61.6381C52.3225 61.8392 52.6076 62.0261 52.9457 62.2142L51.0007 65.7095C50.5208 65.4424 50.0138 65.1211 49.5264 64.7169L52.0801 61.6381ZM52.9946 62.2423C54.8234 63.3285 57.4434 64.2785 59.9603 65.0422C61.1988 65.418 62.3765 65.7383 63.3726 66.0014C64.3379 66.2563 65.2039 66.4754 65.7159 66.6238L64.602 70.4656C64.1508 70.3348 63.3991 70.1455 62.3514 69.8688C61.3345 69.6003 60.1041 69.266 58.7989 68.8699C56.2285 68.09 53.2188 67.0278 50.9519 65.6814L52.9946 62.2423ZM67.0216 67.8164C67.6948 69.5381 68.8926 72.7094 70.5904 75.026L67.3642 77.3906C65.2963 74.5692 63.9175 70.8617 63.2963 69.273L67.0216 67.8164ZM70.6311 75.0837C70.6302 75.0823 70.7246 75.2163 70.8724 75.4049C71.0198 75.5929 71.1825 75.7867 71.3221 75.9298L68.4588 78.723C67.9202 78.1708 67.4165 77.4698 67.3235 77.333L70.6311 75.0837ZM71.3612 75.9711C72.2789 76.967 73.0777 77.3731 73.7481 77.4121L73.5159 81.4053C71.3752 81.2808 69.6756 80.0446 68.4197 78.6817L71.3612 75.9711ZM73.8835 77.4246C73.8697 77.4228 73.8578 77.4215 73.8487 77.4205C73.8394 77.4195 73.8313 77.4186 73.8247 77.418C73.8119 77.4168 73.8012 77.4159 73.794 77.4153C73.7865 77.4147 73.7801 77.4142 73.7753 77.4139C73.7704 77.4135 73.7662 77.4132 73.7629 77.413C73.7564 77.4126 73.7511 77.4123 73.7477 77.4121C73.7442 77.4119 73.7413 77.4117 73.7394 77.4116C73.7355 77.4114 73.7329 77.4113 73.732 77.4113C73.7309 77.4112 73.7305 77.4112 73.7309 77.4112C73.7317 77.4113 73.7339 77.4114 73.7378 77.4115C73.7415 77.4116 73.7461 77.4118 73.7516 77.412C73.7741 77.4129 73.8051 77.4139 73.8378 77.415C73.8702 77.4161 73.9023 77.4172 73.9264 77.4179C73.9387 77.4183 73.9476 77.4185 73.953 77.4187C73.956 77.4188 73.9561 77.4188 73.9545 77.4187C73.9538 77.4187 73.9506 77.4186 73.9461 77.4186C73.9438 77.4185 73.9396 77.4185 73.9343 77.4184C73.9316 77.4184 73.9278 77.4183 73.9233 77.4183C73.9191 77.4183 73.9125 77.4182 73.9043 77.4183L73.9192 81.4182C73.8644 81.4184 73.7347 81.4138 73.704 81.4128C73.6692 81.4116 73.633 81.4104 73.6039 81.4093C73.5899 81.4088 73.5747 81.4082 73.5612 81.4076C73.555 81.4074 73.5448 81.4069 73.5335 81.4063C73.5283 81.4061 73.5175 81.4055 73.5042 81.4046C73.4976 81.4042 73.4858 81.4034 73.4712 81.4022C73.4625 81.4015 73.4263 81.3986 73.3804 81.3928L73.8835 77.4246ZM73.8907 77.4184C74.1878 77.4152 74.49 77.3314 74.7937 77.1735L76.639 80.7225C75.8879 81.113 74.9712 81.4072 73.9328 81.4181L73.8907 77.4184ZM74.3021 77.5338L74.3025 77.5334L77.1309 80.3618L77.1305 80.3622L74.3021 77.5338ZM74.9698 77.0923C75.0509 77.0597 75.0833 77.0322 75.1292 76.9811C75.1634 76.9431 75.2068 76.8881 75.2746 76.7917C75.3093 76.7423 75.3437 76.6918 75.389 76.6255C75.4311 76.5638 75.4836 76.487 75.5393 76.4086L78.7999 78.7255C78.5864 79.026 77.9387 80.2091 76.4636 80.8029L74.9698 77.0923ZM76.6845 75.6268C76.8285 75.5908 76.9767 75.5355 77.1324 75.4587L78.9007 79.0467C78.5246 79.232 78.1094 79.3936 77.6547 79.5073L76.6845 75.6268ZM77.1378 75.4561C77.5952 75.2324 78.0212 74.8527 78.3716 74.3953C78.729 73.9288 78.9242 73.4908 78.9853 73.2775L82.8304 74.3801C82.4321 75.7691 81.1176 77.9623 78.8954 79.0493L77.1378 75.4561ZM79.1278 72.9169C79.2859 72.6084 79.2923 72.4542 79.2892 72.3804C79.2853 72.2877 79.2545 72.1115 79.0766 71.7689L82.6266 69.9256C82.9668 70.5809 83.2487 71.3401 83.2856 72.211C83.3233 73.1008 83.0988 73.9385 82.6879 74.7407L79.1278 72.9169ZM79.0587 71.7334C78.7314 71.0712 77.9408 69.6532 75.4887 68.5721L77.1025 64.9121C80.6404 66.472 82.0269 68.7114 82.6446 69.9611L79.0587 71.7334ZM75.515 68.5835C74.3326 68.0823 72.2322 67.4104 68.9279 66.4521L70.0421 62.6104C73.3106 63.5583 75.6393 64.2916 77.0761 64.9007L75.515 68.5835ZM68.9468 66.4575L68.9267 66.4519L70.0032 62.5994L70.0233 62.605L68.9468 66.4575ZM67.5522 65.1097C67.1406 63.7618 66.4538 61.3054 65.8043 59.0983C65.1167 56.762 64.5004 54.8138 64.1759 54.1381L67.7815 52.4062C68.2813 53.4467 68.9974 55.7801 69.6416 57.969C70.3237 60.2871 70.968 62.5994 71.3778 63.9416L67.5522 65.1097ZM64.1717 54.1292C64.142 54.0667 64.1097 54.0025 64.0684 53.9219L67.6278 52.0971C67.6744 52.1878 67.7291 52.2957 67.7857 52.4151L64.1717 54.1292ZM64.0142 53.8076C62.9398 51.3388 61.2271 48.966 58.4121 48.1431L59.5344 44.3038C64.0406 45.621 66.4252 49.3235 67.682 52.2114L64.0142 53.8076ZM58.3718 48.1309C58.1996 48.0766 57.5383 47.8781 57.2879 47.8026L58.4416 43.9727C58.6648 44.0399 59.37 44.2515 59.5747 44.316L58.3718 48.1309ZM57.2991 47.806C57.2802 47.8004 57.2686 47.7971 57.2634 47.7956C57.2604 47.7947 57.2632 47.7956 57.2697 47.7973C57.2729 47.7982 57.2805 47.8002 57.2909 47.8029C57.2962 47.8043 57.3042 47.8063 57.314 47.8087C57.3231 47.8109 57.3389 47.8147 57.3589 47.8191L58.2135 43.9114C58.2713 43.9241 58.3203 43.9377 58.3209 43.9379C58.336 43.942 58.35 43.946 58.3604 43.949C58.382 43.9551 58.4063 43.9622 58.4304 43.9693L57.2991 47.806ZM57.2264 47.7853C56.5058 47.5752 56.0463 47.4603 55.7457 47.4031C55.4228 47.3417 55.4292 47.3775 55.5755 47.355C55.6716 47.3402 55.7878 47.3072 55.9065 47.2491C56.0168 47.195 56.0833 47.1413 56.0875 47.1379C56.0879 47.1376 56.0807 47.1434 56.0543 47.1664C56.039 47.1798 55.9847 47.2277 55.9461 47.2609C55.8496 47.3443 55.7147 47.4568 55.5427 47.5775L53.2452 44.3031C53.4031 44.1923 53.2079 44.3212 53.5783 44.0228C53.8833 43.7771 54.3261 43.5001 54.9675 43.4014C55.4971 43.32 56.0231 43.3842 56.493 43.4736C56.9851 43.5671 57.5913 43.7252 58.346 43.9452L57.2264 47.7853ZM55.592 47.5417C55.5048 47.6069 55.4287 47.6542 55.3917 47.6767C55.3719 47.6888 55.3542 47.6992 55.3462 47.704C55.3349 47.7107 55.3357 47.7102 55.3365 47.7097L53.2725 44.2834C53.2884 44.2738 53.3047 44.2642 53.3087 44.2618C53.3161 44.2574 53.3139 44.2587 53.3093 44.2615C53.3041 44.2647 53.2907 44.2729 53.2727 44.2848C53.2547 44.2966 53.2279 44.3148 53.1959 44.3388L55.592 47.5417ZM55.3689 47.6898C54.3187 48.35 52.4006 49.2168 51.6264 49.5768L49.9396 45.9498C50.8669 45.5186 52.4643 44.791 53.24 44.3033L55.3689 47.6898ZM51.6341 49.5732C51.673 49.5549 51.7016 49.5385 51.7196 49.5273C51.7377 49.5162 51.7479 49.5086 51.7502 49.5069C51.7526 49.5051 51.7491 49.5076 51.7397 49.5157C51.7304 49.5238 51.7168 49.5361 51.6988 49.5535L48.9163 46.6799C49.1573 46.4465 49.4985 46.1572 49.932 45.9534L51.6341 49.5732ZM51.7218 49.5309L51.6375 49.6152L48.8091 46.7867L48.8934 46.7025L51.7218 49.5309ZM67.2763 66.0574C67.1683 66.0296 67.0999 66.0128 66.9767 65.9814L67.9649 62.1054C68.0434 62.1254 68.1729 62.1578 68.2734 62.1837L67.2763 66.0574ZM66.9286 65.9685C64.946 65.4102 63.0862 64.9791 61.2014 64.4905C59.3695 64.0156 57.5633 63.4976 55.9431 62.8035L57.5184 59.1267C58.845 59.6951 60.4055 60.152 62.2051 60.6185C63.952 61.0713 65.9887 61.5482 68.013 62.1183L66.9286 65.9685ZM55.8271 62.7493C55.0035 62.3322 54.2088 61.8679 53.4845 61.3532L55.8014 58.0925C56.3306 58.4685 56.9477 58.8331 57.6344 59.1809L55.8271 62.7493ZM53.5445 61.3942C52.5082 60.7132 51.6671 60.0133 50.9855 59.1501C50.3002 58.2824 49.8544 57.3484 49.4845 56.3059L53.2542 54.9683C53.5346 55.7586 53.799 56.2587 54.1247 56.6712C54.454 57.0882 54.9245 57.5147 55.7413 58.0514L53.5445 61.3942ZM49.4851 56.3077C49.0453 55.0719 48.937 53.4944 49.1302 52.1423C49.2285 51.455 49.4201 50.7111 49.7711 50.0457C50.1176 49.389 50.7211 48.6274 51.7145 48.2738L53.056 52.0421C53.3405 51.9408 53.3841 51.7698 53.309 51.9121C53.2385 52.0457 53.147 52.3093 53.09 52.7082C52.9728 53.5284 53.0655 54.4381 53.2536 54.9665L49.4851 56.3077ZM51.7153 48.2735C52.4287 48.0199 52.8704 47.813 53.1395 47.6571C53.4055 47.503 53.4424 47.4333 53.4086 47.4763L56.5557 49.9452C55.8449 50.8513 54.6703 51.4682 53.0552 52.0424L51.7153 48.2735ZM53.4063 47.4792C53.3874 47.5034 53.3614 47.5435 53.3382 47.5959C53.3156 47.6469 53.3065 47.6854 53.3043 47.6959C53.3035 47.6997 53.3077 47.6811 53.315 47.6042C53.3188 47.5646 53.322 47.5254 53.3272 47.4651C53.3319 47.4098 53.3379 47.34 53.3456 47.2654L57.3244 47.6769C57.3063 47.8515 57.322 48.9647 56.5581 49.9422L53.4063 47.4792ZM53.3401 47.3286C53.3466 47.2371 53.3577 47.1536 53.3642 47.1072C53.3718 47.0527 53.38 47.0002 53.3868 46.9589C53.3937 46.9167 53.4002 46.8787 53.4043 46.8544C53.4067 46.8405 53.4077 46.8346 53.4084 46.8308C53.4087 46.8289 53.4082 46.8319 53.4073 46.8374C53.4068 46.8402 53.4059 46.8463 53.4047 46.8544C53.4038 46.8604 53.4011 46.8784 53.3982 46.9018L57.368 47.3927C57.3649 47.4174 57.362 47.4369 57.3609 47.4448C57.3594 47.4548 57.3581 47.4631 57.3572 47.4685C57.3555 47.4792 57.3539 47.4888 57.3529 47.4947C57.3509 47.5063 57.3485 47.5206 57.3468 47.5306C57.3428 47.554 57.3387 47.5779 57.3347 47.6025C57.3305 47.6279 57.3276 47.6469 57.3259 47.659C57.3251 47.6648 57.3252 47.6649 57.3257 47.6605C57.326 47.6576 57.328 47.6404 57.3299 47.6136L53.3401 47.3286ZM55.1183 45.1649C56.4452 44.9876 57.6004 45.148 58.5504 45.338L57.766 49.2603C57.0082 49.1088 56.3471 49.0363 55.6479 49.1297L55.1183 45.1649ZM58.5501 45.3379C63.2036 46.2678 65.843 50.3352 67.3881 54.0111C68.9631 57.758 69.7148 61.8733 70.1573 63.7681L66.2621 64.6778C65.7596 62.5262 65.1053 58.9029 63.7007 55.5611C62.2662 52.1484 60.3524 49.7771 57.7663 49.2604L58.5501 45.3379ZM67.7279 66.164C67.5996 66.1322 67.502 66.1091 67.4393 66.0946C67.4077 66.0874 67.3865 66.0826 67.3757 66.0803C67.3697 66.0789 67.3701 66.0791 67.3751 66.0801C67.3761 66.0803 67.3865 66.0825 67.4009 66.0852C67.4058 66.0862 67.4267 66.0902 67.4538 66.0946C67.4641 66.0963 67.5 66.1021 67.5463 66.1074C67.5663 66.1097 67.6201 66.1158 67.6892 66.1187C67.7228 66.1202 67.7892 66.1223 67.8728 66.1182C67.9125 66.1158 68.005 66.1073 68.0577 66.1005C68.1308 66.0886 68.3089 66.0479 68.4129 66.016L67.1368 62.2251C67.4074 62.134 67.6335 62.1251 67.6769 62.123C67.7606 62.1189 67.827 62.121 67.8606 62.1224C67.9298 62.1254 67.9836 62.1314 68.0038 62.1337C68.0503 62.139 68.0864 62.1449 68.097 62.1466C68.1248 62.1512 68.1467 62.1554 68.1528 62.1565C68.1698 62.1598 68.1839 62.1627 68.1899 62.164C68.2046 62.167 68.2197 62.1703 68.2327 62.1731C68.2602 62.1792 68.2956 62.1871 68.3378 62.1969C68.4229 62.2165 68.5421 62.2448 68.6915 62.2818L67.7279 66.164ZM75.4312 79.2638C74.9105 79.6643 74.3117 79.9114 73.6925 80.0303L72.9387 76.1019C72.9796 76.0941 73.0009 76.0857 73.007 76.083C73.0126 76.0806 73.0059 76.0828 72.9921 76.0934L75.4312 79.2638ZM73.6801 80.0326C72.7479 80.2054 71.7984 80.055 70.9826 79.6497L72.7622 76.0674C72.8332 76.1027 72.9048 76.1082 72.9511 76.0996L73.6801 80.0326ZM70.9809 79.6489C69.9121 79.1167 68.8648 78.1541 67.7671 76.6095C66.6667 75.061 65.4424 72.8234 64.0548 69.5906L67.7305 68.0129C69.0569 71.1032 70.152 73.0602 71.0277 74.2924C71.9061 75.5286 72.4917 75.9327 72.7638 76.0682L70.9809 79.6489ZM66.5782 66.9229C67.1894 67.1459 67.7193 67.34 67.9284 67.4118L66.6307 71.1954C66.3731 71.107 65.7838 70.891 65.2071 70.6806L66.5782 66.9229ZM67.9153 67.4073C71.3922 68.573 73.8244 70.4299 75.1601 71.7621L72.3355 74.5943C71.3687 73.6301 69.4515 72.1411 66.6438 71.1999L67.9153 67.4073ZM75.2677 71.8782C76.8856 73.7699 77.6398 76.3765 76.2595 78.3874L72.9617 76.1237C72.9282 76.1725 73.0076 76.1044 72.9536 75.8098C72.8994 75.5143 72.7118 75.044 72.2279 74.4782L75.2677 71.8782ZM76.2259 78.4348C76.0916 78.6188 75.9458 78.7887 75.7897 78.9447L72.9613 76.1163C72.9715 76.1061 72.9829 76.0932 72.9953 76.0763L76.2259 78.4348ZM75.7897 78.9447C75.6834 79.0511 75.5796 79.1428 75.4849 79.221L72.9384 76.1362C72.956 76.1218 72.9621 76.1155 72.9613 76.1163L75.7897 78.9447Z" fill="white" mask="url(#path-1-inside-1_507_164)"/>
<mask id="path-3-inside-2_507_164" fill="white">
<path d="M36.7995 49.2956C35.9886 48.5088 34.3869 47.5866 33.424 46.7947C33.1179 46.5421 32.8511 46.3778 32.6129 46.2722C31.9153 45.9633 31.46 46.1673 30.9827 46.2287C30.7019 46.2651 30.5683 46.2287 30.4307 46.1423C30.4277 46.14 30.425 46.1374 30.422 46.1366C29.2667 45.5879 24.789 46.0404 21.823 49.8755C21.5204 50.2404 21.2662 50.6365 21.0386 51.0455C18.606 55.1412 17.0143 62.3049 16.4558 64.2312C14.8006 64.8784 11.3612 66.1667 8.79216 68.0496C8.70202 68.1109 8.10773 68.5397 7.6741 68.9627C6.49466 70.0495 5.67353 71.2988 5.59179 72.7043C5.59069 72.7129 5.58219 72.9727 5.58223 72.984C5.58925 73.6518 5.7783 74.2612 6.0525 74.7886L6.05287 74.789C6.37879 75.5986 6.94667 75.896 7.43345 76.2419C7.50829 76.5412 7.61673 76.8229 7.74779 77.0889C8.53265 78.6934 10.1978 79.7009 11.1717 79.9801C12.2824 80.5491 13.1554 80.442 14.1532 79.9239C15.1092 79.4514 16.9379 78.3628 18.2584 75.3678C18.8135 74.0582 19.5161 71.8436 20.4692 68.5573L20.4748 68.5373C23.165 67.7158 30.0121 65.8753 31.7283 65.051C31.8193 65.0078 31.9053 64.9643 31.991 64.9204C34.6693 63.7548 37.707 61.7061 38.777 58.0455C38.8365 57.8571 39.0415 57.1738 39.1128 56.937C39.1255 56.894 39.1337 56.8653 39.1352 56.8585C39.9954 53.9079 39.5989 54.2339 39.0602 53.4662C39.0401 53.4393 39.0222 53.4071 39.0039 53.3767C38.43 52.4638 37.6328 50.706 37.2372 49.8553C37.1663 49.7046 37.0447 49.546 36.8838 49.3798L36.7995 49.2956ZM20.8799 66.8471C20.9068 66.7429 20.9313 66.6439 20.9571 66.543C22.0856 62.5363 22.7729 58.7498 24.0354 55.803C24.4179 55.0478 24.8323 54.342 25.2776 53.7152C26.4954 51.8621 27.5305 51.0919 29.3634 50.4416C31.1276 49.8137 34.3378 50.0396 34.8425 51.4575C35.397 53.017 35.8597 53.7171 36.2898 54.0544C36.7035 54.3777 37.0857 54.3614 37.5294 54.4073C37.6243 54.4141 37.8343 54.453 37.8532 54.4554C37.9886 55.4684 37.8721 56.3766 37.7013 57.2305C36.2547 64.47 24.8239 66.337 20.7776 67.2819C20.8465 67.0043 20.8803 66.8483 20.8799 66.8471ZM7.32188 73.2839C7.13343 73.0389 7.00148 72.7375 6.93439 72.3879C6.84372 71.8986 6.92162 71.3881 7.14192 70.9446C7.80958 69.6037 9.87557 67.6789 16.1988 64.9649C15.9821 65.5589 15.7769 66.1184 15.6969 66.3518C14.6435 69.4941 12.9705 71.6688 11.8223 72.8201C10.2641 74.1528 8.68429 74.3276 7.74495 73.6829C7.64448 73.6095 7.55307 73.5309 7.46996 73.4478C7.4172 73.395 7.36822 73.34 7.32188 73.2839"/>
</mask>
<path d="M36.7995 49.2956L38.1923 47.8602L38.2031 47.8707L38.2138 47.8814L36.7995 49.2956ZM33.424 46.7947L32.1536 48.3394L32.151 48.3373L33.424 46.7947ZM32.6129 46.2722L33.4225 44.4434L33.4235 44.4438L32.6129 46.2722ZM30.9827 46.2287L30.7257 44.2453L30.7276 44.245L30.9827 46.2287ZM30.4307 46.1423L29.3675 47.8363L29.2963 47.7916L29.2291 47.7411L30.4307 46.1423ZM30.422 46.1366L29.9306 48.0753L29.7407 48.0272L29.5639 47.9432L30.422 46.1366ZM21.823 49.8755L23.4051 51.0991L23.3842 51.1261L23.3624 51.1523L21.823 49.8755ZM21.0386 51.0455L22.7862 52.018L22.7726 52.0426L22.7582 52.0668L21.0386 51.0455ZM16.4558 64.2312L18.3767 64.7881L18.1022 65.7349L17.1841 66.0939L16.4558 64.2312ZM8.79216 68.0496L9.97445 69.6627L9.94598 69.6836L9.9168 69.7034L8.79216 68.0496ZM7.6741 68.9627L9.07066 70.3943L9.05031 70.4142L9.0294 70.4335L7.6741 68.9627ZM5.59179 72.7043L7.58842 72.8204L7.58447 72.8883L7.57591 72.9558L5.59179 72.7043ZM5.58223 72.984L3.58229 73.0051L3.58224 72.9915L5.58223 72.984ZM6.0525 74.7886L4.63828 76.2028L4.42027 75.9848L4.27803 75.7112L6.0525 74.7886ZM6.05287 74.789L7.46709 73.3748L7.75574 73.6634L7.90819 74.0421L6.05287 74.789ZM7.43345 76.2419L8.5919 74.6115L9.19444 75.0397L9.37373 75.7568L7.43345 76.2419ZM7.74779 77.0889L9.54175 76.2047L9.54438 76.2101L7.74779 77.0889ZM11.1717 79.9801L11.723 78.0576L11.9102 78.1113L12.0836 78.2001L11.1717 79.9801ZM14.1532 79.9239L13.2316 78.1489L13.2492 78.1397L13.2671 78.1309L14.1532 79.9239ZM18.2584 75.3678L20.0998 76.1484L20.0942 76.1616L20.0884 76.1747L18.2584 75.3678ZM20.4692 68.5573L22.3954 69.0955L22.3928 69.105L22.3901 69.1144L20.4692 68.5573ZM20.4748 68.5373L18.5486 67.999L18.8433 66.9443L19.8907 66.6245L20.4748 68.5373ZM31.7283 65.051L30.8624 63.2481L30.8712 63.2439L31.7283 65.051ZM31.991 64.9204L31.0786 63.1406L31.1349 63.1118L31.1929 63.0865L31.991 64.9204ZM38.777 58.0455L36.8574 57.4844L36.8633 57.4642L36.8696 57.4441L38.777 58.0455ZM39.1128 56.937L41.0312 57.5027L41.0278 57.5139L39.1128 56.937ZM39.1352 56.8585L37.1814 56.4312L37.196 56.3644L37.2151 56.2987L39.1352 56.8585ZM39.0602 53.4662L40.6617 52.2681L40.6799 52.2925L40.6974 52.3175L39.0602 53.4662ZM39.0039 53.3767L40.6971 52.3123L40.7073 52.3284L40.7171 52.3448L39.0039 53.3767ZM37.2372 49.8553L39.0471 49.0042L39.0507 49.0119L37.2372 49.8553ZM36.8838 49.3798L38.298 47.9656L38.3094 47.977L38.3206 47.9886L36.8838 49.3798ZM20.8799 66.8471L18.9844 67.4852L18.7952 66.923L18.9431 66.3486L20.8799 66.8471ZM20.9571 66.543L19.0191 66.0489L19.0252 66.0248L19.032 66.0008L20.9571 66.543ZM24.0354 55.803L22.197 55.0154L22.2222 54.9565L22.2512 54.8993L24.0354 55.803ZM25.2776 53.7152L26.949 54.8136L26.9291 54.844L26.908 54.8736L25.2776 53.7152ZM29.3634 50.4416L30.034 52.3258L30.0322 52.3265L29.3634 50.4416ZM34.8425 51.4575L36.7267 50.7868L36.727 50.7876L34.8425 51.4575ZM36.2898 54.0544L35.0583 55.6303L35.0553 55.628L36.2898 54.0544ZM37.5294 54.4073L37.3869 56.4022L37.3552 56.3999L37.3236 56.3967L37.5294 54.4073ZM37.8532 54.4554L38.0987 52.4705L39.6311 52.66L39.8356 54.1905L37.8532 54.4554ZM37.7013 57.2305L35.7401 56.8386L35.7401 56.8383L37.7013 57.2305ZM20.7776 67.2819L21.2324 69.2295L18.0489 69.973L18.8365 66.8001L20.7776 67.2819ZM6.93439 72.3879L4.97019 72.7648L4.96788 72.7523L6.93439 72.3879ZM7.14192 70.9446L5.35076 70.0548L5.35157 70.0532L7.14192 70.9446ZM16.1988 64.9649L15.4099 63.127L19.6646 61.3009L18.0776 65.6504L16.1988 64.9649ZM15.6969 66.3518L13.8006 65.7161L13.8051 65.7029L15.6969 66.3518ZM11.8223 72.8201L13.2384 74.2324L13.1824 74.2885L13.1223 74.3399L11.8223 72.8201ZM7.74495 73.6829L6.61313 75.3318L6.58916 75.3154L6.56568 75.2982L7.74495 73.6829ZM35.4068 50.731C35.143 50.475 34.6837 50.1408 34.0355 49.695C33.4613 49.3001 32.7204 48.8056 32.1536 48.3394L34.6943 45.25C35.0904 45.5758 35.6319 45.9383 36.3021 46.3991C36.8982 46.8091 37.6452 47.3294 38.1923 47.8602L35.4068 50.731ZM32.151 48.3373C31.9554 48.1759 31.842 48.1182 31.8022 48.1005L33.4235 44.4438C33.8602 44.6374 34.2804 44.9084 34.6969 45.2521L32.151 48.3373ZM31.8032 48.101C31.7808 48.091 31.7887 48.0972 31.8198 48.1021C31.8508 48.107 31.872 48.1054 31.8687 48.1057C31.8549 48.1068 31.8221 48.1105 31.7139 48.131C31.6745 48.1385 31.5878 48.1555 31.5199 48.1678C31.4424 48.182 31.3455 48.1985 31.2377 48.2124L30.7276 44.245C30.7702 44.2396 30.8045 44.2323 30.9674 44.2013C31.1006 44.176 31.3148 44.1365 31.5617 44.1175C32.1134 44.075 32.7376 44.1402 33.4225 44.4434L31.8032 48.101ZM31.2397 48.2121C30.9869 48.2449 30.6608 48.2648 30.3004 48.2002C29.9043 48.1293 29.597 47.9804 29.3675 47.8363L31.4939 44.4483C31.458 44.4258 31.3912 44.387 31.2995 44.349C31.2047 44.3098 31.1052 44.2807 31.0056 44.2629C30.8166 44.229 30.6977 44.2489 30.7257 44.2453L31.2397 48.2121ZM29.2291 47.7411C29.1978 47.7176 29.17 47.695 29.1771 47.7007C29.1774 47.7009 29.1794 47.7026 29.1822 47.7048C29.185 47.707 29.1894 47.7105 29.1949 47.7148C29.2054 47.723 29.223 47.7366 29.2452 47.7529C29.3096 47.8 29.5568 47.9806 29.9306 48.0753L30.9134 44.1979C31.2902 44.2934 31.5403 44.4758 31.6075 44.5249C31.6304 44.5417 31.6487 44.5559 31.66 44.5647C31.6707 44.5731 31.6793 44.58 31.6799 44.5804C31.6884 44.5873 31.6621 44.5659 31.6324 44.5436L29.2291 47.7411ZM29.5639 47.9432C29.709 48.0121 29.5977 47.928 29.0882 47.9484C28.6503 47.966 28.0678 48.0565 27.412 48.2667C26.1057 48.6854 24.6063 49.5459 23.4051 51.0991L20.2409 48.652C22.0057 46.3701 24.2282 45.0867 26.191 44.4576C27.1698 44.1438 28.1088 43.9844 28.9281 43.9516C29.6757 43.9217 30.5574 43.9868 31.2801 44.3301L29.5639 47.9432ZM23.3624 51.1523C23.1613 51.3948 22.9744 51.6799 22.7862 52.018L19.291 50.073C19.5581 49.5931 19.8794 49.086 20.2836 48.5987L23.3624 51.1523ZM22.7582 52.0668C21.672 53.8956 20.7219 56.5156 19.9582 59.0326C19.5825 60.2711 19.2621 61.4487 18.9991 62.4449C18.7442 63.4101 18.5251 64.2762 18.3767 64.7881L14.5349 63.6743C14.6657 63.2231 14.855 62.4713 15.1317 61.4236C15.4002 60.4068 15.7345 59.1764 16.1306 57.8712C16.9105 55.3007 17.9726 52.291 19.3191 50.0242L22.7582 52.0668ZM17.1841 66.0939C15.4624 66.7671 12.2911 67.9648 9.97445 69.6627L7.60988 66.4364C10.4313 64.3686 14.1388 62.9897 15.7275 62.3685L17.1841 66.0939ZM9.9168 69.7034C9.91817 69.7025 9.78423 69.7969 9.59561 69.9447C9.40754 70.0921 9.21378 70.2547 9.07066 70.3943L6.27754 67.531C6.82965 66.9925 7.53073 66.4888 7.66753 66.3957L9.9168 69.7034ZM9.0294 70.4335C8.03346 71.3512 7.6274 72.15 7.58842 72.8204L3.59516 72.5881C3.71966 70.4475 4.95587 68.7478 6.3188 67.4919L9.0294 70.4335ZM7.57591 72.9558C7.57767 72.9419 7.57902 72.9301 7.58002 72.9209C7.58103 72.9116 7.58185 72.9035 7.58248 72.897C7.58372 72.8841 7.58462 72.8735 7.58521 72.8663C7.58582 72.8588 7.58629 72.8524 7.58663 72.8476C7.58698 72.8427 7.58726 72.8385 7.58748 72.8352C7.5879 72.8286 7.58821 72.8234 7.5884 72.82C7.5886 72.8165 7.58875 72.8136 7.58885 72.8116C7.58905 72.8078 7.58917 72.8052 7.58921 72.8043C7.58926 72.8032 7.58928 72.8028 7.58926 72.8031C7.58922 72.804 7.58913 72.8062 7.58898 72.81C7.58884 72.8138 7.58866 72.8184 7.58846 72.8239C7.58763 72.8463 7.58655 72.8774 7.58546 72.9101C7.58437 72.9425 7.58334 72.9746 7.58259 72.9987C7.58221 73.0109 7.58195 73.0199 7.58179 73.0253C7.58171 73.0282 7.58171 73.0284 7.58175 73.0267C7.58177 73.0261 7.58184 73.0229 7.58192 73.0184C7.58197 73.0161 7.58204 73.0119 7.5821 73.0066C7.58213 73.0039 7.58217 73.0001 7.58219 72.9956C7.58222 72.9913 7.58225 72.9847 7.58222 72.9766L3.58224 72.9915C3.58204 72.9367 3.58667 72.8069 3.5877 72.7762C3.58886 72.7415 3.59012 72.7053 3.59119 72.6762C3.59171 72.6622 3.59229 72.6469 3.59286 72.6335C3.59312 72.6273 3.59357 72.6171 3.59415 72.6058C3.59442 72.6006 3.59499 72.5898 3.59585 72.5764C3.59628 72.5699 3.59707 72.5581 3.59826 72.5434C3.59896 72.5348 3.60185 72.4986 3.60767 72.4527L7.57591 72.9558ZM7.58212 72.963C7.58524 73.2601 7.66908 73.5623 7.82696 73.8659L4.27803 75.7112C3.88752 74.9602 3.59325 74.0435 3.58234 73.0051L7.58212 72.963ZM7.46671 73.3744L7.46709 73.3748L4.63866 76.2032L4.63828 76.2028L7.46671 73.3744ZM7.90819 74.0421C7.9408 74.1231 7.96826 74.1556 8.01938 74.2015C8.05743 74.2357 8.11236 74.2791 8.2088 74.3469C8.25815 74.3816 8.30864 74.416 8.37498 74.4613C8.4367 74.5034 8.51353 74.5559 8.5919 74.6115L6.27499 77.8722C5.97453 77.6587 4.7914 77.011 4.19756 75.5358L7.90819 74.0421ZM9.37373 75.7568C9.40973 75.9008 9.46499 76.049 9.54174 76.2047L5.95383 77.973C5.76847 77.5969 5.60685 77.1817 5.49317 76.727L9.37373 75.7568ZM9.54438 76.2101C9.7681 76.6674 10.1478 77.0935 10.6051 77.4438C11.0717 77.8012 11.5096 77.9964 11.723 78.0576L10.6204 81.9026C9.23142 81.5044 7.03819 80.1899 5.9512 77.9676L9.54438 76.2101ZM12.0836 78.2001C12.3921 78.3582 12.5463 78.3646 12.6201 78.3615C12.7128 78.3575 12.889 78.3268 13.2316 78.1489L15.0748 81.6989C14.4196 82.0391 13.6604 82.321 12.7895 82.3579C11.8997 82.3956 11.062 82.1711 10.2598 81.7601L12.0836 78.2001ZM13.2671 78.1309C13.9293 77.8036 15.3472 77.013 16.4284 74.5609L20.0884 76.1747C18.5285 79.7126 16.2891 81.0992 15.0394 81.7169L13.2671 78.1309ZM16.417 74.5873C16.9182 73.4049 17.5901 71.3045 18.5484 68.0002L22.3901 69.1144C21.4422 72.3828 20.7088 74.7116 20.0998 76.1484L16.417 74.5873ZM18.543 68.019L18.5486 67.999L22.401 69.0755L22.3954 69.0955L18.543 68.019ZM19.8907 66.6245C21.2387 66.2128 23.6951 65.5261 25.9022 64.8765C28.2384 64.189 30.1867 63.5727 30.8624 63.2481L32.5943 66.8538C31.5538 67.3536 29.2204 68.0697 27.0315 68.7138C24.7134 69.396 22.4011 70.0402 21.0589 70.4501L19.8907 66.6245ZM30.8712 63.2439C30.9338 63.2142 30.998 63.1819 31.0786 63.1406L32.9034 66.7001C32.8126 66.7467 32.7047 66.8014 32.5854 66.858L30.8712 63.2439ZM31.1929 63.0865C33.6617 62.0121 36.0345 60.2994 36.8574 57.4844L40.6967 58.6067C39.3795 63.1129 35.6769 65.4975 32.7891 66.7542L31.1929 63.0865ZM36.8696 57.4441C36.9239 57.2719 37.1224 56.6106 37.1978 56.3601L41.0278 57.5139C40.9606 57.7371 40.749 58.4422 40.6845 58.6469L36.8696 57.4441ZM37.1945 56.3714C37.2001 56.3524 37.2034 56.3409 37.2049 56.3356C37.2058 56.3326 37.2049 56.3355 37.2032 56.3419C37.2023 56.3451 37.2002 56.3528 37.1976 56.3632C37.1962 56.3685 37.1942 56.3765 37.1918 56.3863C37.1896 56.3953 37.1858 56.4112 37.1814 56.4312L41.089 57.2857C41.0764 57.3436 41.0627 57.3926 41.0626 57.3932C41.0585 57.4083 41.0545 57.4223 41.0515 57.4327C41.0454 57.4542 41.0383 57.4786 41.0312 57.5027L37.1945 56.3714ZM37.2151 56.2987C37.4252 55.5781 37.5402 55.1185 37.5973 54.818C37.6587 54.4951 37.623 54.5014 37.6455 54.6477C37.6603 54.7438 37.6933 54.8601 37.7514 54.9788C37.8054 55.0891 37.8592 55.1556 37.8626 55.1598C37.8629 55.1602 37.8571 55.153 37.8341 55.1266C37.8207 55.1113 37.7728 55.0569 37.7395 55.0184C37.6562 54.9218 37.5437 54.7869 37.423 54.6149L40.6974 52.3175C40.8082 52.4754 40.6793 52.2802 40.9777 52.6505C41.2234 52.9556 41.5004 53.3984 41.599 54.0398C41.6805 54.5694 41.6163 55.0954 41.5269 55.5652C41.4333 56.0574 41.2753 56.6636 41.0553 57.4182L37.2151 56.2987ZM37.4588 54.6643C37.3936 54.5771 37.3463 54.5009 37.3238 54.464C37.3117 54.4441 37.3013 54.4265 37.2965 54.4185C37.2898 54.4071 37.2903 54.408 37.2907 54.4087L40.7171 52.3448C40.7267 52.3607 40.7363 52.3769 40.7387 52.381C40.7431 52.3884 40.7418 52.3861 40.739 52.3815C40.7358 52.3763 40.7276 52.363 40.7157 52.345C40.7039 52.3269 40.6857 52.3002 40.6617 52.2681L37.4588 54.6643ZM37.3107 54.4412C36.6505 53.391 35.7837 51.4728 35.4237 50.6987L39.0507 49.0119C39.4819 49.9392 40.2095 51.5366 40.6971 52.3123L37.3107 54.4412ZM35.4273 50.7064C35.4456 50.7453 35.462 50.7739 35.4732 50.7919C35.4843 50.81 35.4919 50.8202 35.4936 50.8225C35.4954 50.8248 35.4929 50.8214 35.4848 50.812C35.4767 50.8027 35.4644 50.7891 35.447 50.7711L38.3206 47.9886C38.554 48.2296 38.8432 48.5708 39.0471 49.0042L35.4273 50.7064ZM35.4696 50.794L35.3853 50.7098L38.2138 47.8814L38.298 47.9656L35.4696 50.794ZM18.9431 66.3486C18.9709 66.2405 18.9876 66.1722 19.0191 66.0489L22.8951 67.0371C22.8751 67.1156 22.8427 67.2452 22.8168 67.3457L18.9431 66.3486ZM19.032 66.0008C19.5903 64.0183 20.0214 62.1584 20.51 60.2737C20.9848 58.4417 21.5029 56.6356 22.197 55.0154L25.8738 56.5906C25.3054 57.9173 24.8485 59.4777 24.382 61.2774C23.9291 63.0243 23.4523 65.061 22.8822 67.0852L19.032 66.0008ZM22.2512 54.8993C22.6683 54.0758 23.1326 53.2811 23.6473 52.5567L26.908 54.8736C26.532 55.4028 26.1674 56.0199 25.8196 56.7067L22.2512 54.8993ZM23.6063 52.6168C24.2873 51.5805 24.9872 50.7393 25.8504 50.0577C26.7181 49.3725 27.652 48.9267 28.6946 48.5567L30.0322 52.3265C29.2418 52.6069 28.7418 52.8713 28.3293 53.197C27.9123 53.5263 27.4858 53.9968 26.949 54.8136L23.6063 52.6168ZM28.6928 48.5574C29.9286 48.1175 31.506 48.0093 32.8582 48.2025C33.5455 48.3007 34.2894 48.4923 34.9548 48.8434C35.6115 49.1898 36.3731 49.7933 36.7267 50.7868L32.9584 52.1283C33.0596 52.4127 33.2307 52.4563 33.0884 52.3812C32.9548 52.3108 32.6912 52.2193 32.2923 52.1623C31.4721 52.0451 30.5624 52.1378 30.034 52.3258L28.6928 48.5574ZM36.727 50.7876C36.9806 51.501 37.1875 51.9426 37.3434 52.2117C37.4975 52.4778 37.5672 52.5146 37.5242 52.4809L35.0553 55.628C34.1492 54.9172 33.5323 53.7425 32.9581 52.1275L36.727 50.7876ZM37.5213 52.4786C37.4971 52.4597 37.457 52.4336 37.4046 52.4105C37.3536 52.3879 37.3151 52.3788 37.3046 52.3766C37.3008 52.3758 37.3194 52.3799 37.3963 52.3873C37.4359 52.391 37.475 52.3943 37.5354 52.3994C37.5907 52.4041 37.6604 52.4102 37.7351 52.4179L37.3236 56.3967C37.149 56.3786 36.0358 56.3942 35.0583 55.6303L37.5213 52.4786ZM37.6719 52.4124C37.7634 52.4189 37.8469 52.43 37.8932 52.4364C37.9478 52.4441 38.0003 52.4523 38.0416 52.4591C38.0838 52.4659 38.1218 52.4724 38.1461 52.4766C38.16 52.479 38.1659 52.48 38.1697 52.4806C38.1716 52.481 38.1685 52.4804 38.1631 52.4796C38.1603 52.4791 38.1542 52.4781 38.1461 52.4769C38.1401 52.4761 38.1221 52.4734 38.0987 52.4705L37.6078 56.4402C37.5831 56.4372 37.5636 56.4343 37.5557 56.4331C37.5457 56.4316 37.5373 56.4303 37.5319 56.4295C37.5213 56.4278 37.5117 56.4262 37.5058 56.4252C37.4941 56.4232 37.4798 56.4207 37.4699 56.419C37.4465 56.415 37.4226 56.4109 37.398 56.4069C37.3726 56.4028 37.3535 56.3999 37.3415 56.3982C37.3357 56.3974 37.3356 56.3975 37.34 56.398C37.3429 56.3983 37.3601 56.4003 37.3869 56.4022L37.6719 52.4124ZM39.8356 54.1905C40.0129 55.5175 39.8525 56.6727 39.6625 57.6227L35.7401 56.8383C35.8917 56.0805 35.9642 55.4194 35.8708 54.7202L39.8356 54.1905ZM39.6625 57.6224C38.7327 62.2759 34.6653 64.9153 30.9894 66.4604C27.2425 68.0354 23.1272 68.787 21.2324 69.2295L20.3227 65.3343C22.4743 64.8319 26.0976 64.1776 29.4394 62.7729C32.8521 61.3384 35.2234 59.4246 35.7401 56.8386L39.6625 57.6224ZM18.8365 66.8001C18.8683 66.6718 18.8914 66.5743 18.9058 66.5116C18.9131 66.48 18.9179 66.4588 18.9202 66.448C18.9216 66.4419 18.9214 66.4424 18.9204 66.4473C18.9202 66.4484 18.918 66.4588 18.9153 66.4732C18.9143 66.4781 18.9103 66.4989 18.9059 66.5261C18.9042 66.5364 18.8984 66.5722 18.893 66.6185C18.8907 66.6386 18.8847 66.6924 18.8818 66.7615C18.8803 66.795 18.8782 66.8614 18.8823 66.9451C18.8847 66.9848 18.8932 67.0773 18.9 67.13C18.9119 67.2031 18.9526 67.3812 18.9844 67.4852L22.7754 66.209C22.8665 66.4796 22.8754 66.7057 22.8775 66.7492C22.8816 66.8329 22.8795 66.8993 22.8781 66.9328C22.8751 67.002 22.8691 67.0559 22.8668 67.076C22.8614 67.1225 22.8556 67.1587 22.8538 67.1693C22.8493 67.1971 22.8451 67.219 22.844 67.2251C22.8407 67.2421 22.8378 67.2562 22.8365 67.2621C22.8335 67.2769 22.8302 67.2919 22.8274 67.305C22.8213 67.3325 22.8134 67.3679 22.8036 67.4101C22.784 67.4951 22.7557 67.6144 22.7187 67.7638L18.8365 66.8001ZM5.7367 74.5034C5.33614 73.9827 5.08904 73.3839 4.97023 72.7648L8.89856 72.011C8.90641 72.0519 8.91481 72.0732 8.91744 72.0792C8.9199 72.0849 8.91764 72.0781 8.90706 72.0644L5.7367 74.5034ZM4.96788 72.7523C4.79512 71.8202 4.94545 70.8707 5.35076 70.0548L8.93307 71.8344C8.89778 71.9055 8.89232 71.9771 8.9009 72.0234L4.96788 72.7523ZM5.35157 70.0532C5.88375 68.9844 6.84641 67.9371 8.39096 66.8394C9.93948 65.7389 12.177 64.5146 15.4099 63.127L16.9876 66.8028C13.8973 68.1292 11.9403 69.2243 10.7081 70.0999C9.47192 70.9784 9.06775 71.564 8.93226 71.8361L5.35157 70.0532ZM18.0776 65.6504C17.8546 66.2617 17.6604 66.7916 17.5887 67.0007L13.8051 65.7029C13.8934 65.4453 14.1095 64.8561 14.3199 64.2794L18.0776 65.6504ZM17.5932 66.9875C16.4275 70.4645 14.5706 72.8967 13.2384 74.2324L10.4062 71.4077C11.3704 70.441 12.8594 68.5238 13.8006 65.7161L17.5932 66.9875ZM13.1223 74.3399C11.2306 75.9579 8.62398 76.712 6.61313 75.3318L8.87677 72.0339C8.82794 72.0004 8.89606 72.0799 9.19073 72.0258C9.48619 71.9716 9.95652 71.7841 10.5223 71.3002L13.1223 74.3399ZM6.56568 75.2982C6.38171 75.1639 6.21177 75.018 6.05574 74.862L8.88417 72.0336C8.89437 72.0438 8.90724 72.0551 8.92422 72.0675L6.56568 75.2982ZM6.05574 74.862C5.94942 74.7557 5.85771 74.6519 5.77952 74.5571L8.86424 72.0107C8.87873 72.0282 8.88498 72.0344 8.88417 72.0336L6.05574 74.862Z" fill="white" mask="url(#path-3-inside-2_507_164)"/>
<mask id="path-5-inside-3_507_164" fill="white">
<path d="M49.1282 34.7772C49.9391 35.564 51.5408 36.4861 52.5038 37.278C52.8098 37.5306 53.0766 37.6949 53.3149 37.8006C54.0125 38.1094 54.4677 37.9054 54.945 37.8441C55.2258 37.8077 55.3594 37.8441 55.497 37.9304C55.5001 37.9327 55.5027 37.9354 55.5057 37.9361C56.661 38.4849 61.1388 38.0323 64.1047 34.1972C64.4074 33.8324 64.6615 33.4363 64.8891 33.0273C67.3218 28.9316 68.9134 21.7678 69.4719 19.8416C71.1271 19.1943 74.5665 17.9061 77.1356 16.0232C77.2257 15.9619 77.82 15.5331 78.2536 15.1101C79.4331 14.0232 80.2542 12.774 80.3359 11.3685C80.337 11.3598 80.3455 11.1001 80.3455 11.0887C80.3385 10.421 80.1494 9.81151 79.8752 9.28416L79.8749 9.28379C79.5489 8.47418 78.9811 8.17677 78.4943 7.83088C78.4194 7.53152 78.311 7.24982 78.1799 6.9839C77.3951 5.37932 75.73 4.3719 74.756 4.09264C73.6453 3.52362 72.7723 3.63077 71.7745 4.14885C70.8185 4.62133 68.9899 5.70993 67.6693 8.70492C67.1142 10.0145 66.4116 12.2291 65.4585 15.5155L65.4529 15.5355C62.7627 16.357 55.9156 18.1975 54.1994 19.0218C54.1084 19.0649 54.0224 19.1085 53.9367 19.1524C51.2584 20.318 48.2207 22.3666 47.1507 26.0272C47.0913 26.2157 46.8862 26.8989 46.8149 27.1357C46.8022 27.1788 46.794 27.2075 46.7925 27.2143C45.9323 30.1649 46.3289 29.8389 46.8675 30.6066C46.8876 30.6335 46.9055 30.6657 46.9238 30.696C47.4978 31.609 48.2949 33.3667 48.6906 34.2174C48.7614 34.3682 48.883 34.5267 49.0439 34.6929L49.1282 34.7772ZM65.0478 17.2256C65.021 17.3299 64.9964 17.4289 64.9707 17.5297C63.8422 21.5365 63.1549 25.3229 61.8923 28.2697C61.5099 29.0249 61.0954 29.7308 60.6501 30.3576C59.4323 32.2107 58.3972 32.9808 56.5643 33.6311C54.8002 34.2591 51.5899 34.0331 51.0852 32.6152C50.5308 31.0558 50.068 30.3557 49.638 30.0183C49.2243 29.695 48.8421 29.7114 48.3984 29.6655C48.3034 29.6587 48.0934 29.6197 48.0745 29.6174C47.9392 28.6043 48.0557 27.6962 48.2264 26.8423C49.673 19.6027 61.1038 17.7358 65.1502 16.7908C65.0813 17.0685 65.0474 17.2245 65.0478 17.2256ZM78.6059 10.7889C78.7943 11.0338 78.9263 11.3353 78.9933 11.6849C79.084 12.1741 79.0061 12.6847 78.7858 13.1281C78.1182 14.4691 76.0522 16.3939 69.729 19.1078C69.9457 18.5139 70.1508 17.9543 70.2308 17.7209C71.2843 14.5786 72.9573 12.4039 74.1055 11.2527C75.6636 9.91999 77.2434 9.74512 78.1828 10.3899C78.2833 10.4632 78.3747 10.5418 78.4578 10.625C78.5105 10.6777 78.5595 10.7327 78.6059 10.7889"/>
</mask>
<path d="M49.1282 34.7772L47.7355 36.2126L47.7246 36.2021L47.714 36.1914L49.1282 34.7772ZM52.5038 37.278L53.7741 35.7333L53.7767 35.7355L52.5038 37.278ZM53.3149 37.8006L52.5052 39.6294L52.5042 39.6289L53.3149 37.8006ZM54.945 37.8441L55.2021 39.8275L55.2001 39.8277L54.945 37.8441ZM55.497 37.9304L56.5602 36.2364L56.6314 36.2811L56.6987 36.3317L55.497 37.9304ZM55.5057 37.9361L55.9972 35.9974L56.187 36.0456L56.3639 36.1296L55.5057 37.9361ZM64.1047 34.1972L62.5227 32.9737L62.5435 32.9467L62.5653 32.9204L64.1047 34.1972ZM64.8891 33.0273L63.1415 32.0547L63.1552 32.0301L63.1696 32.0059L64.8891 33.0273ZM69.4719 19.8416L67.551 19.2846L67.8255 18.3379L68.7436 17.9789L69.4719 19.8416ZM77.1356 16.0232L75.9533 14.41L75.9818 14.3892L76.0109 14.3693L77.1356 16.0232ZM78.2536 15.1101L76.8571 13.6784L76.8774 13.6586L76.8983 13.6393L78.2536 15.1101ZM80.3359 11.3685L78.3393 11.2524L78.3433 11.1845L78.3518 11.117L80.3359 11.3685ZM80.3455 11.0887L82.3454 11.0677L82.3455 11.0813L80.3455 11.0887ZM79.8752 9.28416L81.2895 7.86995L81.5075 8.08797L81.6497 8.36152L79.8752 9.28416ZM79.8749 9.28379L78.4606 10.698L78.172 10.4093L78.0195 10.0307L79.8749 9.28379ZM78.4943 7.83088L77.3358 9.46121L76.7333 9.03306L76.554 8.31597L78.4943 7.83088ZM78.1799 6.9839L76.386 7.86805L76.3834 7.86268L78.1799 6.9839ZM74.756 4.09264L74.2048 6.01516L74.0175 5.96147L73.8442 5.87265L74.756 4.09264ZM71.7745 4.14885L72.6961 5.92385L72.6785 5.93301L72.6607 5.94182L71.7745 4.14885ZM67.6693 8.70492L65.8279 7.92438L65.8335 7.91116L65.8393 7.89802L67.6693 8.70492ZM65.4585 15.5155L63.5323 14.9772L63.5349 14.9678L63.5377 14.9584L65.4585 15.5155ZM65.4529 15.5355L67.3791 16.0737L67.0844 17.1285L66.037 17.4483L65.4529 15.5355ZM54.1994 19.0218L55.0654 20.8246L55.0565 20.8288L54.1994 19.0218ZM53.9367 19.1524L54.8492 20.9321L54.7929 20.961L54.7348 20.9863L53.9367 19.1524ZM47.1507 26.0272L49.0704 26.5884L49.0645 26.6086L49.0581 26.6286L47.1507 26.0272ZM46.8149 27.1357L44.8965 26.5701L44.8999 26.5588L46.8149 27.1357ZM46.7925 27.2143L48.7463 27.6416L48.7317 27.7084L48.7126 27.774L46.7925 27.2143ZM46.8675 30.6066L45.2661 31.8046L45.2478 31.7802L45.2303 31.7553L46.8675 30.6066ZM46.9238 30.696L45.2306 31.7604L45.2204 31.7443L45.2106 31.728L46.9238 30.696ZM48.6906 34.2174L46.8807 35.0685L46.8771 35.0608L48.6906 34.2174ZM49.0439 34.6929L47.6297 36.1071L47.6183 36.0957L47.6071 36.0842L49.0439 34.6929ZM65.0478 17.2256L66.9433 16.5876L67.1325 17.1497L66.9847 17.7242L65.0478 17.2256ZM64.9707 17.5297L66.9087 18.0238L66.9025 18.048L66.8958 18.0719L64.9707 17.5297ZM61.8923 28.2697L63.7307 29.0574L63.7055 29.1163L63.6765 29.1734L61.8923 28.2697ZM60.6501 30.3576L58.9787 29.2592L58.9987 29.2288L59.0198 29.1991L60.6501 30.3576ZM56.5643 33.6311L55.8937 31.7469L55.8956 31.7463L56.5643 33.6311ZM51.0852 32.6152L49.201 33.286L49.2007 33.2852L51.0852 32.6152ZM49.638 30.0183L50.8695 28.4424L50.8724 28.4447L49.638 30.0183ZM48.3984 29.6655L48.5409 27.6706L48.5725 27.6728L48.6041 27.6761L48.3984 29.6655ZM48.0745 29.6174L47.8291 31.6023L46.2966 31.4128L46.0921 29.8822L48.0745 29.6174ZM48.2264 26.8423L50.1876 27.2342L50.1876 27.2345L48.2264 26.8423ZM65.1502 16.7908L64.6953 14.8432L67.8788 14.0998L67.0913 17.2726L65.1502 16.7908ZM78.9933 11.6849L80.9575 11.308L80.9599 11.3204L78.9933 11.6849ZM78.7858 13.1281L80.577 14.0179L80.5762 14.0196L78.7858 13.1281ZM69.729 19.1078L70.5178 20.9457L66.2631 22.7719L67.8501 18.4223L69.729 19.1078ZM70.2308 17.7209L72.1272 18.3567L72.1226 18.3698L70.2308 17.7209ZM74.1055 11.2527L72.6894 9.84035L72.7453 9.78428L72.8055 9.73281L74.1055 11.2527ZM78.1828 10.3899L79.3146 8.74095L79.3386 8.7574L79.3621 8.77454L78.1828 10.3899ZM50.5209 33.3418C50.7847 33.5978 51.2441 33.932 51.8923 34.3778C52.4665 34.7726 53.2073 35.2671 53.7741 35.7333L51.2334 38.8228C50.8373 38.497 50.2958 38.1345 49.6257 37.6736C49.0295 37.2636 48.2826 36.7434 47.7355 36.2126L50.5209 33.3418ZM53.7767 35.7355C53.9723 35.8969 54.0857 35.9546 54.1255 35.9722L52.5042 39.6289C52.0675 39.4353 51.6474 39.1644 51.2308 38.8206L53.7767 35.7355ZM54.1245 35.9718C54.147 35.9817 54.139 35.9755 54.1079 35.9707C54.077 35.9658 54.0557 35.9673 54.0591 35.967C54.0729 35.966 54.1056 35.9623 54.2138 35.9417C54.2532 35.9342 54.3399 35.9173 54.4078 35.9049C54.4853 35.8908 54.5823 35.8742 54.69 35.8604L55.2001 39.8277C55.1576 39.8332 55.1233 39.8405 54.9603 39.8714C54.8271 39.8967 54.613 39.9362 54.3661 39.9552C53.8144 39.9977 53.1901 39.9326 52.5052 39.6294L54.1245 35.9718ZM54.688 35.8606C54.9409 35.8279 55.267 35.808 55.6274 35.8726C56.0234 35.9435 56.3307 36.0924 56.5602 36.2364L54.4339 39.6244C54.4697 39.6469 54.5365 39.6858 54.6282 39.7237C54.7231 39.7629 54.8225 39.792 54.9221 39.8099C55.1111 39.8437 55.23 39.8238 55.2021 39.8275L54.688 35.8606ZM56.6987 36.3317C56.73 36.3552 56.7577 36.3777 56.7506 36.372C56.7504 36.3718 56.7483 36.3702 56.7456 36.368C56.7427 36.3657 56.7383 36.3622 56.7329 36.358C56.7223 36.3497 56.7048 36.3361 56.6825 36.3199C56.6182 36.2728 56.3709 36.0922 55.9972 35.9974L55.0143 39.8748C54.6376 39.7793 54.3874 39.597 54.3203 39.5478C54.2973 39.531 54.279 39.5169 54.2678 39.5081C54.257 39.4997 54.2484 39.4928 54.2478 39.4923C54.2393 39.4855 54.2656 39.5068 54.2954 39.5292L56.6987 36.3317ZM56.3639 36.1296C56.2187 36.0606 56.3301 36.1448 56.8396 36.1243C57.2775 36.1068 57.8599 36.0163 58.5158 35.8061C59.822 35.3874 61.3215 34.5269 62.5227 32.9737L65.6868 35.4208C63.922 37.7027 61.6996 38.986 59.7367 39.6152C58.7579 39.9289 57.819 40.0883 56.9997 40.1211C56.252 40.1511 55.3704 40.086 54.6476 39.7427L56.3639 36.1296ZM62.5653 32.9204C62.7664 32.678 62.9533 32.3929 63.1415 32.0547L66.6367 33.9998C66.3697 34.4797 66.0483 34.9867 65.6441 35.474L62.5653 32.9204ZM63.1696 32.0059C64.2558 30.1771 65.2058 27.5571 65.9695 25.0402C66.3453 23.8017 66.6656 22.624 66.9286 21.6279C67.1835 20.6626 67.4026 19.7966 67.551 19.2846L71.3928 20.3985C71.262 20.8497 71.0727 21.6014 70.7961 22.6491C70.5276 23.666 70.1932 24.8964 69.7972 26.2016C69.0172 28.772 67.9551 31.7817 66.6087 34.0486L63.1696 32.0059ZM68.7436 17.9789C70.4653 17.3057 73.6367 16.1079 75.9533 14.41L78.3179 17.6363C75.4964 19.7042 71.789 21.083 70.2003 21.7042L68.7436 17.9789ZM76.0109 14.3693C76.0096 14.3703 76.1435 14.2759 76.3321 14.1281C76.5202 13.9807 76.714 13.818 76.8571 13.6784L79.6502 16.5417C79.0981 17.0803 78.397 17.584 78.2602 17.677L76.0109 14.3693ZM76.8983 13.6393C77.8943 12.7215 78.3003 11.9227 78.3393 11.2524L82.3326 11.4846C82.2081 13.6252 80.9719 15.3249 79.6089 16.5808L76.8983 13.6393ZM78.3518 11.117C78.3501 11.1308 78.3487 11.1427 78.3477 11.1518C78.3467 11.1611 78.3459 11.1692 78.3453 11.1758C78.344 11.1886 78.3431 11.1992 78.3425 11.2065C78.3419 11.214 78.3414 11.2204 78.3411 11.2252C78.3408 11.23 78.3405 11.2343 78.3403 11.2376C78.3398 11.2441 78.3395 11.2494 78.3393 11.2527C78.3391 11.2563 78.339 11.2591 78.3389 11.2611C78.3387 11.2649 78.3386 11.2676 78.3385 11.2685C78.3385 11.2696 78.3385 11.27 78.3385 11.2696C78.3385 11.2688 78.3386 11.2666 78.3388 11.2627C78.3389 11.259 78.3391 11.2544 78.3393 11.2489C78.3401 11.2264 78.3412 11.1954 78.3423 11.1627C78.3434 11.1303 78.3444 11.0982 78.3451 11.0741C78.3455 11.0618 78.3458 11.0529 78.3459 11.0475C78.346 11.0445 78.346 11.0444 78.346 11.046C78.346 11.0467 78.3459 11.0499 78.3458 11.0544C78.3458 11.0567 78.3457 11.0609 78.3456 11.0662C78.3456 11.0689 78.3456 11.0726 78.3455 11.0771C78.3455 11.0814 78.3455 11.088 78.3455 11.0962L82.3455 11.0813C82.3457 11.1361 82.3411 11.2658 82.34 11.2965C82.3389 11.3313 82.3376 11.3675 82.3365 11.3965C82.336 11.4106 82.3354 11.4258 82.3349 11.4393C82.3346 11.4454 82.3342 11.4557 82.3336 11.467C82.3333 11.4722 82.3327 11.483 82.3319 11.4963C82.3315 11.5029 82.3307 11.5147 82.3295 11.5293C82.3288 11.5379 82.3259 11.5741 82.3201 11.62L78.3518 11.117ZM78.3456 11.1097C78.3425 10.8126 78.2587 10.5104 78.1008 10.2068L81.6497 8.36152C82.0402 9.11257 82.3345 10.0293 82.3454 11.0677L78.3456 11.1097ZM78.461 10.6984L78.4606 10.698L81.2891 7.86957L81.2895 7.86995L78.461 10.6984ZM78.0195 10.0307C77.9869 9.94964 77.9595 9.9172 77.9084 9.87128C77.8703 9.83709 77.8154 9.79368 77.7189 9.72586C77.6696 9.69115 77.6191 9.65674 77.5528 9.61148C77.491 9.56936 77.4142 9.5169 77.3358 9.46121L79.6527 6.20055C79.9532 6.41404 81.1363 7.06174 81.7302 8.53692L78.0195 10.0307ZM76.554 8.31597C76.518 8.17195 76.4627 8.02379 76.386 7.86805L79.9739 6.09975C80.1593 6.47585 80.3209 6.89109 80.4346 7.34579L76.554 8.31597ZM76.3834 7.86268C76.1596 7.4053 75.7799 6.97929 75.3226 6.62892C74.8561 6.27152 74.4181 6.07633 74.2048 6.01516L75.3073 2.17011C76.6963 2.5684 78.8895 3.88286 79.9765 6.10511L76.3834 7.86268ZM73.8442 5.87265C73.5356 5.71459 73.3815 5.70816 73.3076 5.71129C73.2149 5.71522 73.0387 5.74598 72.6961 5.92385L70.8529 2.37386C71.5081 2.03364 72.2673 1.75179 73.1382 1.71488C74.028 1.67716 74.8658 1.90166 75.6679 2.31262L73.8442 5.87265ZM72.6607 5.94182C71.9984 6.26913 70.5805 7.05974 69.4993 9.51181L65.8393 7.89802C67.3993 4.36011 69.6386 2.97354 70.8884 2.35588L72.6607 5.94182ZM69.5107 9.48545C69.0095 10.6679 68.3376 12.7683 67.3794 16.0725L63.5377 14.9584C64.4856 11.6899 65.2189 9.36116 65.8279 7.92438L69.5107 9.48545ZM67.3847 16.0537L67.3791 16.0737L63.5267 14.9972L63.5323 14.9772L67.3847 16.0537ZM66.037 17.4483C64.689 17.8599 62.2327 18.5467 60.0255 19.1962C57.6893 19.8837 55.741 20.5001 55.0653 20.8246L53.3335 17.219C54.374 16.7192 56.7074 16.0031 58.8963 15.3589C61.2143 14.6768 63.5266 14.0325 64.8688 13.6227L66.037 17.4483ZM55.0565 20.8288C54.9939 20.8585 54.9297 20.8908 54.8492 20.9321L53.0243 17.3727C53.1151 17.3261 53.223 17.2713 53.3423 17.2147L55.0565 20.8288ZM54.7348 20.9863C52.266 22.0606 49.8932 23.7734 49.0704 26.5884L45.231 25.4661C46.5483 20.9598 50.2508 18.5753 53.1387 17.3185L54.7348 20.9863ZM49.0581 26.6286C49.0038 26.8008 48.8053 27.4622 48.7299 27.7126L44.8999 26.5588C44.9671 26.3356 45.1787 25.6305 45.2433 25.4258L49.0581 26.6286ZM48.7332 27.7014C48.7277 27.7203 48.7243 27.7319 48.7228 27.7371C48.722 27.7401 48.7228 27.7373 48.7246 27.7308C48.7254 27.7276 48.7275 27.72 48.7302 27.7096C48.7315 27.7043 48.7336 27.6963 48.736 27.6865C48.7382 27.6774 48.742 27.6616 48.7463 27.6416L44.8387 26.787C44.8513 26.7292 44.865 26.6802 44.8652 26.6796C44.8693 26.6645 44.8732 26.6505 44.8762 26.6401C44.8823 26.6185 44.8894 26.5942 44.8966 26.5701L48.7332 27.7014ZM48.7126 27.774C48.5025 28.4947 48.3875 28.9542 48.3304 29.2548C48.269 29.5777 48.3047 29.5713 48.2822 29.425C48.2674 29.3289 48.2345 29.2126 48.1763 29.094C48.1223 28.9837 48.0685 28.9172 48.0651 28.9129C48.0648 28.9126 48.0706 28.9198 48.0937 28.9462C48.107 28.9615 48.1549 29.0158 48.1882 29.0544C48.2715 29.1509 48.384 29.2858 48.5047 29.4578L45.2303 31.7553C45.1195 31.5974 45.2484 31.7926 44.9501 31.4222C44.7043 31.1172 44.4273 30.6744 44.3287 30.033C44.2472 29.5034 44.3115 28.9774 44.4008 28.5075C44.4944 28.0153 44.6524 27.4092 44.8724 26.6545L48.7126 27.774ZM48.469 29.4085C48.5342 29.4957 48.5814 29.5718 48.6039 29.6088C48.616 29.6286 48.6265 29.6462 48.6312 29.6543C48.6379 29.6656 48.6375 29.6648 48.637 29.664L45.2106 31.728C45.201 31.7121 45.1914 31.6958 45.189 31.6918C45.1847 31.6844 45.1859 31.6866 45.1888 31.6912C45.1919 31.6964 45.2001 31.7098 45.212 31.7278C45.2239 31.7458 45.2421 31.7726 45.2661 31.8046L48.469 29.4085ZM48.617 29.6316C49.2772 30.6818 50.144 32.5999 50.504 33.374L46.8771 35.0608C46.4458 34.1336 45.7183 32.5362 45.2306 31.7604L48.617 29.6316ZM50.5004 33.3664C50.4821 33.3275 50.4657 33.2989 50.4546 33.2809C50.4434 33.2628 50.4358 33.2525 50.4341 33.2503C50.4324 33.2479 50.4348 33.2514 50.4429 33.2607C50.451 33.27 50.4633 33.2837 50.4808 33.3017L47.6071 36.0842C47.3738 35.8432 47.0845 35.502 46.8807 35.0685L50.5004 33.3664ZM50.4582 33.2787L50.5424 33.363L47.714 36.1914L47.6297 36.1071L50.4582 33.2787ZM66.9847 17.7242C66.9569 17.8322 66.9401 17.9006 66.9087 18.0238L63.0327 17.0356C63.0527 16.9571 63.0851 16.8276 63.1109 16.7271L66.9847 17.7242ZM66.8958 18.0719C66.3374 20.0545 65.9063 21.9143 65.4178 23.7991C64.9429 25.631 64.4249 27.4372 63.7307 29.0574L60.054 27.4821C60.6223 26.1555 61.0792 24.595 61.5458 22.7953C61.9986 21.0485 62.4754 19.0117 63.0456 16.9875L66.8958 18.0719ZM63.6765 29.1734C63.2594 29.997 62.7951 30.7917 62.2804 31.516L59.0198 29.1991C59.3958 28.6699 59.7603 28.0528 60.1081 27.3661L63.6765 29.1734ZM62.3215 31.4559C61.6405 32.4922 60.9405 33.3334 60.0774 34.015C59.2096 34.7003 58.2757 35.1461 57.2331 35.516L55.8956 31.7463C56.6859 31.4659 57.186 31.2015 57.5984 30.8758C58.0154 30.5465 58.4419 30.076 58.9787 29.2592L62.3215 31.4559ZM57.235 35.5154C55.9992 35.9552 54.4217 36.0635 53.0695 35.8702C52.3822 35.772 51.6384 35.5804 50.973 35.2294C50.3163 34.8829 49.5547 34.2794 49.201 33.286L52.9694 31.9445C52.8681 31.66 52.6971 31.6164 52.8394 31.6915C52.973 31.762 53.2366 31.8535 53.6354 31.9105C54.4556 32.0277 55.3653 31.935 55.8937 31.7469L57.235 35.5154ZM49.2007 33.2852C48.9471 32.5718 48.7402 32.1301 48.5844 31.861C48.4302 31.595 48.3605 31.5581 48.4035 31.5919L50.8724 28.4447C51.7786 29.1556 52.3955 30.3302 52.9696 31.9453L49.2007 33.2852ZM48.4065 31.5942C48.4306 31.6131 48.4707 31.6391 48.5231 31.6623C48.5741 31.6849 48.6126 31.694 48.6231 31.6962C48.627 31.697 48.6083 31.6928 48.5314 31.6855C48.4919 31.6817 48.4527 31.6785 48.3923 31.6733C48.3371 31.6686 48.2673 31.6626 48.1926 31.6549L48.6041 27.6761C48.7788 27.6941 49.892 27.6785 50.8695 28.4424L48.4065 31.5942ZM48.2559 31.6604C48.1644 31.6539 48.0808 31.6428 48.0345 31.6363C47.9799 31.6287 47.9274 31.6204 47.8861 31.6137C47.844 31.6068 47.806 31.6003 47.7817 31.5962C47.7678 31.5938 47.7618 31.5928 47.758 31.5921C47.7562 31.5918 47.7592 31.5923 47.7647 31.5932C47.7675 31.5936 47.7736 31.5946 47.7816 31.5958C47.7876 31.5967 47.8056 31.5994 47.8291 31.6023L48.32 27.6325C48.3446 27.6356 48.3641 27.6384 48.3721 27.6396C48.382 27.6411 48.3904 27.6424 48.3958 27.6433C48.4065 27.645 48.416 27.6466 48.4219 27.6476C48.4336 27.6496 48.4479 27.652 48.4578 27.6537C48.4812 27.6577 48.5052 27.6618 48.5298 27.6658C48.5552 27.67 48.5742 27.6729 48.5863 27.6745C48.592 27.6753 48.5921 27.6753 48.5877 27.6748C48.5848 27.6745 48.5676 27.6725 48.5409 27.6706L48.2559 31.6604ZM46.0921 29.8822C45.9148 28.5553 46.0753 27.4001 46.2652 26.4501L50.1876 27.2345C50.036 27.9922 49.9635 28.6534 50.0569 29.3525L46.0921 29.8822ZM46.2652 26.4504C47.195 21.7969 51.2624 19.1575 54.9384 17.6123C58.6853 16.0374 62.8006 15.2857 64.6953 14.8432L65.605 18.7384C63.4534 19.2409 59.8301 19.8952 56.4884 21.2998C53.0757 22.7343 50.7044 24.6481 50.1876 27.2342L46.2652 26.4504ZM67.0913 17.2726C67.0594 17.4009 67.0363 17.4985 67.0219 17.5612C67.0146 17.5928 67.0099 17.614 67.0075 17.6247C67.0062 17.6308 67.0063 17.6304 67.0073 17.6254C67.0076 17.6243 67.0097 17.614 67.0125 17.5996C67.0134 17.5947 67.0174 17.5738 67.0218 17.5467C67.0235 17.5364 67.0294 17.5005 67.0347 17.4542C67.037 17.4342 67.043 17.3804 67.046 17.3112C67.0474 17.2777 67.0495 17.2113 67.0454 17.1277C67.0431 17.088 67.0345 16.9955 67.0277 16.9428C67.0159 16.8697 66.9752 16.6915 66.9433 16.5876L63.1523 17.8637C63.0612 17.5931 63.0523 17.367 63.0502 17.3236C63.0461 17.2399 63.0482 17.1735 63.0496 17.1399C63.0526 17.0707 63.0586 17.0168 63.0609 16.9967C63.0663 16.9502 63.0722 16.9141 63.0739 16.9035C63.0784 16.8757 63.0826 16.8538 63.0838 16.8477C63.087 16.8307 63.09 16.8166 63.0912 16.8106C63.0943 16.7958 63.0975 16.7808 63.1004 16.7678C63.1064 16.7403 63.1144 16.7049 63.1241 16.6627C63.1437 16.5776 63.172 16.4584 63.2091 16.309L67.0913 17.2726ZM80.191 9.56934C80.5916 10.09 80.8387 10.6888 80.9575 11.308L77.0292 12.0618C77.0213 12.0209 77.0129 11.9996 77.0103 11.9935C77.0078 11.9879 77.0101 11.9946 77.0207 12.0084L80.191 9.56934ZM80.9599 11.3204C81.1326 12.2526 80.9823 13.2021 80.577 14.0179L76.9947 12.2383C77.03 12.1673 77.0354 12.0957 77.0268 12.0494L80.9599 11.3204ZM80.5762 14.0196C80.044 15.0884 79.0813 16.1357 77.5368 17.2333C75.9883 18.3338 73.7507 19.5581 70.5178 20.9457L68.9401 17.27C72.0304 15.9436 73.9875 14.8485 75.2197 13.9728C76.4558 13.0943 76.86 12.5088 76.9955 12.2367L80.5762 14.0196ZM67.8501 18.4223C68.0731 17.8111 68.2673 17.2812 68.339 17.072L72.1226 18.3698C72.0343 18.6274 71.8182 19.2167 71.6078 19.7934L67.8501 18.4223ZM68.3346 17.0852C69.5002 13.6083 71.3572 11.1761 72.6894 9.84035L75.5215 12.665C74.5574 13.6318 73.0684 15.549 72.1271 18.3567L68.3346 17.0852ZM72.8055 9.73281C74.6971 8.11485 77.3038 7.36071 79.3146 8.74095L77.051 12.0388C77.0998 12.0723 77.0317 11.9929 76.737 12.0469C76.4415 12.1011 75.9712 12.2887 75.4054 12.7726L72.8055 9.73281ZM79.3621 8.77454C79.546 8.90885 79.716 9.05472 79.872 9.21074L77.0436 12.0392C77.0334 12.029 77.0205 12.0176 77.0035 12.0052L79.3621 8.77454ZM79.872 9.21074C79.9783 9.31706 80.07 9.4209 80.1482 9.51561L77.0635 12.0621C77.049 12.0445 77.0428 12.0384 77.0436 12.0392L79.872 9.21074Z" fill="white" mask="url(#path-5-inside-3_507_164)"/>
<mask id="path-7-inside-4_507_164" fill="white">
<path d="M35.7054 35.8718C36.4922 35.0609 37.4143 33.4592 38.2063 32.4962C38.4588 32.1902 38.6232 31.9234 38.7288 31.6851C39.0377 30.9875 38.8336 30.5323 38.7723 30.0549C38.7359 29.7742 38.7723 29.6406 38.8587 29.503C38.8609 29.4999 38.8636 29.4973 38.8643 29.4942C39.4131 28.339 38.9605 23.8612 35.1255 20.8953C34.7606 20.5926 34.3645 20.3385 33.9555 20.1109C29.8598 17.6782 22.696 16.0866 20.7698 15.5281C20.1226 13.8729 18.8343 10.4335 16.9514 7.86443C16.8901 7.77429 16.4613 7.17999 16.0383 6.74636C14.9514 5.56693 13.7022 4.7458 12.2967 4.66406C12.288 4.66295 12.0283 4.65445 12.0169 4.6545C11.3492 4.66151 10.7397 4.85056 10.2124 5.12476L10.212 5.12514C9.40241 5.45105 9.10499 6.01894 8.7591 6.50571C8.45974 6.58056 8.17804 6.689 7.91212 6.82005C6.30755 7.60492 5.30012 9.27005 5.02086 10.244C4.45184 11.3547 4.559 12.2277 5.07707 13.2255C5.54956 14.1815 6.63815 16.0101 9.63314 17.3307C10.9427 17.8858 13.1573 18.5884 16.4437 19.5415L16.4637 19.5471C17.2852 22.2373 19.1257 29.0844 19.95 30.8006C19.9932 30.8916 20.0367 30.9776 20.0806 31.0633C21.2462 33.7416 23.2948 36.7793 26.9555 37.8493C27.1439 37.9087 27.8271 38.1138 28.064 38.1851C28.107 38.1978 28.1357 38.206 28.1425 38.2075C31.0931 39.0677 30.7671 38.6711 31.5348 38.1325C31.5617 38.1124 31.5939 38.0945 31.6242 38.0762C32.5372 37.5022 34.295 36.7051 35.1457 36.3094C35.2964 36.2386 35.4549 36.117 35.6211 35.9561L35.7054 35.8718ZM18.1539 19.9522C18.2581 19.979 18.3571 20.0036 18.4579 20.0293C22.4647 21.1578 26.2512 21.8451 29.198 23.1077C29.9531 23.4901 30.659 23.9046 31.2858 24.3499C33.1389 25.5677 33.909 26.6028 34.5594 28.4357C35.1873 30.1998 34.9613 33.4101 33.5435 33.9148C31.984 34.4692 31.2839 34.932 30.9465 35.362C30.6232 35.7757 30.6396 36.1579 30.5937 36.6016C30.5869 36.6966 30.548 36.9066 30.5456 36.9255C29.5325 37.0608 28.6244 36.9443 27.7705 36.7736C20.531 35.327 18.664 23.8962 17.719 19.8498C17.9967 19.9187 18.1527 19.9526 18.1539 19.9522ZM11.7171 6.39415C11.962 6.2057 12.2635 6.07375 12.6131 6.00666C13.1023 5.91598 13.6129 5.99388 14.0563 6.21418C15.3973 6.88185 17.3221 8.94783 20.0361 15.271C19.4421 15.0543 18.8825 14.8492 18.6492 14.7692C15.5069 13.7157 13.3321 12.0427 12.1809 10.8945C10.8482 9.3364 10.6733 7.75656 11.3181 6.81721C11.3915 6.71674 11.4701 6.62534 11.5532 6.54222C11.6059 6.48947 11.6609 6.44049 11.7171 6.39415"/>
</mask>
<path d="M35.7054 35.8718L37.1408 37.2645L37.1303 37.2754L37.1196 37.286L35.7054 35.8718ZM38.2063 32.4962L36.6615 31.2259L36.6637 31.2232L38.2063 32.4962ZM38.7288 31.6851L40.5576 32.4948L40.5571 32.4958L38.7288 31.6851ZM38.7723 30.0549L40.7557 29.7979L40.756 29.7999L38.7723 30.0549ZM38.8587 29.503L37.1646 28.4398L37.2094 28.3686L37.2599 28.3013L38.8587 29.503ZM38.8643 29.4942L36.9257 29.0028L36.9738 28.813L37.0578 28.6361L38.8643 29.4942ZM35.1255 20.8953L33.9019 22.4773L33.8749 22.4565L33.8486 22.4347L35.1255 20.8953ZM33.9555 20.1109L32.983 21.8585L32.9584 21.8448L32.9342 21.8304L33.9555 20.1109ZM20.7698 15.5281L20.2128 17.449L19.2661 17.1745L18.9071 16.2564L20.7698 15.5281ZM16.9514 7.86443L15.3383 9.04671L15.3174 9.01825L15.2976 8.98907L16.9514 7.86443ZM16.0383 6.74636L14.6066 8.14293L14.5868 8.12257L14.5675 8.10166L16.0383 6.74636ZM12.2967 4.66406L12.1806 6.66068L12.1127 6.65673L12.0452 6.64817L12.2967 4.66406ZM12.0169 4.6545L11.9959 2.65456L12.0095 2.65451L12.0169 4.6545ZM10.2124 5.12476L8.79817 3.71055L9.01619 3.49253L9.28974 3.3503L10.2124 5.12476ZM10.212 5.12514L11.6262 6.53935L11.3376 6.82801L10.9589 6.98045L10.212 5.12514ZM8.7591 6.50571L10.3894 7.66417L9.96129 8.26671L9.24419 8.44599L8.7591 6.50571ZM7.91212 6.82005L8.79627 8.61402L8.79091 8.61664L7.91212 6.82005ZM5.02086 10.244L6.94339 10.7952L6.88969 10.9825L6.80087 11.1559L5.02086 10.244ZM5.07707 13.2255L6.85207 12.3039L6.86123 12.3215L6.87004 12.3393L5.07707 13.2255ZM9.63314 17.3307L8.85261 19.1721L8.83939 19.1665L8.82625 19.1607L9.63314 17.3307ZM16.4437 19.5415L15.9054 21.4677L15.896 21.4651L15.8866 21.4623L16.4437 19.5415ZM16.4637 19.5471L17.002 17.6209L18.0567 17.9156L18.3765 18.963L16.4637 19.5471ZM19.95 30.8006L21.7529 29.9346L21.7571 29.9435L19.95 30.8006ZM20.0806 31.0633L21.8603 30.1508L21.8892 30.2071L21.9145 30.2652L20.0806 31.0633ZM26.9555 37.8493L27.5166 35.9296L27.5368 35.9355L27.5569 35.9419L26.9555 37.8493ZM28.064 38.1851L27.4983 40.1035L27.4871 40.1001L28.064 38.1851ZM28.1425 38.2075L28.5698 36.2537L28.6366 36.2683L28.7023 36.2874L28.1425 38.2075ZM31.5348 38.1325L32.7329 39.7339L32.7085 39.7522L32.6835 39.7697L31.5348 38.1325ZM31.6242 38.0762L32.6887 39.7694L32.6725 39.7796L32.6562 39.7894L31.6242 38.0762ZM35.1457 36.3094L35.9968 38.1193L35.9891 38.1229L35.1457 36.3094ZM35.6211 35.9561L37.0354 37.3703L37.024 37.3817L37.0124 37.3929L35.6211 35.9561ZM18.1539 19.9522L17.5158 18.0567L18.078 17.8675L18.6524 18.0153L18.1539 19.9522ZM18.4579 20.0293L18.952 18.0913L18.9762 18.0975L19.0001 18.1042L18.4579 20.0293ZM29.198 23.1077L29.9856 21.2693L30.0445 21.2945L30.1016 21.3235L29.198 23.1077ZM31.2858 24.3499L30.1874 26.0213L30.157 26.0013L30.1273 25.9802L31.2858 24.3499ZM34.5594 28.4357L32.6752 29.1063L32.6745 29.1044L34.5594 28.4357ZM33.5435 33.9148L34.2142 35.799L34.2134 35.7993L33.5435 33.9148ZM30.9465 35.362L29.3707 34.1305L29.373 34.1276L30.9465 35.362ZM30.5937 36.6016L28.5988 36.4591L28.601 36.4275L28.6043 36.3959L30.5937 36.6016ZM30.5456 36.9255L32.5305 37.1709L32.341 38.7034L30.8105 38.9079L30.5456 36.9255ZM27.7705 36.7736L28.1624 34.8124L28.1627 34.8124L27.7705 36.7736ZM17.719 19.8498L15.7714 20.3047L15.028 17.1212L18.2008 17.9087L17.719 19.8498ZM12.6131 6.00666L12.2362 4.04245L12.2486 4.04015L12.6131 6.00666ZM14.0563 6.21418L14.9462 4.42303L14.9478 4.42384L14.0563 6.21418ZM20.0361 15.271L21.8739 14.4822L23.7001 18.7369L19.3505 17.1499L20.0361 15.271ZM18.6492 14.7692L19.2849 12.8728L19.2981 12.8774L18.6492 14.7692ZM12.1809 10.8945L10.7686 12.3106L10.7125 12.2547L10.661 12.1945L12.1809 10.8945ZM11.3181 6.81721L9.66917 5.6854L9.68562 5.66143L9.70276 5.63795L11.3181 6.81721ZM34.27 34.4791C34.526 34.2153 34.8602 33.7559 35.306 33.1077C35.7009 32.5335 36.1954 31.7927 36.6615 31.2259L39.751 33.7666C39.4252 34.1627 39.0627 34.7042 38.6018 35.3743C38.1919 35.9704 37.6716 36.7174 37.1408 37.2645L34.27 34.4791ZM36.6637 31.2232C36.8251 31.0277 36.8828 30.9143 36.9004 30.8745L40.5571 32.4958C40.3635 32.9325 40.0926 33.3526 39.7488 33.7692L36.6637 31.2232ZM36.9 30.8755C36.9099 30.853 36.9038 30.861 36.8989 30.8921C36.894 30.923 36.8955 30.9443 36.8953 30.9409C36.8942 30.9271 36.8905 30.8944 36.8699 30.7862C36.8625 30.7468 36.8455 30.6601 36.8331 30.5922C36.819 30.5147 36.8025 30.4177 36.7886 30.31L40.756 29.7999C40.7614 29.8424 40.7687 29.8767 40.7997 30.0397C40.825 30.1729 40.8645 30.387 40.8835 30.6339C40.9259 31.1856 40.8608 31.8099 40.5576 32.4948L36.9 30.8755ZM36.7889 30.312C36.7561 30.0591 36.7362 29.733 36.8008 29.3726C36.8717 28.9766 37.0206 28.6693 37.1646 28.4398L40.5527 30.5661C40.5752 30.5303 40.614 30.4635 40.6519 30.3718C40.6911 30.2769 40.7203 30.1775 40.7381 30.0779C40.772 29.8889 40.7521 29.77 40.7557 29.7979L36.7889 30.312ZM37.2599 28.3013C37.2834 28.27 37.306 28.2423 37.3003 28.2494C37.3001 28.2496 37.2984 28.2517 37.2962 28.2544C37.294 28.2573 37.2905 28.2617 37.2862 28.2671C37.278 28.2776 37.2644 28.2952 37.2481 28.3175C37.201 28.3818 37.0204 28.6291 36.9257 29.0028L40.803 29.9857C40.7075 30.3624 40.5252 30.6126 40.476 30.6797C40.4592 30.7027 40.4451 30.721 40.4363 30.7322C40.4279 30.743 40.421 30.7516 40.4205 30.7522C40.4137 30.7607 40.435 30.7344 40.4574 30.7046L37.2599 28.3013ZM37.0578 28.6361C36.9889 28.7812 37.073 28.6699 37.0526 28.1604C37.035 27.7225 36.9445 27.1401 36.7343 26.4842C36.3156 25.178 35.4551 23.6785 33.9019 22.4773L36.349 19.3132C38.6309 21.078 39.9142 23.3004 40.5434 25.2633C40.8571 26.2421 41.0165 27.181 41.0494 28.0003C41.0793 28.748 41.0142 29.6296 40.6709 30.3524L37.0578 28.6361ZM33.8486 22.4347C33.6062 22.2336 33.3211 22.0467 32.983 21.8585L34.928 18.3633C35.4079 18.6303 35.9149 18.9517 36.4023 19.3559L33.8486 22.4347ZM32.9342 21.8304C31.1054 20.7442 28.4853 19.7942 25.9684 19.0305C24.7299 18.6547 23.5522 18.3344 22.5561 18.0714C21.5909 17.8165 20.7248 17.5974 20.2128 17.449L21.3267 13.6072C21.7779 13.738 22.5296 13.9273 23.5773 14.2039C24.5942 14.4724 25.8246 14.8068 27.1298 15.2028C29.7002 15.9828 32.7099 17.0449 34.9768 18.3913L32.9342 21.8304ZM18.9071 16.2564C18.2339 14.5347 17.0362 11.3633 15.3383 9.04671L18.5645 6.68215C20.6324 9.50359 22.0112 13.211 22.6324 14.7997L18.9071 16.2564ZM15.2976 8.98907C15.2985 8.99044 15.2041 8.85649 15.0563 8.66787C14.9089 8.47981 14.7462 8.28605 14.6066 8.14293L17.4699 5.3498C18.0085 5.90191 18.5122 6.60299 18.6052 6.73979L15.2976 8.98907ZM14.5675 8.10166C13.6498 7.10572 12.851 6.69967 12.1806 6.66068L12.4128 2.66743C14.5535 2.79192 16.2531 4.02814 17.5091 5.39107L14.5675 8.10166ZM12.0452 6.64817C12.059 6.64993 12.0709 6.65129 12.08 6.65228C12.0893 6.65329 12.0974 6.65411 12.104 6.65475C12.1169 6.65599 12.1275 6.65689 12.1347 6.65747C12.1422 6.65808 12.1486 6.65855 12.1534 6.6589C12.1583 6.65924 12.1625 6.65953 12.1658 6.65974C12.1723 6.66016 12.1776 6.66047 12.181 6.66066C12.1845 6.66086 12.1874 6.66101 12.1893 6.66112C12.1932 6.66131 12.1958 6.66143 12.1967 6.66148C12.1978 6.66152 12.1982 6.66154 12.1978 6.66153C12.197 6.66149 12.1948 6.6614 12.1909 6.66125C12.1872 6.6611 12.1826 6.66093 12.1771 6.66073C12.1546 6.6599 12.1236 6.65882 12.0909 6.65773C12.0585 6.65664 12.0264 6.6556 12.0023 6.65486C11.99 6.65448 11.9811 6.65421 11.9757 6.65406C11.9728 6.65398 11.9726 6.65398 11.9742 6.65402C11.9749 6.65403 11.9781 6.65411 11.9826 6.65419C11.9849 6.65423 11.9891 6.6543 11.9944 6.65436C11.9971 6.6544 12.0009 6.65443 12.0054 6.65446C12.0096 6.65449 12.0163 6.65451 12.0244 6.65448L12.0095 2.65451C12.0643 2.65431 12.194 2.65894 12.2247 2.65997C12.2595 2.66113 12.2957 2.66238 12.3248 2.66345C12.3388 2.66397 12.354 2.66455 12.3675 2.66513C12.3737 2.66539 12.3839 2.66583 12.3952 2.66642C12.4004 2.66668 12.4112 2.66726 12.4246 2.66812C12.4311 2.66854 12.4429 2.66934 12.4576 2.67052C12.4662 2.67122 12.5024 2.67412 12.5483 2.67994L12.0452 6.64817ZM12.038 6.65438C11.7409 6.65751 11.4387 6.74135 11.135 6.89923L9.28974 3.3503C10.0408 2.95978 10.9575 2.66552 11.9959 2.65461L12.038 6.65438ZM11.6266 6.53897L11.6262 6.53935L8.79779 3.71093L8.79817 3.71055L11.6266 6.53897ZM10.9589 6.98045C10.8779 7.01307 10.8454 7.04052 10.7995 7.09164C10.7653 7.1297 10.7219 7.18463 10.6541 7.28106C10.6194 7.33041 10.585 7.38091 10.5397 7.44724C10.4976 7.50896 10.4451 7.58579 10.3894 7.66417L7.12877 5.34725C7.34227 5.0468 7.98996 3.86367 9.46514 3.26983L10.9589 6.98045ZM9.24419 8.44599C9.10017 8.482 8.95201 8.53725 8.79627 8.61401L7.02797 5.0261C7.40407 4.84074 7.81931 4.67911 8.27401 4.56543L9.24419 8.44599ZM8.79091 8.61664C8.33353 8.84037 7.90751 9.22006 7.55715 9.67741C7.19974 10.1439 7.00455 10.5819 6.94339 10.7952L3.09833 9.69269C3.49662 8.30368 4.81108 6.11046 7.03334 5.02346L8.79091 8.61664ZM6.80087 11.1559C6.64281 11.4644 6.63638 11.6185 6.63951 11.6924C6.64344 11.7851 6.6742 11.9613 6.85207 12.3039L3.30208 14.1471C2.96187 13.4919 2.68001 12.7327 2.6431 11.8618C2.60539 10.972 2.82989 10.1342 3.24085 9.33206L6.80087 11.1559ZM6.87004 12.3393C7.19735 13.0016 7.98796 14.4195 10.44 15.5007L8.82625 19.1607C5.28834 17.6007 3.90177 15.3614 3.2841 14.1116L6.87004 12.3393ZM10.4137 15.4893C11.5961 15.9905 13.6965 16.6624 17.0008 17.6206L15.8866 21.4623C12.6181 20.5144 10.2894 19.7811 8.85261 19.1721L10.4137 15.4893ZM16.9819 17.6153L17.002 17.6209L15.9255 21.4733L15.9054 21.4677L16.9819 17.6153ZM18.3765 18.963C18.7881 20.311 19.4749 22.7673 20.1244 24.9745C20.812 27.3107 21.4283 29.259 21.7528 29.9347L18.1472 31.6665C17.6474 30.626 16.9313 28.2926 16.2872 26.1037C15.605 23.7857 14.9608 21.4734 14.5509 20.1312L18.3765 18.963ZM21.7571 29.9435C21.7867 30.0061 21.819 30.0703 21.8603 30.1508L18.3009 31.9757C18.2543 31.8849 18.1996 31.777 18.143 31.6577L21.7571 29.9435ZM21.9145 30.2652C22.9889 32.734 24.7016 35.1068 27.5166 35.9296L26.3943 39.769C21.8881 38.4517 19.5035 34.7492 18.2467 31.8613L21.9145 30.2652ZM27.5569 35.9419C27.7291 35.9962 28.3904 36.1947 28.6408 36.2701L27.4871 40.1001C27.2639 40.0329 26.5588 39.8213 26.3541 39.7567L27.5569 35.9419ZM28.6296 36.2668C28.6485 36.2723 28.6601 36.2757 28.6654 36.2772C28.6684 36.278 28.6655 36.2772 28.659 36.2754C28.6559 36.2746 28.6482 36.2725 28.6378 36.2698C28.6325 36.2685 28.6245 36.2664 28.6147 36.264C28.6056 36.2618 28.5898 36.258 28.5698 36.2537L27.7152 40.1613C27.6574 40.1487 27.6084 40.135 27.6078 40.1348C27.5927 40.1307 27.5787 40.1268 27.5683 40.1238C27.5467 40.1177 27.5224 40.1106 27.4983 40.1034L28.6296 36.2668ZM28.7023 36.2874C29.4229 36.4975 29.8824 36.6125 30.183 36.6696C30.5059 36.731 30.4996 36.6953 30.3532 36.7178C30.2572 36.7326 30.1409 36.7655 30.0222 36.8237C29.9119 36.8777 29.8454 36.9315 29.8412 36.9349C29.8408 36.9352 29.848 36.9294 29.8744 36.9063C29.8897 36.893 29.9441 36.8451 29.9826 36.8118C30.0791 36.7285 30.214 36.616 30.3861 36.4953L32.6835 39.7697C32.5256 39.8805 32.7208 39.7516 32.3504 40.0499C32.0454 40.2957 31.6026 40.5727 30.9612 40.6713C30.4316 40.7528 29.9056 40.6885 29.4357 40.5992C28.9436 40.5056 28.3374 40.3476 27.5827 40.1276L28.7023 36.2874ZM30.3367 36.531C30.4239 36.4658 30.5 36.4186 30.537 36.3961C30.5568 36.384 30.5745 36.3735 30.5825 36.3688C30.5938 36.3621 30.593 36.3625 30.5923 36.363L32.6562 39.7894C32.6403 39.799 32.6241 39.8086 32.62 39.811C32.6126 39.8153 32.6148 39.8141 32.6195 39.8112C32.6246 39.8081 32.638 39.7999 32.656 39.788C32.674 39.7761 32.7008 39.7579 32.7329 39.7339L30.3367 36.531ZM30.5598 36.383C31.61 35.7228 33.5282 34.856 34.3023 34.496L35.9891 38.1229C35.0618 38.5542 33.4644 39.2817 32.6887 39.7694L30.5598 36.383ZM34.2946 34.4996C34.2557 34.5179 34.2271 34.5343 34.2091 34.5454C34.191 34.5566 34.1808 34.5642 34.1785 34.5659C34.1761 34.5676 34.1796 34.5652 34.189 34.5571C34.1983 34.549 34.2119 34.5367 34.2299 34.5192L37.0124 37.3929C36.7714 37.6262 36.4302 37.9155 35.9967 38.1193L34.2946 34.4996ZM34.2069 34.5418L34.2912 34.4576L37.1196 37.286L37.0354 37.3703L34.2069 34.5418ZM18.6524 18.0153C18.7604 18.0431 18.8288 18.0599 18.952 18.0913L17.9638 21.9673C17.8853 21.9473 17.7558 21.9149 17.6553 21.8891L18.6524 18.0153ZM19.0001 18.1042C20.9827 18.6626 22.8426 19.0937 24.7273 19.5822C26.5592 20.0571 28.3654 20.5751 29.9856 21.2693L28.4103 24.946C27.0837 24.3777 25.5233 23.9208 23.7236 23.4542C21.9767 23.0014 19.94 22.5246 17.9157 21.9544L19.0001 18.1042ZM30.1016 21.3235C30.9252 21.7406 31.7199 22.2049 32.4442 22.7196L30.1273 25.9802C29.5982 25.6042 28.9811 25.2397 28.2943 24.8919L30.1016 21.3235ZM32.3842 22.6785C33.4205 23.3595 34.2616 24.0595 34.9432 24.9226C35.6285 25.7904 36.0743 26.7243 36.4442 27.7669L32.6745 29.1044C32.3941 28.3141 32.1297 27.814 31.804 27.4016C31.4747 26.9846 31.0042 26.5581 30.1874 26.0213L32.3842 22.6785ZM36.4436 27.765C36.8834 29.0008 36.9917 30.5783 36.7985 31.9305C36.7002 32.6178 36.5086 33.3616 36.1576 34.027C35.8112 34.6837 35.2076 35.4453 34.2142 35.799L32.8727 32.0306C32.5882 32.1319 32.5447 32.3029 32.6197 32.1606C32.6902 32.027 32.7817 31.7634 32.8387 31.3646C32.9559 30.5444 32.8632 29.6347 32.6752 29.1063L36.4436 27.765ZM34.2134 35.7993C33.5 36.0529 33.0583 36.2598 32.7892 36.4156C32.5232 36.5698 32.4864 36.6395 32.5201 36.5965L29.373 34.1276C30.0838 33.2214 31.2585 32.6045 32.8735 32.0304L34.2134 35.7993ZM32.5224 36.5935C32.5413 36.5694 32.5674 36.5293 32.5905 36.4769C32.6131 36.4259 32.6222 36.3874 32.6244 36.3769C32.6252 36.373 32.621 36.3917 32.6137 36.4686C32.6099 36.5081 32.6067 36.5473 32.6016 36.6077C32.5968 36.6629 32.5908 36.7327 32.5831 36.8074L28.6043 36.3959C28.6224 36.2212 28.6067 35.108 29.3707 34.1305L32.5224 36.5935ZM32.5886 36.7441C32.5821 36.8356 32.571 36.9192 32.5645 36.9655C32.5569 37.0201 32.5487 37.0726 32.5419 37.1139C32.5351 37.156 32.5285 37.194 32.5244 37.2183C32.522 37.2322 32.521 37.2382 32.5203 37.242C32.52 37.2438 32.5205 37.2408 32.5214 37.2353C32.5219 37.2325 32.5228 37.2264 32.524 37.2184C32.5249 37.2124 32.5276 37.1944 32.5305 37.1709L28.5607 36.68C28.5638 36.6554 28.5667 36.6359 28.5678 36.6279C28.5693 36.618 28.5707 36.6096 28.5715 36.6042C28.5732 36.5935 28.5748 36.584 28.5758 36.5781C28.5778 36.5664 28.5802 36.5521 28.5819 36.5422C28.586 36.5188 28.59 36.4948 28.5941 36.4702C28.5982 36.4448 28.6011 36.4258 28.6028 36.4137C28.6036 36.408 28.6035 36.4079 28.603 36.4123C28.6027 36.4152 28.6007 36.4324 28.5988 36.4591L32.5886 36.7441ZM30.8105 38.9079C29.4835 39.0851 28.3283 38.9247 27.3783 38.7348L28.1627 34.8124C28.9205 34.9639 29.5816 35.0365 30.2808 34.9431L30.8105 38.9079ZM27.3786 38.7348C22.7251 37.805 20.0857 33.7376 18.5406 30.0616C16.9656 26.3147 16.2139 22.1994 15.7714 20.3047L19.6666 19.395C20.1691 21.5466 20.8234 25.1699 22.2281 28.5116C23.6625 31.9243 25.5763 34.2956 28.1624 34.8124L27.3786 38.7348ZM18.2008 17.9087C18.3291 17.9406 18.4267 17.9637 18.4894 17.9781C18.521 17.9854 18.5422 17.9901 18.553 17.9925C18.559 17.9938 18.5586 17.9937 18.5536 17.9927C18.5526 17.9924 18.5422 17.9903 18.5278 17.9875C18.5229 17.9866 18.502 17.9826 18.4749 17.9782C18.4646 17.9765 18.4287 17.9706 18.3825 17.9653C18.3624 17.963 18.3086 17.957 18.2395 17.954C18.206 17.9526 18.1396 17.9505 18.0559 17.9546C18.0162 17.9569 17.9237 17.9655 17.871 17.9723C17.7979 17.9841 17.6198 18.0248 17.5158 18.0567L18.7919 21.8477C18.5214 21.9388 18.2952 21.9477 18.2518 21.9498C18.1681 21.9539 18.1017 21.9518 18.0681 21.9504C17.9989 21.9474 17.9451 21.9414 17.9249 21.9391C17.8784 21.9337 17.8423 21.9278 17.8317 21.9261C17.8039 21.9216 17.782 21.9174 17.7759 21.9162C17.7589 21.913 17.7448 21.91 17.7388 21.9088C17.7241 21.9057 17.7091 21.9025 17.696 21.8996C17.6685 21.8936 17.6331 21.8856 17.5909 21.8759C17.5059 21.8563 17.3866 21.828 17.2372 21.7909L18.2008 17.9087ZM10.4976 4.80897C11.0182 4.40841 11.617 4.16131 12.2362 4.04249L12.99 7.97082C12.9491 7.97868 12.9278 7.98708 12.9217 7.98971C12.9161 7.99216 12.9228 7.98991 12.9366 7.97933L10.4976 4.80897ZM12.2486 4.04015C13.1808 3.86739 14.1303 4.01772 14.9462 4.42303L13.1665 8.00534C13.0955 7.97005 13.0239 7.96458 12.9776 7.97317L12.2486 4.04015ZM14.9478 4.42384C16.0166 4.95602 17.0639 5.91867 18.1616 7.46323C19.262 9.01175 20.4863 11.2493 21.8739 14.4822L18.1982 16.0599C16.8718 12.9696 15.7767 11.0125 14.901 9.78034C14.0226 8.54418 13.437 8.14002 13.1649 8.00453L14.9478 4.42384ZM19.3505 17.1499C18.7393 16.9269 18.2094 16.7327 18.0003 16.661L19.2981 12.8774C19.5557 12.9657 20.1449 13.1818 20.7216 13.3922L19.3505 17.1499ZM18.0134 16.6654C14.5365 15.4998 12.1043 13.6428 10.7686 12.3106L13.5933 9.47846C14.56 10.4426 16.4772 11.9316 19.2849 12.8729L18.0134 16.6654ZM10.661 12.1945C9.04308 10.3029 8.28894 7.69625 9.66917 5.6854L12.967 7.94903C13.0006 7.90021 12.9211 7.96833 12.9751 8.26299C13.0293 8.55845 13.2169 9.02879 13.7008 9.59455L10.661 12.1945ZM9.70276 5.63795C9.83707 5.45397 9.98294 5.28403 10.139 5.12801L12.9674 7.95643C12.9572 7.96664 12.9458 7.97951 12.9334 7.99648L9.70276 5.63795ZM10.139 5.12801C10.2453 5.02169 10.3491 4.92998 10.4438 4.85179L12.9903 7.93651C12.9728 7.951 12.9666 7.95725 12.9674 7.95643L10.139 5.12801Z" fill="white" mask="url(#path-7-inside-4_507_164)"/>
</svg>
